<?xml version="1.0" encoding="UTF-8" standalone="no"?>
<!-- Generator: Adobe Illustrator 19.0.0, SVG Export Plug-In . SVG Version: 6.00 Build 0)  -->

<svg
   xmlns:dc="http://purl.org/dc/elements/1.1/"
   xmlns:cc="http://creativecommons.org/ns#"
   xmlns:rdf="http://www.w3.org/1999/02/22-rdf-syntax-ns#"
   xmlns:svg="http://www.w3.org/2000/svg"
   xmlns="http://www.w3.org/2000/svg"
   xmlns:sodipodi="http://sodipodi.sourceforge.net/DTD/sodipodi-0.dtd"
   xmlns:inkscape="http://www.inkscape.org/namespaces/inkscape"
   version="1.1"
   id="Capa_1"
   x="0px"
   y="0px"
   viewBox="0 0 512 512"
   style="enable-background:new 0 0 512 512;"
   xml:space="preserve"
   sodipodi:docname="approvalnav.svg"
   inkscape:version="0.92.4 (f8dce91, 2019-08-02)"><metadata
   id="metadata1142"><rdf:RDF><cc:Work
       rdf:about=""><dc:format>image/svg+xml</dc:format><dc:type
         rdf:resource="http://purl.org/dc/dcmitype/StillImage" /><dc:title></dc:title></cc:Work></rdf:RDF></metadata><defs
   id="defs1140" /><sodipodi:namedview
   pagecolor="#ffffff"
   bordercolor="#666666"
   borderopacity="1"
   objecttolerance="10"
   gridtolerance="10"
   guidetolerance="10"
   inkscape:pageopacity="0"
   inkscape:pageshadow="2"
   inkscape:window-width="1853"
   inkscape:window-height="1025"
   id="namedview1138"
   showgrid="false"
   inkscape:zoom="1.6484375"
   inkscape:cx="256"
   inkscape:cy="256"
   inkscape:window-x="67"
   inkscape:window-y="27"
   inkscape:window-maximized="1"
   inkscape:current-layer="Capa_1" />
<g
   id="g1057">
	<g
   id="g1055">
		<path
   d="M61.069,169.93C59.21,168.069,56.63,167,54,167s-5.209,1.07-7.07,2.93C45.069,171.79,44,174.37,44,177    s1.069,5.21,2.93,7.069C48.79,185.93,51.37,187,54,187s5.21-1.07,7.069-2.931C62.93,182.21,64,179.63,64,177    S62.93,171.79,61.069,169.93z"
   id="path1053" />
	</g>
</g>
<g
   id="g1063">
	<g
   id="g1061">
		<path
   d="M438,0H235.667c-5.522,0-10,4.478-10,10s4.478,10,10,10H438c5.514,0,10,4.486,10,10v452c0,5.514-4.486,10-10,10H74    c-5.514,0-10-4.486-10-10V214.333c0-5.522-4.478-10-10-10s-10,4.478-10,10V482c0,16.542,13.458,30,30,30h364    c16.542,0,30-13.458,30-30V30C468,13.458,454.542,0,438,0z"
   id="path1059" />
	</g>
</g>
<g
   id="g1069">
	<g
   id="g1067">
		<path
   d="M256,40c-6.804,0-13.642,0.52-20.324,1.544c-5.459,0.838-9.206,5.941-8.369,11.4c0.837,5.459,5.943,9.201,11.4,8.369    C244.39,60.441,250.208,60,256,60c62.309,0,113.001,50.692,113.001,113.001c0,27.67-10.002,53.043-26.574,72.71    c-7.333-12.61-17.349-23.487-29.506-31.924c-7.095-4.924-14.718-8.854-22.698-11.763c9.108-8.903,14.777-21.31,14.777-35.022    v-9.75c0-27.02-21.981-49.001-49-49.001c-27.019,0-49,21.981-49,49.001v9.75c0,13.712,5.668,26.119,14.777,35.022    c-7.979,2.909-15.602,6.839-22.698,11.763c-12.215,8.478-22.271,19.416-29.613,32.102c-12.627-15.005-21.453-33.461-24.906-54.05    c-0.913-5.445-6.074-9.119-11.516-8.208c-5.447,0.913-9.122,6.069-8.209,11.516c5.142,30.66,21.059,58.724,44.82,79.021    c24.031,20.529,54.696,31.835,86.344,31.835c73.337,0,133.001-59.664,133.001-133.001S329.337,40,256,40z M227,157.251    c0-15.991,13.01-29.001,29-29.001s29,13.01,29,29.001v9.75c0,15.99-13.01,29-29,29s-29-13.01-29-29V157.251z M256,286.002    c-27.074,0-52.104-9.454-71.694-25.482c13.428-27.252,40.879-44.519,71.694-44.519c30.751,0,58.15,17.196,71.608,44.349    C308.101,276.371,283.154,286.002,256,286.002z"
   id="path1065" />
	</g>
</g>
<g
   id="g1075">
	<g
   id="g1073">
		<path
   d="M348.357,398.002h-142c-5.522,0-10,4.478-10,10c0,5.522,4.478,10,10,10h142c5.523,0,10-4.478,10-10    C358.357,402.48,353.879,398.002,348.357,398.002z"
   id="path1071" />
	</g>
</g>
<g
   id="g1081">
	<g
   id="g1079">
		<path
   d="M170.71,344.93c-1.86-1.861-4.44-2.93-7.07-2.93s-5.21,1.07-7.07,2.93s-2.93,4.44-2.93,7.07    c0,2.639,1.071,5.21,2.93,7.069c1.86,1.861,4.44,2.931,7.07,2.931s5.21-1.07,7.07-2.931c1.87-1.859,2.93-4.439,2.93-7.069    S172.58,346.79,170.71,344.93z"
   id="path1077" />
	</g>
</g>
<g
   id="g1087">
	<g
   id="g1085">
		<path
   d="M170.71,400.93c-1.86-1.861-4.43-2.93-7.07-2.93c-2.63,0-5.21,1.07-7.07,2.93s-2.93,4.44-2.93,7.07    c0,2.639,1.071,5.21,2.93,7.069c1.86,1.861,4.44,2.931,7.07,2.931s5.21-1.07,7.07-2.931c1.87-1.859,2.93-4.429,2.93-7.069    C173.64,405.37,172.58,402.79,170.71,400.93z"
   id="path1083" />
	</g>
</g>
<g
   id="g1093">
	<g
   id="g1091">
		<path
   d="M348.357,342.002h-142c-5.522,0-10,4.478-10,10c0,5.522,4.478,10,10,10h142c5.523,0,10-4.478,10-10    C358.357,346.48,353.879,342.002,348.357,342.002z"
   id="path1089" />
	</g>
</g>
<g
   id="g1099">
	<g
   id="g1097">
		<path
   d="M161.626,57.629c-3.907-3.904-10.237-3.904-14.143,0l-32.566,32.566l-11.129-11.129c-3.907-3.904-10.237-3.904-14.143,0    c-3.905,3.906-3.905,10.238,0,14.143l18.2,18.2c1.953,1.952,4.511,2.929,7.071,2.929s5.118-0.977,7.072-2.928l39.638-39.638    C165.531,67.866,165.531,61.534,161.626,57.629z"
   id="path1095" />
	</g>
</g>
<g
   id="g1105">
	<g
   id="g1103">
		<path
   d="M126,0C80.785,0,44,36.785,44,82c0,45.215,36.785,82,82,82c45.215,0,82-36.785,82-82C208,36.785,171.215,0,126,0z     M126,144c-34.187,0-62-27.813-62-62s27.813-62,62-62s62,27.813,62,62S160.187,144,126,144z"
   id="path1101" />
	</g>
</g>
<g
   id="g1107">
</g>
<g
   id="g1109">
</g>
<g
   id="g1111">
</g>
<g
   id="g1113">
</g>
<g
   id="g1115">
</g>
<g
   id="g1117">
</g>
<g
   id="g1119">
</g>
<g
   id="g1121">
</g>
<g
   id="g1123">
</g>
<g
   id="g1125">
</g>
<g
   id="g1127">
</g>
<g
   id="g1129">
</g>
<g
   id="g1131">
</g>
<g
   id="g1133">
</g>
<g
   id="g1135">
</g>
<path
   style="fill:#0066ff;fill-opacity:1;stroke-width:0.60663509"
   d="m 241.92607,304.94605 c -45.71757,-5.21803 -85.00548,-32.77651 -104.9771,-73.6361 -4.90068,-10.0262 -9.04831,-22.11681 -10.95667,-31.93939 l -1.37307,-7.06736 1.49446,-2.94212 c 2.82501,-5.56153 9.42622,-7.23178 14.19777,-3.59235 2.77674,2.11792 3.54727,3.77202 4.82435,10.35639 1.50787,7.77429 5.24192,18.74221 9.07417,26.65328 3.16077,6.52493 9.86081,17.16592 13.54983,21.51983 l 1.7529,2.06884 1.85455,-2.97879 C 181.80657,226.6205 199.3782,211.5544 217.00265,204.26 c 2.53063,-1.04737 4.70058,-1.9952 4.82211,-2.10629 0.12154,-0.11108 -1.14839,-1.78595 -2.82205,-3.72192 -5.53871,-6.40677 -9.21539,-14.1422 -10.85937,-22.8472 -0.70536,-3.73492 -0.86714,-7.67267 -0.66395,-16.16089 0.2558,-10.68637 0.36203,-11.49819 2.22277,-16.98579 4.42695,-13.05566 12.88016,-22.73212 25.35156,-29.02011 19.27823,-9.71995 44.02492,-4.36592 58.21899,12.59588 4.17094,4.98424 8.88538,14.57573 10.3092,20.974 1.62849,7.31799 1.44355,24.88296 -0.33214,31.54502 -1.86218,6.98655 -5.13854,13.53922 -9.47033,18.94056 l -3.77804,4.71085 3.10925,1.27491 c 18.69538,7.66582 34.77605,20.83702 46.06111,37.72731 l 3.35626,5.02329 2.69624,-3.5067 c 13.34614,-17.35792 21.26735,-37.25458 23.45966,-58.92643 2.09251,-20.68534 -1.88923,-42.22587 -11.2725,-60.98237 -5.7186,-11.43106 -11.06134,-18.99335 -19.92649,-28.204592 -17.85738,-18.55454 -40.44948,-30.118381 -65.91266,-33.737614 -7.55443,-1.073756 -20.8974,-1.17583 -29.65792,-0.226886 -6.08458,0.659086 -6.50185,0.629775 -8.97166,-0.630229 -4.57461,-2.333788 -6.48741,-7.20353 -4.68418,-11.925243 1.64876,-4.317192 4.04742,-5.726999 11.39711,-6.698614 8.08614,-1.068972 25.13515,-1.052869 33.20883,0.03137 28.51532,3.829392 54.63851,16.425308 74.83417,36.083064 12.07733,11.755658 20.68489,23.470514 27.3662,37.245294 13.1402,27.09103 16.7525,55.21145 10.87674,84.67125 -11.25548,56.43252 -59.12396,99.76811 -116.62953,105.58532 -7.25048,0.73345 -20.77724,0.71311 -27.38596,-0.0412 z m 34.5354,-20.53273 c 16.65006,-3.09801 33.62574,-10.551 47.50875,-20.85821 l 4.09155,-3.0377 -2.17228,-3.98761 c -7.21394,-13.24249 -20.02489,-25.42481 -34.16798,-32.49135 -18.21255,-9.09984 -41.52667,-10.68992 -61.32151,-4.18228 -12.78515,4.20316 -25.49975,12.64212 -34.50508,22.90175 -3.62273,4.12734 -9.69674,13.02555 -10.93968,16.02629 -0.95829,2.31353 -0.97729,2.29347 7.83339,8.27098 13.86199,9.40454 30.53395,15.68451 48.5308,18.28054 8.39593,1.2111 26.18509,0.74417 35.14204,-0.92241 z m -14.43693,-88.85859 c 10.15717,-2.15292 18.7584,-9.95948 21.82331,-19.80707 1.68602,-5.4172 1.66069,-21.82108 -0.0422,-27.33115 -3.16441,-10.2391 -12.15176,-18.02137 -23.06411,-19.97151 -14.58368,-2.60625 -29.25322,7.01473 -33.07645,21.69312 -1.24282,4.7715 -1.22774,19.31728 0.025,24.12693 2.37408,9.1147 9.43316,17.02701 17.90167,20.06545 6.06806,2.17717 10.41061,2.50069 16.43276,1.22423 z"
   id="path1144"
   inkscape:connector-curvature="0" /><path
   style="fill:#0066ff;fill-opacity:1;stroke-width:0.60663509"
   d="M 116.95924,163.28989 C 85.802966,159.35498 59.646817,138.56542 49.067397,109.32777 45.764495,100.19975 44.573394,92.977338 44.573394,82.077725 c 0,-10.857548 1.13736,-17.790805 4.496922,-27.412872 9.566795,-27.40011 34.885107,-48.5803857 63.642484,-53.240725 25.48941,-4.1307431 51.26415,3.9770373 69.85645,21.974254 12.37277,11.976764 20.32404,26.58279 23.675,43.489656 1.57042,7.923333 1.68333,20.772459 0.25344,28.838976 -5.90068,33.287646 -31.20816,59.299486 -64.66641,66.466186 -4.43557,0.95009 -20.44388,1.65595 -24.87204,1.09669 z m 19.208,-19.9385 c 25.31516,-4.10583 45.52129,-23.64419 50.85865,-49.177914 1.18453,-5.666742 1.35375,-16.994845 0.33926,-22.711865 -4.28394,-24.14166 -21.9068,-43.255146 -45.98123,-49.870538 -3.9608,-1.088384 -6.39588,-1.296366 -15.32515,-1.308928 -11.70151,-0.01646 -15.27428,0.638333 -24.54801,4.498995 -12.84179,5.346052 -24.717252,16.587449 -31.18898,29.523716 -8.429742,16.85012 -8.694912,36.889751 -0.713621,53.930264 11.897253,25.40132 38.833891,39.61297 66.559081,35.11627 z"
   id="path1146"
   inkscape:connector-curvature="0" /><path
   style="fill:#0066ff;fill-opacity:1;stroke-width:0.60663509"
   d="m 110.28626,112.73419 c -2.8212,-1.51242 -21.576097,-20.480544 -22.40335,-22.658042 -2.953645,-7.774592 3.837171,-15.517512 11.575926,-13.198925 1.725084,0.516847 4.280034,2.534395 9.070744,7.162817 l 6.66923,6.443304 17.41102,-17.356376 c 11.56334,-11.527047 17.98363,-17.49711 19.11591,-17.7754 8.13735,-1.999983 15.17206,6.248774 11.4491,13.424977 -1.56146,3.009794 -42.2569,43.633605 -44.58684,44.508365 -2.54329,0.95485 -5.90994,0.73152 -8.30174,-0.55072 z"
   id="path1148"
   inkscape:connector-curvature="0" /><path
   style="fill:#0066ff;fill-opacity:1;stroke-width:0.60663509"
   d="M 69.035071,511.25108 C 56.768943,509.0723 46.855111,499.15755 44.792886,487.00664 44.315147,484.19173 44.172693,444.15245 44.295009,347.07004 l 0.171342,-135.99347 1.269048,-1.71269 c 4.615152,-6.22857 13.753766,-5.8939 16.843304,0.61682 0.915098,1.92843 0.997743,13.21217 1.009975,137.89487 0.0128,130.4722 0.05699,135.88968 1.127595,138.22111 0.612849,1.3346 1.680727,2.93023 2.37306,3.54583 3.269598,2.90727 -6.075745,2.76884 188.850477,2.79722 134.84446,0.0197 183.50392,-0.15431 185.0237,-0.66137 2.82163,-0.9414 5.91025,-3.99343 6.65322,-6.57441 0.41366,-1.43697 0.55795,-77.24028 0.43905,-230.64573 L 447.87867,26.052925 446.62792,24.37769 c -0.68791,-0.921379 -2.00457,-2.238075 -2.92589,-2.925989 -1.67294,-1.249116 -1.81183,-1.25115 -106.12366,-1.554071 -103.99929,-0.302013 -104.45764,-0.308676 -106.56967,-1.549386 -3.51816,-2.066727 -5.00396,-4.833989 -4.72656,-8.803082 0.27794,-3.9770676 1.9043,-6.6270368 4.95589,-8.0751113 1.88973,-0.8967353 11.42288,-0.98474264 106.66961,-0.98474264 114.58534,0 106.85795,-0.23564873 114.20041,3.48256944 3.92672,1.9884891 10.05039,8.1470285 12.0764,12.1451585 3.6723,7.246924 3.41053,-11.2196747 3.40266,240.044754 -0.008,243.63877 0.12212,231.83722 -2.61854,238.16731 -1.36533,3.15352 -5.48075,8.41455 -8.44561,10.79662 -3.39204,2.72529 -9.02028,5.27134 -13.47181,6.09425 -4.2554,0.78666 -369.591946,0.82094 -374.016079,0.0351 z"
   id="path1150"
   inkscape:connector-curvature="0" /><path
   style="fill:#0066ff;fill-opacity:1;stroke-width:0.60663509"
   d="m 201.21957,360.06737 c -2.76825,-1.83425 -5.05204,-6.45609 -4.53968,-9.18722 0.52745,-2.81154 2.67018,-5.81771 5.21032,-7.30991 2.10819,-1.23845 2.57001,-1.24607 75.52401,-1.24607 72.954,0 73.41581,0.008 75.524,1.24607 6.35745,3.73465 6.61214,12.90352 0.46259,16.65294 -1.94429,1.18545 -3.20692,1.2055 -76.04854,1.20773 l -74.07143,0.002 z"
   id="path1152"
   inkscape:connector-curvature="0" /><path
   style="fill:#0066ff;fill-opacity:1;stroke-width:0.60663509"
   d="m 160.00993,360.96813 c -5.35211,-2.55943 -7.44609,-8.36486 -4.85154,-13.4506 3.51414,-6.88828 13.59218,-6.78285 16.9616,0.17744 2.09903,4.33602 1.33935,8.14604 -2.30817,11.57623 -1.56738,1.47399 -2.49564,1.81225 -5.38277,1.96149 -1.91882,0.0992 -3.90743,-0.0199 -4.41912,-0.26456 z"
   id="path1154"
   inkscape:connector-curvature="0" /><path
   style="fill:#0066ff;fill-opacity:1;stroke-width:0.60663509"
   d="m 159.667,416.69433 c -3.67777,-1.67024 -5.3997,-4.43105 -5.3997,-8.65743 0,-2.54388 0.33159,-3.89118 1.26905,-5.1564 4.37322,-5.90218 11.85708,-5.9548 16.18263,-0.11378 3.14422,4.2458 1.23056,11.19227 -3.77927,13.71859 -3.27139,1.64966 -5.00411,1.69344 -8.27271,0.20902 z"
   id="path1156"
   inkscape:connector-curvature="0" /><path
   style="fill:#0066ff;fill-opacity:1;stroke-width:0.60663509"
   d="m 203.10142,417.17678 c -2.46233,-0.98486 -5.43708,-4.26924 -6.10145,-6.73653 -1.16371,-4.32166 1.28097,-9.49755 5.27387,-11.16589 1.66371,-0.69515 14.36365,-0.83645 75.18087,-0.83645 81.54374,0 75.81936,-0.30274 78.85911,4.17065 2.92867,4.30992 1.63914,10.25914 -2.9629,13.66931 l -1.71258,1.26905 -73.51017,0.11822 c -47.86815,0.077 -74.03918,-0.0934 -75.02675,-0.48836 z"
   id="path1158"
   inkscape:connector-curvature="0" /><path
   style="fill:#0066ff;fill-opacity:1;stroke-width:0.60663509"
   d="m 49.44532,185.48915 c -6.16084,-3.34423 -6.786702,-11.94206 -1.180563,-16.21807 2.846098,-2.17082 8.204228,-2.36249 10.86801,-0.38876 5.913712,4.38177 5.955086,11.85649 0.08967,16.20064 -2.38477,1.76625 -6.924148,1.95484 -9.777121,0.40619 z"
   id="path1160"
   inkscape:connector-curvature="0" /></svg>