<?xml version="1.0" encoding="UTF-8" standalone="no"?>
<svg
   xmlns:dc="http://purl.org/dc/elements/1.1/"
   xmlns:cc="http://creativecommons.org/ns#"
   xmlns:rdf="http://www.w3.org/1999/02/22-rdf-syntax-ns#"
   xmlns:svg="http://www.w3.org/2000/svg"
   xmlns="http://www.w3.org/2000/svg"
   xmlns:sodipodi="http://sodipodi.sourceforge.net/DTD/sodipodi-0.dtd"
   xmlns:inkscape="http://www.inkscape.org/namespaces/inkscape"
   inkscape:version="1.0 (6e3e5246a0, 2020-05-07)"
   sodipodi:docname="approval.svg"
   xml:space="preserve"
   style="enable-background:new 0 0 512 512;"
   viewBox="0 0 512 512"
   y="0px"
   x="0px"
   id="Capa_1"
   version="1.1"><metadata
   id="metadata4004"><rdf:RDF><cc:Work
       rdf:about=""><dc:format>image/svg+xml</dc:format><dc:type
         rdf:resource="http://purl.org/dc/dcmitype/StillImage" /><dc:title /></cc:Work></rdf:RDF></metadata><defs
   id="defs4002" /><sodipodi:namedview
   inkscape:document-rotation="0"
   inkscape:current-layer="Capa_1"
   inkscape:window-maximized="1"
   inkscape:window-y="27"
   inkscape:window-x="67"
   inkscape:cy="256"
   inkscape:cx="256"
   inkscape:zoom="1.6484375"
   showgrid="false"
   id="namedview4000"
   inkscape:window-height="1025"
   inkscape:window-width="1853"
   inkscape:pageshadow="2"
   inkscape:pageopacity="0"
   guidetolerance="10"
   gridtolerance="10"
   objecttolerance="10"
   borderopacity="1"
   bordercolor="#666666"
   pagecolor="#ffffff" />
<g
   style="fill:#ffffff"
   id="g3919">
	<g
   style="fill:#ffffff"
   id="g3917">
		<path
   style="fill:#ffffff"
   id="path3915"
   d="M61.069,169.93C59.21,168.069,56.63,167,54,167s-5.209,1.07-7.07,2.93C45.069,171.79,44,174.37,44,177    s1.069,5.21,2.93,7.069C48.79,185.93,51.37,187,54,187s5.21-1.07,7.069-2.931C62.93,182.21,64,179.63,64,177    S62.93,171.79,61.069,169.93z" />
	</g>
</g>
<g
   style="fill:#ffffff"
   id="g3925">
	<g
   style="fill:#ffffff"
   id="g3923">
		<path
   style="fill:#ffffff"
   id="path3921"
   d="M438,0H235.667c-5.522,0-10,4.478-10,10s4.478,10,10,10H438c5.514,0,10,4.486,10,10v452c0,5.514-4.486,10-10,10H74    c-5.514,0-10-4.486-10-10V214.333c0-5.522-4.478-10-10-10s-10,4.478-10,10V482c0,16.542,13.458,30,30,30h364    c16.542,0,30-13.458,30-30V30C468,13.458,454.542,0,438,0z" />
	</g>
</g>
<g
   style="fill:#ffffff"
   id="g3931">
	<g
   style="fill:#ffffff"
   id="g3929">
		<path
   style="fill:#ffffff"
   id="path3927"
   d="M256,40c-6.804,0-13.642,0.52-20.324,1.544c-5.459,0.838-9.206,5.941-8.369,11.4c0.837,5.459,5.943,9.201,11.4,8.369    C244.39,60.441,250.208,60,256,60c62.309,0,113.001,50.692,113.001,113.001c0,27.67-10.002,53.043-26.574,72.71    c-7.333-12.61-17.349-23.487-29.506-31.924c-7.095-4.924-14.718-8.854-22.698-11.763c9.108-8.903,14.777-21.31,14.777-35.022    v-9.75c0-27.02-21.981-49.001-49-49.001c-27.019,0-49,21.981-49,49.001v9.75c0,13.712,5.668,26.119,14.777,35.022    c-7.979,2.909-15.602,6.839-22.698,11.763c-12.215,8.478-22.271,19.416-29.613,32.102c-12.627-15.005-21.453-33.461-24.906-54.05    c-0.913-5.445-6.074-9.119-11.516-8.208c-5.447,0.913-9.122,6.069-8.209,11.516c5.142,30.66,21.059,58.724,44.82,79.021    c24.031,20.529,54.696,31.835,86.344,31.835c73.337,0,133.001-59.664,133.001-133.001S329.337,40,256,40z M227,157.251    c0-15.991,13.01-29.001,29-29.001s29,13.01,29,29.001v9.75c0,15.99-13.01,29-29,29s-29-13.01-29-29V157.251z M256,286.002    c-27.074,0-52.104-9.454-71.694-25.482c13.428-27.252,40.879-44.519,71.694-44.519c30.751,0,58.15,17.196,71.608,44.349    C308.101,276.371,283.154,286.002,256,286.002z" />
	</g>
</g>
<g
   style="fill:#ffffff"
   id="g3937">
	<g
   style="fill:#ffffff"
   id="g3935">
		<path
   style="fill:#ffffff"
   id="path3933"
   d="M348.357,398.002h-142c-5.522,0-10,4.478-10,10c0,5.522,4.478,10,10,10h142c5.523,0,10-4.478,10-10    C358.357,402.48,353.879,398.002,348.357,398.002z" />
	</g>
</g>
<g
   style="fill:#ffffff"
   id="g3943">
	<g
   style="fill:#ffffff"
   id="g3941">
		<path
   style="fill:#ffffff"
   id="path3939"
   d="M170.71,344.93c-1.86-1.861-4.44-2.93-7.07-2.93s-5.21,1.07-7.07,2.93s-2.93,4.44-2.93,7.07    c0,2.639,1.071,5.21,2.93,7.069c1.86,1.861,4.44,2.931,7.07,2.931s5.21-1.07,7.07-2.931c1.87-1.859,2.93-4.439,2.93-7.069    S172.58,346.79,170.71,344.93z" />
	</g>
</g>
<g
   style="fill:#ffffff"
   id="g3949">
	<g
   style="fill:#ffffff"
   id="g3947">
		<path
   style="fill:#ffffff"
   id="path3945"
   d="M170.71,400.93c-1.86-1.861-4.43-2.93-7.07-2.93c-2.63,0-5.21,1.07-7.07,2.93s-2.93,4.44-2.93,7.07    c0,2.639,1.071,5.21,2.93,7.069c1.86,1.861,4.44,2.931,7.07,2.931s5.21-1.07,7.07-2.931c1.87-1.859,2.93-4.429,2.93-7.069    C173.64,405.37,172.58,402.79,170.71,400.93z" />
	</g>
</g>
<g
   style="fill:#ffffff"
   id="g3955">
	<g
   style="fill:#ffffff"
   id="g3953">
		<path
   style="fill:#ffffff"
   id="path3951"
   d="M348.357,342.002h-142c-5.522,0-10,4.478-10,10c0,5.522,4.478,10,10,10h142c5.523,0,10-4.478,10-10    C358.357,346.48,353.879,342.002,348.357,342.002z" />
	</g>
</g>
<g
   style="fill:#ffffff"
   id="g3961">
	<g
   style="fill:#ffffff"
   id="g3959">
		<path
   style="fill:#ffffff"
   id="path3957"
   d="M161.626,57.629c-3.907-3.904-10.237-3.904-14.143,0l-32.566,32.566l-11.129-11.129c-3.907-3.904-10.237-3.904-14.143,0    c-3.905,3.906-3.905,10.238,0,14.143l18.2,18.2c1.953,1.952,4.511,2.929,7.071,2.929s5.118-0.977,7.072-2.928l39.638-39.638    C165.531,67.866,165.531,61.534,161.626,57.629z" />
	</g>
</g>
<g
   style="fill:#ffffff"
   id="g3967">
	<g
   style="fill:#ffffff"
   id="g3965">
		<path
   style="fill:#ffffff"
   id="path3963"
   d="M126,0C80.785,0,44,36.785,44,82c0,45.215,36.785,82,82,82c45.215,0,82-36.785,82-82C208,36.785,171.215,0,126,0z     M126,144c-34.187,0-62-27.813-62-62s27.813-62,62-62s62,27.813,62,62S160.187,144,126,144z" />
	</g>
</g>
<g
   style="fill:#ffffff"
   id="g3969">
</g>
<g
   style="fill:#ffffff"
   id="g3971">
</g>
<g
   style="fill:#ffffff"
   id="g3973">
</g>
<g
   style="fill:#ffffff"
   id="g3975">
</g>
<g
   style="fill:#ffffff"
   id="g3977">
</g>
<g
   style="fill:#ffffff"
   id="g3979">
</g>
<g
   style="fill:#ffffff"
   id="g3981">
</g>
<g
   style="fill:#ffffff"
   id="g3983">
</g>
<g
   style="fill:#ffffff"
   id="g3985">
</g>
<g
   style="fill:#ffffff"
   id="g3987">
</g>
<g
   style="fill:#ffffff"
   id="g3989">
</g>
<g
   style="fill:#ffffff"
   id="g3991">
</g>
<g
   style="fill:#ffffff"
   id="g3993">
</g>
<g
   style="fill:#ffffff"
   id="g3995">
</g>
<g
   style="fill:#ffffff"
   id="g3997">
</g>
<path
   inkscape:connector-curvature="0"
   id="path4006"
   d="m 67.738483,510.96016 c -4.344698,-0.94392 -9.938581,-3.75218 -13.434129,-6.74423 -3.387621,-2.89968 -7.123485,-8.74492 -8.558444,-13.39077 -1.20564,-3.90341 -1.218871,-5.44487 -1.216628,-141.74025 0.0022,-136.42647 0.01423,-137.81353 1.207725,-139.77102 3.749426,-6.14955 12.918287,-5.89486 16.652943,0.46258 1.244605,2.11867 1.246426,2.28229 1.549386,139.22069 0.292505,132.21193 0.343402,137.15861 1.427699,138.75709 0.618409,0.91165 2.119831,2.27658 3.336492,3.03317 l 2.212113,1.37561 h 185.0237 c 183.93267,0 185.03584,-0.007 187.0835,-1.21327 2.64996,-1.56088 4.25049,-3.73708 4.9423,-6.71993 0.8358,-3.60373 0.75136,-453.670678 -0.0857,-456.749261 -0.66475,-2.444855 -2.85383,-5.268366 -5.09649,-6.573532 -0.90441,-0.52634 -27.77539,-0.783305 -105.5545,-1.009407 L 232.8872,19.594313 230.65536,18.206508 c -2.99526,-1.862519 -5.01114,-6.004533 -4.55985,-9.369115 0.38717,-2.8866148 1.84296,-5.068327 4.6623,-6.987156 l 2.0055,-1.36492894 h 104.7307 c 115.10936,0 108.25236,-0.21798645 115.02457,3.65667624 6.2218,3.5597557 10.9403,9.2876437 13.76864,16.7140727 l 1.36776,3.591336 0.17459,228.094787 c 0.11979,156.50691 -0.0249,229.61793 -0.46116,232.94787 -1.67175,12.76169 -10.9981,22.84459 -23.60151,25.51607 -5.89204,1.2489 -370.273399,1.20436 -376.028417,-0.046 z"
   style="fill:#ffffff;stroke-width:0.60663509" /><path
   inkscape:connector-curvature="0"
   id="path4008"
   d="m 50.259972,185.86898 c -2.192198,-0.95486 -4.973794,-4.0908 -5.504642,-6.20587 -0.737184,-2.93717 0.146833,-6.88689 1.977246,-8.83417 3.354338,-3.56851 7.614198,-4.41414 11.71008,-2.32458 6.92083,3.53075 6.815741,13.57626 -0.17744,16.9616 -2.970207,1.43786 -5.353933,1.55786 -8.005244,0.40302 z"
   style="fill:#ffffff;stroke-width:0.60663509" /><path
   inkscape:connector-curvature="0"
   id="path4010"
   d="M 113.68341,162.7783 C 94.135503,159.53214 75.932127,149.29392 63.758869,134.69895 55.331803,124.59542 50.17444,114.57376 46.824947,101.79336 44.407195,92.568132 43.806322,78.669097 45.404837,68.944185 50.333378,38.960313 71.801562,13.85824 100.57316,4.4375967 c 9.74633,-3.1912272 17.04259,-4.16737953 28.19095,-3.77161373 13.35525,0.47411013 22.62255,2.76009353 33.6885,8.31001523 18.57277,9.3148248 33.52698,26.2107658 40.58294,45.8524208 3.17793,8.846382 4.34335,16.071837 4.34623,26.945989 0.004,14.424878 -2.06368,23.606632 -8.12765,36.094782 -8.80254,18.12798 -25.68098,33.51124 -44.63029,40.67671 -11.65106,4.40571 -29.05938,6.20538 -40.94043,4.2324 z m 26.99526,-20.26931 c 25.04272,-6.2879 43.65116,-27.09666 47.06243,-52.627202 0.41829,-3.130552 0.56413,-7.920318 0.34903,-11.463025 -1.78658,-29.425811 -23.47164,-53.248352 -52.73904,-57.937512 -6.41634,-1.028012 -18.74445,-0.444776 -24.73834,1.170355 -23.431879,6.31402 -40.747157,24.535468 -45.595819,47.982008 -0.966006,4.67129 -1.141127,7.389658 -0.918907,14.264016 0.342833,10.605528 1.748331,16.38702 6.193938,25.47867 8.951081,18.30574 24.649887,30.05313 45.484098,34.03568 5.95137,1.13763 18.60251,0.67889 24.90261,-0.90299 z"
   style="fill:#ffffff;stroke-width:0.60663509" /><path
   inkscape:connector-curvature="0"
   id="path4012"
   d="m 110.34692,112.77331 c -2.92874,-1.8478 -22.022337,-21.43259 -22.719339,-23.303797 -2.069503,-5.555892 1.618426,-11.766844 7.665581,-12.909834 3.65031,-0.689956 6.196438,0.778048 13.092658,7.54875 l 6.53178,6.412905 17.12698,-17.076771 c 9.41984,-9.392224 17.89546,-17.36597 18.83472,-17.719435 4.43104,-1.667509 10.28287,0.4648 12.16593,4.433067 1.13888,2.400009 1.29449,6.532594 0.31863,8.461781 -0.95399,1.885944 -42.36737,43.386754 -44.34227,44.435874 -2.30908,1.22665 -6.49892,1.09019 -8.67467,-0.28254 z"
   style="fill:#ffffff;stroke-width:0.60663509" /><path
   inkscape:connector-curvature="0"
   id="path4014"
   d="m 243.80664,305.19831 c -6.04785,-0.54953 -18.19025,-2.90343 -24.56125,-4.76139 -39.67327,-11.56986 -71.50663,-40.59187 -86.77597,-79.11241 -3.37037,-8.50254 -6.622,-20.5582 -7.04217,-26.10934 -0.31042,-4.10103 -0.20352,-4.75368 1.08385,-6.61721 3.22676,-4.6709 7.59506,-5.99629 12.28313,-3.72683 3.62062,1.75271 4.80505,3.88291 6.42341,11.55245 3.00425,14.23748 8.79072,27.99284 16.71719,39.73945 4.76567,7.06247 7.37654,10.44662 7.70399,9.98577 0.10927,-0.15378 1.52732,-2.327 3.15121,-4.82937 10.30732,-15.88326 26.30208,-29.37691 43.59632,-36.77915 2.7195,-1.164 5.0468,-2.21861 5.17177,-2.34358 0.12497,-0.12497 -1.09666,-1.86445 -2.71474,-3.86549 -9.08209,-11.23166 -12.26558,-22.19935 -11.55741,-39.81747 0.40412,-10.05407 1.77095,-15.98925 5.3087,-23.05213 11.33167,-22.62284 38.54162,-32.88419 61.67721,-23.25955 14.30226,5.94989 24.7883,17.95095 29.06911,33.26903 1.61317,5.77238 1.62185,26.93973 0.0136,33.06161 -1.62997,6.20443 -5.88055,14.5704 -9.81039,19.30876 -1.88978,2.27858 -3.34387,4.22904 -3.2313,4.33435 0.11257,0.10531 1.97908,0.92559 4.1478,1.82286 18.29233,7.56807 34.85093,21.87341 47.14919,40.73325 0.6938,1.06397 0.88336,0.98088 2.94116,-1.28927 3.18,-3.50814 8.88464,-12.33159 12.3186,-19.05332 14.01088,-27.42537 16.12491,-59.71826 5.83743,-89.16957 -13.00409,-37.228392 -45.06532,-64.997562 -84.6126,-73.285411 -6.73253,-1.410925 -9.04387,-1.597748 -20.33523,-1.643673 -7.00663,-0.0285 -15.24038,0.08468 -18.2972,0.251504 -4.96398,0.270907 -5.74184,0.167715 -7.27962,-0.965731 -3.30529,-2.43622 -4.58503,-5.031263 -4.32391,-8.767994 0.56881,-8.139861 6.43205,-10.279732 28.17683,-10.283523 26.77332,-0.0047 50.84616,7.213301 72.89514,21.856788 32.66913,21.696697 53.43625,54.96712 58.6795,94.0088 0.9996,7.44315 1.13217,23.42831 0.25909,31.24171 -2.55183,22.83692 -11.94751,46.51988 -25.71066,64.8068 -21.90248,29.10158 -54.576,47.93273 -90.74988,52.30304 -6.3173,0.76322 -21.46743,1.01364 -27.60189,0.45624 z m 24.44096,-19.63508 c 17.8631,-1.96254 35.21525,-8.23811 49.87183,-18.03661 3.50332,-2.3421 7.16769,-4.923 8.14303,-5.73532 l 1.77337,-1.47696 -2.26251,-4.04575 c -7.29582,-13.04614 -19.69426,-24.85892 -33.53927,-31.95498 -5.27849,-2.70542 -15.23839,-6.06841 -21.73547,-7.33905 -6.41816,-1.25521 -24.16691,-1.08815 -30.49444,0.28703 -23.07565,5.0151 -41.80741,18.55462 -53.5963,38.73999 l -2.54236,4.35313 2.06536,1.75071 c 4.37051,3.70468 13.97764,9.6695 20.78779,12.90661 19.28511,9.16688 40.70146,12.83943 61.52897,10.5512 z m -6.08402,-90.04813 c 10.39408,-2.45064 17.74978,-9.00239 21.45007,-19.10562 1.30987,-3.57644 1.44417,-4.90218 1.44417,-14.25593 0,-11.95882 -0.74053,-15.18647 -4.87136,-21.23222 -6.34661,-9.28869 -17.80874,-14.33915 -28.51623,-12.56486 -9.5456,1.58176 -17.61568,7.52925 -21.76341,16.03921 -2.45254,5.03188 -3.38012,9.90507 -3.38012,17.75787 0,7.81616 0.92809,12.72687 3.34124,17.67922 3.80304,7.80474 11.46572,13.8532 19.86107,15.67715 4.99598,1.08542 7.84786,1.08661 12.43457,0.005 z"
   style="fill:#ffffff;stroke-width:0.60663509" /><path
   inkscape:connector-curvature="0"
   id="path4016"
   d="m 160.39431,417.2039 c -2.49004,-1.04048 -5.4413,-4.31204 -6.10145,-6.76365 -1.2221,-4.53852 1.59815,-10.00958 5.88992,-11.42599 2.87609,-0.9492 6.94854,-0.4387 9.18086,1.15085 3.47159,2.47199 4.85244,8.37257 2.86069,12.22418 -2.04281,3.95036 -8.0487,6.39466 -11.83002,4.81461 z"
   style="fill:#ffffff;stroke-width:0.60663509" /><path
   inkscape:connector-curvature="0"
   id="path4018"
   d="m 158.51246,360.06737 c -2.76825,-1.83425 -5.05204,-6.45609 -4.53967,-9.18722 1.67161,-8.91045 12.80677,-11.43572 17.79387,-4.03537 2.88939,4.28758 1.10705,11.30324 -3.47336,13.67186 -2.69229,1.39223 -7.32263,1.17955 -9.78084,-0.44927 z"
   style="fill:#ffffff;stroke-width:0.60663509" /><path
   inkscape:connector-curvature="0"
   id="path4020"
   d="m 200.96307,359.95363 c -5.82656,-3.95925 -5.33627,-13.1751 0.88191,-16.577 1.78923,-0.97887 6.88638,-1.06518 72.90004,-1.23439 39.03697,-0.10006 72.4338,-0.009 74.21519,0.20207 7.80002,0.92474 11.78189,9.74331 6.97751,15.45299 -3.26954,3.88563 2.1501,3.63588 -78.89853,3.63588 h -73.89878 z"
   style="fill:#ffffff;stroke-width:0.60663509" /><path
   inkscape:connector-curvature="0"
   id="path4022"
   d="m 202.23391,416.48531 c -1.48601,-0.75071 -3.31826,-2.2925 -4.07167,-3.42621 -2.81768,-4.23997 -1.11617,-10.75 3.48571,-13.3364 l 2.28596,-1.28479 h 73.50203 c 81.27896,0 75.40699,-0.29466 78.64178,3.94637 3.54623,4.64934 1.97133,11.25196 -3.35584,14.06903 l -2.64162,1.39693 h -72.57225 -72.57226 z"
   style="fill:#ffffff;stroke-width:0.60663509" /></svg>
