<?xml version="1.0" encoding="UTF-8" standalone="no"?>
<svg
   xmlns:dc="http://purl.org/dc/elements/1.1/"
   xmlns:cc="http://creativecommons.org/ns#"
   xmlns:rdf="http://www.w3.org/1999/02/22-rdf-syntax-ns#"
   xmlns:svg="http://www.w3.org/2000/svg"
   xmlns="http://www.w3.org/2000/svg"
   xmlns:sodipodi="http://sodipodi.sourceforge.net/DTD/sodipodi-0.dtd"
   xmlns:inkscape="http://www.inkscape.org/namespaces/inkscape"
   inkscape:version="1.0 (6e3e5246a0, 2020-05-07)"
   sodipodi:docname="dashboard.svg"
   id="svg4"
   version="1.1"
   width="512pt"
   viewBox="0 -47 512 512"
   height="512pt">
  <metadata
     id="metadata10">
    <rdf:RDF>
      <cc:Work
         rdf:about="">
        <dc:format>image/svg+xml</dc:format>
        <dc:type
           rdf:resource="http://purl.org/dc/dcmitype/StillImage" />
      </cc:Work>
    </rdf:RDF>
  </metadata>
  <defs
     id="defs8" />
  <sodipodi:namedview
     inkscape:current-layer="svg4"
     inkscape:window-maximized="1"
     inkscape:window-y="27"
     inkscape:window-x="67"
     inkscape:cy="341.33333"
     inkscape:cx="341.33333"
     inkscape:zoom="1.2861328"
     showgrid="false"
     id="namedview6"
     inkscape:window-height="1025"
     inkscape:window-width="1853"
     inkscape:pageshadow="2"
     inkscape:pageopacity="0"
     guidetolerance="10"
     gridtolerance="10"
     objecttolerance="10"
     borderopacity="1"
     bordercolor="#666666"
     pagecolor="#ffffff" />
  <path
     style="fill:#ffffff"
     id="path2"
     d="m512 255.882812c0 56.164063-17.875 109.476563-51.691406 154.183594-6.671875 8.824219-19.21875 10.535156-28.015625 3.882813-8.808594-6.664063-10.546875-19.207031-3.886719-28.015625 28.519531-37.699219 43.59375-82.671875 43.59375-130.050782 0-119.382812-96.683594-215.882812-216-215.882812-119.398438 0-216 96.574219-216 215.882812 0 47.378907 15.074219 92.351563 43.589844 130.050782 6.664062 8.808594 4.925781 21.351562-3.882813 28.015625-8.8125 6.664062-21.351562 4.925781-28.019531-3.882813-33.8125-44.707031-51.6875-98.019531-51.6875-154.183594 0-141.5 114.578125-255.882812 256-255.882812 141.5 0 256 114.460938 256 255.882812zm-129.277344-120.449218c7.808594 7.808594 7.808594 20.472656 0 28.28125l-65.191406 65.191406c5.367188 9.894531 8.421875 21.222656 8.421875 33.246094 0 38.574218-31.382813 69.953125-69.953125 69.953125-38.574219 0-69.953125-31.378907-69.953125-69.953125 0-38.570313 31.378906-69.953125 69.953125-69.953125 12.027344 0 23.351562 3.054687 33.246094 8.421875l65.191406-65.191406c7.8125-7.808594 20.472656-7.808594 28.285156.003906zm-96.769531 126.722656c0-16.515625-13.4375-29.953125-29.953125-29.953125s-29.953125 13.4375-29.953125 29.953125 13.4375 29.953125 29.953125 29.953125 29.953125-13.4375 29.953125-29.953125zm0 0" />
</svg>
