<?xml version="1.0" encoding="UTF-8" standalone="no"?>
<!-- Generator: Adobe Illustrator 19.0.0, SVG Export Plug-In . SVG Version: 6.00 Build 0)  -->

<svg
   xmlns:dc="http://purl.org/dc/elements/1.1/"
   xmlns:cc="http://creativecommons.org/ns#"
   xmlns:rdf="http://www.w3.org/1999/02/22-rdf-syntax-ns#"
   xmlns:svg="http://www.w3.org/2000/svg"
   xmlns="http://www.w3.org/2000/svg"
   xmlns:sodipodi="http://sodipodi.sourceforge.net/DTD/sodipodi-0.dtd"
   xmlns:inkscape="http://www.inkscape.org/namespaces/inkscape"
   version="1.1"
   id="Layer_1"
   x="0px"
   y="0px"
   viewBox="0 0 469.336 469.336"
   style="enable-background:new 0 0 469.336 469.336;"
   xml:space="preserve"
   sodipodi:docname="edit.svg"
   inkscape:version="0.92.4 (f8dce91, 2019-08-02)"><metadata
   id="metadata6328"><rdf:RDF><cc:Work
       rdf:about=""><dc:format>image/svg+xml</dc:format><dc:type
         rdf:resource="http://purl.org/dc/dcmitype/StillImage" /><dc:title></dc:title></cc:Work></rdf:RDF></metadata><defs
   id="defs6326" /><sodipodi:namedview
   pagecolor="#ffffff"
   bordercolor="#666666"
   borderopacity="1"
   objecttolerance="10"
   gridtolerance="10"
   guidetolerance="10"
   inkscape:pageopacity="0"
   inkscape:pageshadow="2"
   inkscape:window-width="1853"
   inkscape:window-height="1025"
   id="namedview6324"
   showgrid="false"
   inkscape:zoom="0.50283805"
   inkscape:cx="234.668"
   inkscape:cy="234.668"
   inkscape:window-x="67"
   inkscape:window-y="27"
   inkscape:window-maximized="1"
   inkscape:current-layer="Layer_1" />
<g
   id="g6291">
	<g
   id="g6289">
		<path
   d="M456.836,76.168l-64-64.054c-16.125-16.139-44.177-16.17-60.365,0.031L45.763,301.682    c-1.271,1.282-2.188,2.857-2.688,4.587L0.409,455.73c-1.063,3.722-0.021,7.736,2.719,10.478c2.031,2.033,4.75,3.128,7.542,3.128    c0.979,0,1.969-0.136,2.927-0.407l149.333-42.703c1.729-0.5,3.302-1.418,4.583-2.69l289.323-286.983    c8.063-8.069,12.5-18.787,12.5-30.192S464.899,84.237,456.836,76.168z M285.989,89.737l39.264,39.264L120.257,333.998    l-14.712-29.434c-1.813-3.615-5.5-5.896-9.542-5.896H78.921L285.989,89.737z M26.201,443.137L40.095,394.5l34.742,34.742    L26.201,443.137z M149.336,407.96l-51.035,14.579l-51.503-51.503l14.579-51.035h28.031l18.385,36.771    c1.031,2.063,2.708,3.74,4.771,4.771l36.771,18.385V407.96z M170.67,390.417v-17.082c0-4.042-2.281-7.729-5.896-9.542    l-29.434-14.712l204.996-204.996l39.264,39.264L170.67,390.417z M441.784,121.72l-47.033,46.613l-93.747-93.747l46.582-47.001    c8.063-8.063,22.104-8.063,30.167,0l64,64c4.031,4.031,6.25,9.385,6.25,15.083S445.784,117.72,441.784,121.72z"
   id="path6287" />
	</g>
</g>
<g
   id="g6293">
</g>
<g
   id="g6295">
</g>
<g
   id="g6297">
</g>
<g
   id="g6299">
</g>
<g
   id="g6301">
</g>
<g
   id="g6303">
</g>
<g
   id="g6305">
</g>
<g
   id="g6307">
</g>
<g
   id="g6309">
</g>
<g
   id="g6311">
</g>
<g
   id="g6313">
</g>
<g
   id="g6315">
</g>
<g
   id="g6317">
</g>
<g
   id="g6319">
</g>
<g
   id="g6321">
</g>
<path
   style="fill:#0000ff;stroke-width:1.98871183"
   d="m 4.5976133,465.21879 -4.707073,-3.81157 21.8311247,-77.27448 21.831125,-77.2745 27.841966,-28.82618 C 153.5181,193.00567 338.39804,8.3470851 344.53614,5.2177014 c 8.73983,-4.45581569 25.58306,-4.75199802 35.46368,-0.6236159 10.75806,4.4950015 76.94863,70.7719095 83.19177,83.3002925 6.06758,12.176032 6.41646,24.759242 0.99689,35.954592 -2.71728,5.61313 -50.17089,53.94028 -151.69115,154.48347 l -147.73686,146.315 -74.524825,21.2391 c -40.988652,11.68151 -75.966202,21.66767 -77.72789,22.19146 -1.761688,0.52379 -5.3212518,-0.76285 -7.9101417,-2.85921 z M 51.830314,436.77402 c 12.401129,-3.47105 22.547509,-6.84566 22.547509,-7.49913 0,-0.65349 -7.876265,-9.02794 -17.502812,-18.60987 L 39.372197,393.24329 32.29581,418.16416 c -3.892015,13.70646 -6.16213,24.92084 -5.044698,24.92084 1.117429,0 12.17807,-2.83994 24.579202,-6.31098 z m 72.704396,-20.81193 25.41416,-7.2358 v -14.62191 -14.6219 l -19.87504,-9.97375 -19.87505,-9.97377 -9.97376,-19.87505 -9.973766,-19.87504 H 75.43826 60.625264 l -3.956202,13.4238 c -2.175913,7.38309 -5.506719,19.06729 -7.401794,25.9649 l -3.445591,12.5411 25.684472,25.74161 c 14.126461,14.15787 26.118706,25.7416 26.649435,25.7416 0.530732,0 12.401336,-3.25611 26.379126,-7.23579 z m 225.78299,-201.96924 30.33396,-30.49363 -20.41094,-20.34148 -20.41095,-20.34149 -103.20458,103.21889 -103.20457,103.2189 14.72744,7.36209 c 20.65748,10.32644 21.68793,11.48451 21.68793,24.37377 v 10.8708 l 75.07388,-73.68713 C 286.2005,277.64567 333.63402,230.76434 350.3177,213.99285 Z M 223.51616,231.30226 325.90527,128.89866 306.06266,108.98131 286.22004,89.063961 182.28765,192.98222 C 125.12483,250.13725 78.355247,297.57485 78.355247,298.39911 c 0,0.82425 4.857109,1.49864 10.793575,1.49864 12.513228,0 14.472498,1.76757 23.877368,21.54099 3.20904,6.7469 6.34452,12.26711 6.96773,12.26711 0.62321,0 47.20822,-46.08162 103.52224,-102.40359 z m 198.48392,-89.17484 c 24.21617,-24.45575 26.25557,-27.08948 26.25557,-33.90686 0,-4.06533 -1.26396,-9.808106 -2.80881,-12.761715 -1.54486,-2.953609 -18.4293,-20.807574 -37.52099,-39.675477 L 373.21366,21.478088 H 362.67929 352.14493 L 326.61794,46.73591 c -14.03983,13.891803 -25.52696,26.189963 -25.52696,27.329246 0,2.084811 91.48633,94.577614 93.54844,94.577614 0.60781,0 12.92011,-11.93191 27.36066,-26.51535 z"
   id="path6330"
   inkscape:connector-curvature="0" /></svg>