<?xml version="1.0" encoding="UTF-8" standalone="no"?>
<svg
   xmlns:dc="http://purl.org/dc/elements/1.1/"
   xmlns:cc="http://creativecommons.org/ns#"
   xmlns:rdf="http://www.w3.org/1999/02/22-rdf-syntax-ns#"
   xmlns:svg="http://www.w3.org/2000/svg"
   xmlns="http://www.w3.org/2000/svg"
   xmlns:sodipodi="http://sodipodi.sourceforge.net/DTD/sodipodi-0.dtd"
   xmlns:inkscape="http://www.inkscape.org/namespaces/inkscape"
   inkscape:version="1.0 (6e3e5246a0, 2020-05-07)"
   sodipodi:docname="finance.svg"
   id="svg5201"
   version="1.1"
   width="480pt"
   viewBox="0 -24 480 480"
   height="480pt">
  <metadata
     id="metadata5207">
    <rdf:RDF>
      <cc:Work
         rdf:about="">
        <dc:format>image/svg+xml</dc:format>
        <dc:type
           rdf:resource="http://purl.org/dc/dcmitype/StillImage" />
        <dc:title />
      </cc:Work>
    </rdf:RDF>
  </metadata>
  <defs
     id="defs5205" />
  <sodipodi:namedview
     inkscape:document-rotation="0"
     inkscape:current-layer="svg5201"
     inkscape:window-maximized="1"
     inkscape:window-y="27"
     inkscape:window-x="67"
     inkscape:cy="320"
     inkscape:cx="320"
     inkscape:zoom="0.36875"
     showgrid="false"
     id="namedview5203"
     inkscape:window-height="1025"
     inkscape:window-width="1853"
     inkscape:pageshadow="2"
     inkscape:pageopacity="0"
     guidetolerance="10"
     gridtolerance="10"
     objecttolerance="10"
     borderopacity="1"
     bordercolor="#666666"
     pagecolor="#ffffff" />
  <path
     style="fill:#ffffff"
     id="path5199"
     d="m456 72h-104v-32c-.027344-22.082031-17.917969-39.9726562-40-40h-144c-22.082031.0273438-39.972656 17.917969-40 40v32h-104c-13.253906 0-24 10.746094-24 24v178.078125c.0507812 10.148437 6.445312 19.175781 16 22.585937v111.335938c0 13.253906 10.746094 24 24 24h400c13.253906 0 24-10.746094 24-24v-111.328125c9.554688-3.414063 15.953125-12.445313 16-22.59375v-178.078125c0-13.253906-10.746094-24-24-24zm-312-32c0-13.253906 10.746094-24 24-24h144c13.253906 0 24 10.746094 24 24v32h-16v-32c0-4.417969-3.582031-8-8-8h-144c-4.417969 0-8 3.582031-8 8v32h-16zm160 32h-128v-24h128zm144 336c0 4.417969-3.582031 8-8 8h-400c-4.417969 0-8-3.582031-8-8v-108.585938l176 24.273438v20.3125c0 13.253906 10.746094 24 24 24h16c13.253906 0 24-10.746094 24-24v-20.3125l176-24.273438zm-192-64c0 4.417969-3.582031 8-8 8h-16c-4.417969 0-8-3.582031-8-8v-48c0-4.417969 3.582031-8 8-8h16c4.417969 0 8 3.582031 8 8zm208-69.921875c.003906 3.988281-2.929688 7.371094-6.878906 7.929687l-2.21875.304688-182.902344 25.222656v-11.535156c0-13.253906-10.746094-24-24-24h-16c-13.253906 0-24 10.746094-24 24v11.535156l-185.113281-25.527344c-3.949219-.554687-6.890625-3.9375-6.886719-7.929687v-178.078125c0-4.417969 3.582031-8 8-8h432c4.417969 0 8 3.582031 8 8zm0 0" />
  <path
     transform="matrix(0.75,0,0,0.75,0,-24)"
     inkscape:connector-curvature="0"
     id="path5209"
     d="m 38.406972,602.67013 c -14.899029,-8.08412 -15.627311,-12.67401 -15.627311,-98.4883 0,-77.08795 -0.107657,-78.63016 -5.610838,-80.37681 C 14.082861,422.82557 9.206067,418.16708 6.3315018,413.45277 1.369856,405.31569 1.1045063,398.51908 1.094883,279.32296 1.0837619,141.57675 1.0209635,142.14206 17.267165,133.74082 c 6.535381,-3.37958 21.045798,-4.1137 81.310028,-4.1137 H 171.9322 v -28.04804 c 0,-34.827329 5.43187,-47.497352 25.7606,-60.087555 l 13.13611,-8.135593 h 108.68724 c 105.93256,0 108.96217,0.147333 119.5347,5.813126 22.47392,12.04373 28.47457,25.348219 28.47457,63.133242 v 27.08667 l 77.23059,0.79704 77.23059,0.79704 7.51518,7.51736 7.51517,7.51737 0.75455,128.74039 c 0.8221,140.26656 0.71197,141.39752 -14.44431,148.30317 l -6.64922,3.02959 v 80.31723 c 0,87.89353 -0.0244,88.03775 -16.30113,96.45478 -11.78419,6.09383 -550.724374,5.90894 -561.969868,-0.19281 z M 594.44068,584.67797 c 4.53573,-4.53573 4.68596,-154.0339 0.15485,-154.0339 -4.46688,0 -219.446,29.66573 -226.7311,31.28743 -5.50299,1.225 -6.10169,2.96293 -6.10169,17.71246 -3e-5,31.0736 -9.77676,40.49163 -42.03393,40.49163 -32.33426,0 -39.22785,-6.46359 -41.86725,-39.25581 l -1.52258,-18.91685 -112.54237,-15.53774 c -61.8983,-8.54573 -114.677966,-15.59248 -117.288135,-15.65941 -4.408884,-0.11306 -4.745763,5.22983 -4.745763,75.26812 0,55.02072 0.879243,76.26907 3.254237,78.64407 4.720594,4.72059 544.703131,4.72059 549.423731,0 z M 336.75252,499.64285 c 5.71731,-4.00459 6.02714,-6.08564 6.02714,-40.48429 0,-43.00087 -0.91864,-44.78568 -23.05085,-44.78568 -22.1322,0 -23.05084,1.78481 -23.05084,44.78568 0,34.39865 0.30983,36.4797 6.02714,40.48429 3.3149,2.32184 10.9756,4.22156 17.0237,4.22156 6.04811,0 13.7088,-1.89972 17.02371,-4.22156 z m -52.54504,-89.31073 c 7.47154,-11.40301 19.19108,-15.6343 40.0399,-14.45624 16.56705,0.93613 19.5466,1.9885 27.14595,9.58785 7.01345,7.01345 8.75924,11.2247 9.78601,23.60605 1.13532,13.6906 1.7776,14.95229 7.01822,13.78668 3.17269,-0.70565 59.36244,-8.64344 124.86609,-17.63948 65.50367,-8.99604 120.72401,-17.70625 122.71186,-19.35604 5.0137,-4.16101 5.36079,-248.99584 0.36008,-253.99653 -4.72282,-4.72283 -588.090725,-4.72283 -592.813556,0 -4.965556,4.96555 -4.657559,249.83224 0.319439,253.96279 1.965521,1.63124 59.626538,10.67759 128.135597,20.103 l 124.56191,17.13711 1.74126,-13.02069 c 0.95773,-7.16136 3.71496,-16.0329 6.12724,-19.7145 z M 215.32203,105.76271 c 0,-14.945384 1.21623,-25.080635 3.25424,-27.118642 3.7156,-3.715596 196.28952,-4.753804 202.05532,-1.089324 2.05457,1.305779 3.57096,11.146937 4.0678,26.399156 l 0.79214,24.31729 11.52542,0.83389 11.52542,0.83389 v -28.42243 c 0,-26.550761 -0.45792,-28.966661 -6.95398,-36.686758 -3.82467,-4.545378 -11.45179,-9.513559 -16.94915,-11.040403 -14.6758,-4.076085 -199.83044,-3.432593 -211.93516,0.736566 -5.36954,1.8494 -12.05323,7.186397 -15.59322,12.451365 -5.41013,8.046375 -6.19561,12.601849 -6.19561,35.9322 v 26.71761 h 12.20339 12.20339 z M 406.50847,112 V 95.728814 l -86.10169,-0.71606 -86.1017,-0.71606 V 112 129.70331 l 86.1017,-0.71606 86.10169,-0.71606 z"
     style="fill:#ffffff;stroke-width:2.71186447" />
</svg>
