<?xml version="1.0" encoding="iso-8859-1"?>
<!-- Generator: Adobe Illustrator 18.1.1, SVG Export Plug-In . SVG Version: 6.00 Build 0)  -->
<svg version="1.1" id="Capa_1" xmlns="http://www.w3.org/2000/svg" xmlns:xlink="http://www.w3.org/1999/xlink" x="0px" y="0px"
	 viewBox="0 0 524.816 524.816" style="enable-background:new 0 0 524.816 524.816;" xml:space="preserve">
<g>
	<g>
		<g>
			<path style="fill:#010002;" d="M35.079,282.487c0,6.52,0.46,12.944,1.046,19.37l-14.197,14.308
				c-1.603-11.026-2.698-22.176-2.728-33.613C18.789,174.745,88.95,82.943,186.145,50.758l0.065,16.879
				C97.978,99.139,34.681,183.533,35.079,282.487z M263.335,508.936c-61.137,0.253-116.689-23.922-157.761-63.119l-11.136,11.247
				c43.956,42.07,103.444,68.007,168.959,67.751c65.5-0.269,124.829-26.649,168.451-69.069l-11.279-11.169
				C379.82,484.11,324.456,508.696,263.335,508.936z M495.271,380.395l5.329,29.982c0.777,4.156-0.223,8.107-2.76,11.136
				c-2.539,3.013-6.265,4.664-10.469,4.664H342.745c-4.22,0-7.933-1.649-10.469-4.664c-2.523-3.013-3.505-6.948-2.792-11.136
				l5.361-29.982c1.396-7.962,8.756-15.529,16.688-17.213l39.658-8.36c-7.489-7.233-13.167-17.275-16.879-27.381
				c-4.949-1.762-9.947-6.187-11.373-11.898c-1.888-7.518,0.065-14.214,4.68-17.164c-5.918-9.248-1.746-51.461,30.393-58.186
				c10.09-2.109,17.91-0.936,23.889,1.824c0.984-1.332,3.362-3.728,7.836-3.586c0,0-2.539,3.22-1.649,5.426
				c5.458-1.775,12.675-1.461,21.447,3.631c19.464,11.373,17.197,32.505,12.912,45.449v5.329c4.713,2.967,6.695,9.692,4.839,17.291
				c-1.461,5.695-6.407,10.09-11.311,11.881c-3.806,10.09-9.582,20.115-17.038,27.381l39.722,8.36
				C486.564,364.85,493.875,372.433,495.271,380.395z M399.505,353.03c1.205,0.92,2.442,1.681,3.712,2.381
				c1.824,0.985,3.712,1.775,5.662,2.316c1.982,0.541,4.03,0.872,6.171,0.872c2.109,0,4.124-0.334,6.077-0.872
				c1.95-0.541,3.871-1.348,5.633-2.332c1.302-0.697,2.539-1.474,3.664-2.394c9.915-7.456,16.847-21.003,20.352-31.615
				c2.601,0.508,8.581-2.76,9.789-7.502c1.189-4.901,0.032-9.439-2.601-10.2c-0.269-0.065-0.492-0.016-0.794-0.016
				c-0.191,0.207-0.35,0.285-0.444,0.175c0.032-0.032,0.032-0.143,0.032-0.191c-0.382,0.065-0.842,0.223-1.205,0.412v-6.028
				c-2.792-7.645-10.106-20.067-20.987-21.272c-3.489,7.615-10.278,13.388-21.398,9.756c-32.139-10.55-38.009,1.205-38.66,7.36
				v2.507c0,0.094,0,0.237,0.032,0.334c-0.032,0.016-0.032,0.032-0.032,0.048v7.282c-0.842-0.412-1.649-0.603-2.426-0.366
				c-2.666,0.745-3.806,5.299-2.569,10.2c1.173,4.775,7.217,8.059,9.818,7.502C382.865,332.251,389.67,345.655,399.505,353.03z
				 M388.323,361.692c7.583,6.171,17.068,9.646,26.953,9.646c9.947,0,19.338-3.362,26.921-9.565l-9.487-1.982
				c-5.235,3.489-11.12,5.617-17.657,5.617s-12.484-2.125-17.719-5.617L388.323,361.692z M370.841,412.835h-35.265
				c0,1.775,0.334,3.427,1.396,4.697c1.364,1.603,3.411,2.491,5.759,2.491h28.094L370.841,412.835L370.841,412.835z M459.261,402.46
				v4.266h34.423l-4.49-25.24c-0.936-5.487-6.378-11.104-11.865-12.263l-27.698-5.853c-9.2,9.122-21.32,14.149-34.361,14.149
				c-12.912,0-25.318-5.157-34.423-14.214l-28.077,5.918c-5.458,1.157-10.913,6.789-11.865,12.263l-4.49,25.24h34.423v-4.266
				c0-1.681,1.396-3.077,3.093-3.077c1.649,0,3.061,1.38,3.061,3.077v17.576h76.095V402.46c0-1.681,1.396-3.077,3.045-3.077
				C457.868,399.383,459.261,400.763,459.261,402.46z M494.526,412.835h-35.265v7.185h28.094c2.364,0,4.409-0.904,5.743-2.491
				C494.177,416.279,494.559,414.643,494.526,412.835z M336.878,50.137l0.065,16.879c88.517,30.837,152.462,114.723,152.841,213.663
				c0.032,6.537-0.366,12.944-0.904,19.384l14.292,14.197c1.506-11.026,2.507-22.192,2.442-33.629
				C505.251,172.808,434.326,81.547,336.878,50.137z M183.431,171.953l5.329-29.998c1.428-7.962,8.756-15.529,16.688-17.213
				l39.69-8.344c-7.489-7.233-13.167-17.275-16.912-27.365c-4.949-1.775-9.947-6.171-11.343-11.914
				c-1.921-7.502,0.065-14.214,4.648-17.164c-5.88-9.245-1.74-51.426,30.431-58.186c10.058-2.093,17.91-0.936,23.905,1.824
				c0.968-1.348,3.346-3.744,7.82-3.586c0,0-2.523,3.204-1.681,5.409c5.487-1.775,12.707-1.444,21.447,3.631
				c19.497,11.373,17.226,32.518,12.944,45.449v5.345c4.713,2.935,6.695,9.708,4.807,17.259
				c-1.461,5.711-6.378,10.106-11.279,11.881c-3.839,10.106-9.581,20.131-17.038,27.381l39.722,8.376
				c7.933,1.665,15.276,9.248,16.672,17.213l5.299,29.982c0.777,4.172-0.191,8.121-2.728,11.136
				c-2.507,3.013-6.265,4.664-10.469,4.664H196.757c-4.25,0-7.962-1.649-10.469-4.664
				C183.671,180.074,182.686,176.125,183.431,171.953z M348.442,174.428h-35.265v7.171h28.126c2.332,0,4.379-0.872,5.743-2.459
				C348.092,177.852,348.474,176.203,348.442,174.428z M253.453,114.622c1.173,0.904,2.442,1.665,3.712,2.381
				c1.791,1.001,3.68,1.791,5.662,2.316c1.95,0.554,4.03,0.855,6.138,0.855c2.141,0,4.156-0.317,6.077-0.855
				c2.015-0.525,3.871-1.332,5.662-2.316c1.27-0.729,2.507-1.49,3.664-2.381c9.883-7.473,16.847-21.019,20.32-31.615
				c2.601,0.492,8.613-2.776,9.789-7.518c1.189-4.885,0.065-9.439-2.601-10.184c-0.237-0.078-0.492-0.032-0.761-0.032
				c-0.223,0.207-0.382,0.285-0.476,0.191c0.032-0.032,0.032-0.143,0.032-0.191c-0.35,0.065-0.777,0.223-1.205,0.444v-6.044
				c-2.792-7.645-10.074-20.067-20.987-21.272c-3.459,7.645-10.278,13.372-21.369,9.756c-32.171-10.55-38.009,1.189-38.676,7.36
				v2.491c0,0.11,0.032,0.253,0.032,0.35c0,0-0.032,0.032-0.032,0.048v7.298c-0.81-0.428-1.649-0.603-2.426-0.382
				c-2.633,0.729-3.806,5.299-2.569,10.184c1.205,4.775,7.249,8.075,9.883,7.518C236.813,93.84,243.618,107.231,253.453,114.622z
				 M242.238,123.284c7.599,6.155,17.1,9.646,26.953,9.646c10.009,0,19.338-3.362,26.953-9.565l-9.487-1.982
				c-5.235,3.489-11.152,5.633-17.686,5.633c-6.566,0-12.484-2.109-17.719-5.617L242.238,123.284z M190.334,168.27h34.455v-4.237
				c0-1.713,1.364-3.077,3.093-3.077c1.697,0,3.061,1.364,3.061,3.077v17.56h76.066v-17.56c0-1.713,1.396-3.077,3.077-3.077
				c1.649,0,3.061,1.364,3.061,3.077v4.237h34.455l-4.457-25.207c-0.985-5.52-6.424-11.152-11.93-12.309l-27.698-5.837
				c-9.2,9.122-21.32,14.165-34.361,14.165c-12.896,0-25.285-5.186-34.423-14.23l-28.061,5.918
				c-5.487,1.159-10.913,6.789-11.898,12.309L190.334,168.27z M189.524,174.428c-0.032,1.775,0.334,3.427,1.396,4.71
				c1.331,1.587,3.379,2.459,5.759,2.459h28.094v-7.171C224.773,174.428,189.524,174.428,189.524,174.428z M195.235,426.177H50.608
				c-4.22,0-7.933-1.649-10.469-4.664c-2.523-3.013-3.537-6.948-2.792-11.136l5.361-29.982c1.428-7.962,8.756-15.529,16.688-17.213
				l39.658-8.36c-7.489-7.233-13.167-17.275-16.863-27.381c-4.949-1.762-9.963-6.187-11.389-11.898
				c-1.888-7.518,0.065-14.214,4.68-17.164c-5.918-9.248-1.775-51.461,30.393-58.186c10.09-2.109,17.91-0.936,23.905,1.824
				c0.985-1.332,3.346-3.728,7.852-3.586c0,0-2.553,3.22-1.713,5.426c5.487-1.775,12.707-1.461,21.447,3.631
				c19.497,11.373,17.226,32.505,12.944,45.449v5.329c4.71,2.967,6.695,9.692,4.807,17.291c-1.461,5.695-6.378,10.09-11.279,11.881
				c-3.806,10.09-9.581,20.115-17.038,27.381l39.722,8.36c7.933,1.665,15.276,9.248,16.672,17.213l5.361,29.982
				c0.713,4.156-0.253,8.107-2.792,11.136C203.167,424.51,199.439,426.177,195.235,426.177z M107.368,353.03
				c1.205,0.92,2.442,1.681,3.712,2.381c1.824,0.985,3.68,1.775,5.662,2.316c1.95,0.541,4.03,0.872,6.138,0.872
				c2.141,0,4.156-0.334,6.106-0.872c1.95-0.541,3.871-1.348,5.633-2.332c1.302-0.697,2.539-1.474,3.664-2.394
				c9.915-7.456,16.847-21.003,20.352-31.615c2.601,0.508,8.581-2.76,9.789-7.502c1.189-4.901,0.065-9.439-2.601-10.2
				c-0.301-0.065-0.525-0.016-0.794-0.016c-0.191,0.207-0.35,0.285-0.444,0.175c0.032-0.032,0.032-0.143,0.032-0.191
				c-0.382,0.065-0.842,0.223-1.205,0.412v-6.028c-2.824-7.645-10.106-20.067-20.987-21.272c-3.489,7.615-10.31,13.388-21.398,9.756
				c-32.139-10.55-38.009,1.205-38.66,7.36v2.507c0,0.094,0,0.237,0.032,0.334c-0.032,0.016-0.032,0.032-0.032,0.048v7.282
				c-0.842-0.412-1.649-0.603-2.426-0.366c-2.666,0.745-3.806,5.299-2.569,10.2c1.173,4.775,7.249,8.059,9.818,7.502
				C90.728,332.251,97.534,345.655,107.368,353.03z M96.151,361.692c7.599,6.171,17.1,9.646,26.953,9.646
				c9.977,0,19.37-3.362,26.953-9.565l-9.487-1.982c-5.202,3.489-11.12,5.617-17.686,5.617c-6.537,0-12.452-2.125-17.686-5.617
				L96.151,361.692z M78.734,412.835H43.44c0,1.775,0.334,3.427,1.396,4.697c1.332,1.603,3.411,2.491,5.759,2.491h28.11
				L78.734,412.835L78.734,412.835z M167.125,402.46v4.266h34.423l-4.489-25.24c-0.968-5.487-6.378-11.104-11.865-12.263
				l-27.698-5.853c-9.2,9.122-21.32,14.149-34.391,14.149c-12.882,0-25.253-5.157-34.391-14.214l-28.077,5.918
				c-5.458,1.157-10.913,6.789-11.898,12.263l-4.489,25.24h34.488v-4.266c0-1.681,1.364-3.077,3.061-3.077
				c1.681,0,3.061,1.38,3.061,3.077v17.576h76.095V402.46c0-1.681,1.396-3.077,3.045-3.077
				C165.729,399.383,167.125,400.763,167.125,402.46z M167.125,420.052h28.094c2.364,0,4.409-0.904,5.743-2.491
				c1.03-1.27,1.428-2.919,1.396-4.697h-35.265L167.125,420.052L167.125,420.052z"/>
		</g>
	</g>
</g>
<g>
</g>
<g>
</g>
<g>
</g>
<g>
</g>
<g>
</g>
<g>
</g>
<g>
</g>
<g>
</g>
<g>
</g>
<g>
</g>
<g>
</g>
<g>
</g>
<g>
</g>
<g>
</g>
<g>
</g>
</svg>
