<?xml version="1.0" encoding="UTF-8" standalone="no"?>
<svg
   xmlns:dc="http://purl.org/dc/elements/1.1/"
   xmlns:cc="http://creativecommons.org/ns#"
   xmlns:rdf="http://www.w3.org/1999/02/22-rdf-syntax-ns#"
   xmlns:svg="http://www.w3.org/2000/svg"
   xmlns="http://www.w3.org/2000/svg"
   xmlns:sodipodi="http://sodipodi.sourceforge.net/DTD/sodipodi-0.dtd"
   xmlns:inkscape="http://www.inkscape.org/namespaces/inkscape"
   inkscape:version="1.0 (6e3e5246a0, 2020-05-07)"
   sodipodi:docname="logout.svg"
   xml:space="preserve"
   style="enable-background:new 0 0 512 512;"
   viewBox="0 0 512 512"
   y="0px"
   x="0px"
   id="Capa_1"
   version="1.1"><metadata
   id="metadata47"><rdf:RDF><cc:Work
       rdf:about=""><dc:format>image/svg+xml</dc:format><dc:type
         rdf:resource="http://purl.org/dc/dcmitype/StillImage" /></cc:Work></rdf:RDF></metadata><defs
   id="defs45" /><sodipodi:namedview
   inkscape:current-layer="Capa_1"
   inkscape:window-maximized="1"
   inkscape:window-y="27"
   inkscape:window-x="67"
   inkscape:cy="256"
   inkscape:cx="256"
   inkscape:zoom="1.7148438"
   showgrid="false"
   id="namedview43"
   inkscape:window-height="1025"
   inkscape:window-width="1853"
   inkscape:pageshadow="2"
   inkscape:pageopacity="0"
   guidetolerance="10"
   gridtolerance="10"
   objecttolerance="10"
   borderopacity="1"
   bordercolor="#666666"
   pagecolor="#ffffff" />
<g
   style="fill:#4400aa"
   id="g10">
	<g
   style="fill:#4400aa"
   id="g8">
		<g
   style="fill:#4400aa"
   id="g6">
			<path
   style="fill:#4400aa"
   id="path2"
   d="M330.667,384h-21.333c-5.891,0-10.667,4.776-10.667,10.667v74.667h-256V42.667h256v74.667     c0,5.891,4.776,10.667,10.667,10.667h21.333c5.891,0,10.667-4.776,10.667-10.667V42.667C341.333,19.103,322.231,0,298.667,0h-256     C19.103,0,0,19.103,0,42.667v426.667C0,492.898,19.103,512,42.667,512h256c23.564,0,42.667-19.102,42.667-42.667v-74.667     C341.333,388.776,336.558,384,330.667,384z" />
			<path
   style="fill:#4400aa"
   id="path4"
   d="M508.542,248.135l-128-117.333c-3.125-2.844-7.656-3.625-11.5-1.896c-3.875,1.698-6.375,5.531-6.375,9.76V160     c0,3.021,1.281,5.906,3.531,7.927l74.151,66.74H138.667c-5.896,0-10.667,4.771-10.667,10.667v21.333     c0,5.896,4.771,10.667,10.667,10.667h301.682l-74.151,66.74c-2.25,2.021-3.531,4.906-3.531,7.927v21.333     c0,4.229,2.5,8.063,6.375,9.76c1.375,0.615,2.844,0.906,4.292,0.906c2.615,0,5.198-0.969,7.208-2.802l128-117.333     C510.75,261.844,512,258.99,512,256S510.75,250.156,508.542,248.135z" />
		</g>
	</g>
</g>
<g
   id="g12">
</g>
<g
   id="g14">
</g>
<g
   id="g16">
</g>
<g
   id="g18">
</g>
<g
   id="g20">
</g>
<g
   id="g22">
</g>
<g
   id="g24">
</g>
<g
   id="g26">
</g>
<g
   id="g28">
</g>
<g
   id="g30">
</g>
<g
   id="g32">
</g>
<g
   id="g34">
</g>
<g
   id="g36">
</g>
<g
   id="g38">
</g>
<g
   id="g40">
</g>
</svg>
