<?xml version="1.0" encoding="UTF-8" standalone="no"?>
<svg
   xmlns:dc="http://purl.org/dc/elements/1.1/"
   xmlns:cc="http://creativecommons.org/ns#"
   xmlns:rdf="http://www.w3.org/1999/02/22-rdf-syntax-ns#"
   xmlns:svg="http://www.w3.org/2000/svg"
   xmlns="http://www.w3.org/2000/svg"
   xmlns:sodipodi="http://sodipodi.sourceforge.net/DTD/sodipodi-0.dtd"
   xmlns:inkscape="http://www.inkscape.org/namespaces/inkscape"
   height="512pt"
   viewBox="0 0 512 512"
   width="512pt"
   version="1.1"
   id="svg369"
   sodipodi:docname="Plus.svg"
   inkscape:version="0.92.4 (f8dce91, 2019-08-02)">
  <metadata
     id="metadata375">
    <rdf:RDF>
      <cc:Work
         rdf:about="">
        <dc:format>image/svg+xml</dc:format>
        <dc:type
           rdf:resource="http://purl.org/dc/dcmitype/StillImage" />
        <dc:title></dc:title>
      </cc:Work>
    </rdf:RDF>
  </metadata>
  <defs
     id="defs373" />
  <sodipodi:namedview
     pagecolor="#ffffff"
     bordercolor="#666666"
     borderopacity="1"
     objecttolerance="10"
     gridtolerance="10"
     guidetolerance="10"
     inkscape:pageopacity="0"
     inkscape:pageshadow="2"
     inkscape:window-width="1853"
     inkscape:window-height="1025"
     id="namedview371"
     showgrid="false"
     inkscape:zoom="1.2363281"
     inkscape:cx="242.24961"
     inkscape:cy="341.33333"
     inkscape:window-x="67"
     inkscape:window-y="27"
     inkscape:window-maximized="1"
     inkscape:current-layer="svg369" />
  <path
     d="m437.019531 74.980469c-48.351562-48.351563-112.640625-74.980469-181.019531-74.980469s-132.667969 26.628906-181.019531 74.980469c-48.351563 48.351562-74.980469 112.640625-74.980469 181.019531s26.628906 132.667969 74.980469 181.019531c48.351562 48.351563 112.640625 74.980469 181.019531 74.980469s132.667969-26.628906 181.019531-74.980469c48.351563-48.351562 74.980469-112.640625 74.980469-181.019531s-26.628906-132.667969-74.980469-181.019531zm-181.019531 397.019531c-119.101562 0-216-96.898438-216-216s96.898438-216 216-216 216 96.898438 216 216-96.898438 216-216 216zm20-236.019531h90v40h-90v90h-40v-90h-90v-40h90v-90h40zm0 0"
     id="path367" />
  <path
     style="fill:#f9f9f9;stroke-width:0.80884677"
     d="M 325.88436,681.96582 C 259.74258,678.78753 197.7426,657.47251 144.29826,619.53822 116.2954,599.66205 86.922515,570.84711 66.66872,543.38325 10.059702,466.62224 -11.536213,369.7591 6.8633099,275.14086 33.691186,137.1804 145.79098,28.085983 284.22875,5.2115199 306.4957,1.5322887 313.16387,1.0508105 341.65687,1.0648929 370.7253,1.0792597 380.88112,1.8939123 403.12923,5.9959218 525.7742,28.60867 626.37435,116.54654 665.45249,235.30123 c 6.81077,20.6973 11.94562,44.36364 14.81003,68.25896 1.80954,15.09545 2.07793,56.26515 0.46402,71.17851 -5.30725,49.04187 -19.57694,94.01588 -42.85834,135.07741 -5.63148,9.93226 -19.46176,30.62656 -26.48761,39.6335 -20.92847,26.82969 -47.89151,52.50611 -75.4128,71.81426 -60.42282,42.39092 -136.09941,64.25707 -210.08343,60.70195 z m 47.09337,-54.08443 c 55.40525,-6.42582 104.70661,-26.80075 148.01318,-61.16988 12.59639,-9.99679 35.41233,-32.67641 45.03173,-44.76269 43.31778,-54.42651 65.14123,-119.22323 63.33732,-188.05688 -0.62422,-23.81891 -3.00496,-41.33652 -8.70583,-64.05786 C 600.80018,190.70428 545.38246,121.61904 471.90759,84.402577 444.37828,70.458438 418.68254,61.985853 388.56998,56.923892 370.22567,53.840189 356.10774,52.946793 333.72544,53.453276 312.36018,53.936746 296.49922,55.80012 277.97227,60.003264 168.24574,84.896532 82.590995,171.63528 59.318629,281.42406 c -4.477064,21.12082 -5.892321,35.14288 -5.948724,58.93866 -0.05181,21.86123 0.617783,30.82737 3.654532,48.93523 13.888816,82.81774 63.907663,155.88614 136.613473,199.5673 40.18016,24.13996 84.36428,37.53366 133.86414,40.57873 8.90507,0.54781 35.01471,-0.34935 45.47568,-1.56259 z"
     id="path377"
     inkscape:connector-curvature="0"
     transform="scale(0.74999998)" />
  <path
     style="fill:#f9f9f9;stroke-width:0.80884677"
     d="m 314.96493,427.71817 v -59.85466 h -59.85466 -59.85466 v -26.28752 -26.28752 h 59.85466 59.85466 V 255.02938 194.7703 h 26.28752 26.28752 v 60.25908 60.25909 h 59.85466 59.85466 v 26.28752 26.28752 h -59.85466 -59.85466 v 59.85466 59.85466 h -26.28752 -26.28752 z"
     id="path379"
     inkscape:connector-curvature="0"
     transform="scale(0.74999998)" />
</svg>
