<?xml version="1.0" encoding="UTF-8" standalone="no"?>
<svg
   xmlns:dc="http://purl.org/dc/elements/1.1/"
   xmlns:cc="http://creativecommons.org/ns#"
   xmlns:rdf="http://www.w3.org/1999/02/22-rdf-syntax-ns#"
   xmlns:svg="http://www.w3.org/2000/svg"
   xmlns="http://www.w3.org/2000/svg"
   xmlns:sodipodi="http://sodipodi.sourceforge.net/DTD/sodipodi-0.dtd"
   xmlns:inkscape="http://www.inkscape.org/namespaces/inkscape"
   inkscape:version="1.0 (6e3e5246a0, 2020-05-07)"
   sodipodi:docname="reports.svg"
   xml:space="preserve"
   style="enable-background:new 0 0 512 512;"
   viewBox="0 0 512 512"
   y="0px"
   x="0px"
   id="Capa_1"
   version="1.1"><metadata
   id="metadata3903"><rdf:RDF><cc:Work
       rdf:about=""><dc:format>image/svg+xml</dc:format><dc:type
         rdf:resource="http://purl.org/dc/dcmitype/StillImage" /><dc:title /></cc:Work></rdf:RDF></metadata><defs
   id="defs3901" /><sodipodi:namedview
   inkscape:document-rotation="0"
   inkscape:current-layer="Capa_1"
   inkscape:window-maximized="1"
   inkscape:window-y="27"
   inkscape:window-x="67"
   inkscape:cy="256"
   inkscape:cx="256"
   inkscape:zoom="1.6484375"
   showgrid="false"
   id="namedview3899"
   inkscape:window-height="1025"
   inkscape:window-width="1853"
   inkscape:pageshadow="2"
   inkscape:pageopacity="0"
   guidetolerance="10"
   gridtolerance="10"
   objecttolerance="10"
   borderopacity="1"
   bordercolor="#666666"
   pagecolor="#ffffff" />
<g
   style="fill:#ffffff"
   id="g3836">
	<g
   style="fill:#ffffff"
   id="g3834">
		<path
   style="fill:#ffffff"
   id="path3832"
   d="M502,208.749h-64c-5.523,0-10,4.478-10,10v50.5c0,5.522,4.477,10,10,10s10-4.478,10-10v-40.5h44V492h-22h-22V344.249    c0-5.522-4.477-10-10-10s-10,4.478-10,10V492h-20V285c0-5.522-4.477-10-10-10h-64c-5.523,0-10,4.478-10,10v207h-20V355    c0-5.522-4.477-10-10-10h-64c-5.523,0-10,4.478-10,10v137h-20v-79.625c0-5.522-4.477-10-10-10h-64c-5.523,0-10,4.478-10,10V492H30    c-5.514,0-10-4.486-10-10V30c0-5.514,4.486-10,10-10h257.975v66.003c0,16.542,13.458,30,30,30h66V239c0,5.522,4.477,10,10,10    s10-4.478,10-10V106.003c0-2.652-1.054-5.195-2.929-7.071l-96-96.003C303.17,1.054,300.627,0,297.975,0H30C13.458,0,0,13.458,0,30    v452c0,16.542,13.458,30,30,30h472c5.523,0,10-4.478,10-10V218.749C512,213.227,507.523,208.749,502,208.749z M307.975,34.143    l61.859,61.86h-51.859c-5.515,0-10-4.486-10-10V34.143z M180,492h-44v-69.625h44V492z M284,492h-44V365h44V492z M388,492h-44V295    h44V492z" />
	</g>
</g>
<g
   style="fill:#ffffff"
   id="g3842">
	<g
   style="fill:#ffffff"
   id="g3840">
		<path
   style="fill:#ffffff"
   id="path3838"
   d="M445.07,297.82c-1.86-1.869-4.44-2.93-7.07-2.93s-5.21,1.061-7.07,2.93c-1.86,1.86-2.93,4.44-2.93,7.07    s1.07,5.21,2.93,7.07c1.86,1.859,4.44,2.93,7.07,2.93s5.21-1.07,7.07-2.93s2.93-4.44,2.93-7.07S446.93,299.68,445.07,297.82z" />
	</g>
</g>
<g
   style="fill:#ffffff"
   id="g3848">
	<g
   style="fill:#ffffff"
   id="g3846">
		<path
   style="fill:#ffffff"
   id="path3844"
   d="M145.577,54.729c-5.523,0-10,4.478-10,10v17.989c-46.031,4.997-81.975,44.097-81.975,91.435    c0,50.715,41.26,91.975,91.975,91.975c47.338,0,86.438-35.943,91.435-81.975H255c5.523,0,10-4.478,10-10    C265,108.302,211.427,54.729,145.577,54.729z M145.577,246.127c-39.687,0-71.975-32.288-71.975-71.975    c0-36.293,27.005-66.399,61.975-71.282v71.282c0,5.522,4.477,10,10,10h71.282C211.976,219.122,181.87,246.127,145.577,246.127z     M155.577,164.153v-0.001V75.228c46.852,4.702,84.222,42.073,88.924,88.925H155.577z" />
	</g>
</g>
<g
   style="fill:#ffffff"
   id="g3854">
	<g
   style="fill:#ffffff"
   id="g3852">
		<path
   style="fill:#ffffff"
   id="path3850"
   d="M255,294.25H64c-5.523,0-10,4.478-10,10c0,5.522,4.477,10,10,10h191c5.523,0,10-4.478,10-10    C265,298.728,260.523,294.25,255,294.25z" />
	</g>
</g>
<g
   style="fill:#ffffff"
   id="g3860">
	<g
   style="fill:#ffffff"
   id="g3858">
		<path
   style="fill:#ffffff"
   id="path3856"
   d="M128,342.5H64c-5.523,0-10,4.478-10,10c0,5.522,4.477,10,10,10h64c5.523,0,10-4.478,10-10    C138,346.978,133.523,342.5,128,342.5z" />
	</g>
</g>
<g
   style="fill:#ffffff"
   id="g3866">
	<g
   style="fill:#ffffff"
   id="g3864">
		<path
   style="fill:#ffffff"
   id="path3862"
   d="M185.15,345.43c-1.86-1.86-4.44-2.93-7.07-2.93c-2.64,0-5.21,1.069-7.07,2.93c-1.87,1.86-2.93,4.44-2.93,7.07    s1.06,5.21,2.93,7.069c1.86,1.86,4.43,2.931,7.07,2.931c2.63,0,5.21-1.07,7.07-2.931c1.86-1.859,2.93-4.439,2.93-7.069    S187.01,347.29,185.15,345.43z" />
	</g>
</g>
<g
   style="fill:#ffffff"
   id="g3868">
</g>
<g
   style="fill:#ffffff"
   id="g3870">
</g>
<g
   style="fill:#ffffff"
   id="g3872">
</g>
<g
   style="fill:#ffffff"
   id="g3874">
</g>
<g
   style="fill:#ffffff"
   id="g3876">
</g>
<g
   style="fill:#ffffff"
   id="g3878">
</g>
<g
   style="fill:#ffffff"
   id="g3880">
</g>
<g
   style="fill:#ffffff"
   id="g3882">
</g>
<g
   style="fill:#ffffff"
   id="g3884">
</g>
<g
   style="fill:#ffffff"
   id="g3886">
</g>
<g
   style="fill:#ffffff"
   id="g3888">
</g>
<g
   style="fill:#ffffff"
   id="g3890">
</g>
<g
   style="fill:#ffffff"
   id="g3892">
</g>
<g
   style="fill:#ffffff"
   id="g3894">
</g>
<g
   style="fill:#ffffff"
   id="g3896">
</g>
<path
   inkscape:connector-curvature="0"
   id="path3905"
   d="M 24.581722,511.19489 C 14.153024,509.46269 4.122943,500.08661 1.354782,489.48243 0.3788032,485.74368 0.31037252,470.92082 0.27762405,256.15779 0.24650841,52.102426 0.34506568,26.427012 1.1718144,23.209918 3.8586116,12.75489 11.331978,4.7818281 21.343366,1.6896253 25.184292,0.50328411 27.297438,0.48530806 162.91488,0.48530806 c 118.36435,0 137.90212,0.12194778 139.31051,0.86952604 0.90096,0.4782394 23.93678,23.2043059 51.19071,50.5023699 42.65809,42.727171 49.60356,49.928256 49.91888,51.756066 0.20145,1.16777 0.28762,32.88241 0.19148,70.47697 -0.17459,68.27038 -0.17635,68.35584 -1.44385,70.06635 -4.41345,5.95602 -11.8541,5.95603 -16.26759,2e-5 -1.26614,-1.70865 -1.26942,-1.85805 -1.42898,-65.06161 l -0.15992,-63.34903 h -34.7458 c -37.79263,0 -38.0279,-0.0182 -45.2059,-3.49293 -4.14367,-2.00588 -10.10022,-7.79763 -12.37199,-12.0297 -3.45969,-6.44502 -3.50812,-7.069951 -3.50812,-45.272427 v -35.06148 l -131.23209,0.155758 -131.232092,0.155757 -2.173464,1.657809 c -1.27497,0.972484 -2.577441,2.727933 -3.150688,4.246446 -0.893303,2.366333 -0.963074,22.206682 -0.812453,231.033977 l 0.164771,228.44534 1.699605,2.22828 c 3.520158,4.61514 0.370387,4.33067 50.016035,4.51709 l 44.436016,0.16685 V 451.66222 410.8277 l 1.36493,-2.70424 c 0.89626,-1.77571 2.19811,-3.1731 3.79147,-4.06972 l 2.42654,-1.36547 34.88152,0.14971 34.88151,0.1497 2.04226,1.45657 c 1.12324,0.80112 2.55042,2.57552 3.17151,3.94313 1.06496,2.34497 1.13002,4.80941 1.14258,43.28276 l 0.0133,40.79621 h 10.30534 10.30534 l 0.15912,-70.62862 0.15911,-70.62862 1.27668,-1.71261 c 0.70218,-0.94194 2.2036,-2.25859 3.3365,-2.92588 1.99481,-1.175 3.15084,-1.21327 36.63801,-1.21327 33.48717,0 34.64319,0.0383 36.63801,1.21327 1.13289,0.66729 2.63432,1.98394 3.33649,2.92588 l 1.27668,1.71261 0.15912,70.62862 0.15911,70.62862 h 10.30534 10.30534 l 0.0134,-104.49289 c 0.0128,-100.59101 0.0555,-104.58574 1.14258,-106.97945 0.62109,-1.3676 2.04827,-3.14201 3.17151,-3.94312 l 2.04223,-1.45658 34.72576,-0.16608 c 33.66018,-0.16098 34.79847,-0.12898 37.09526,1.04276 1.30323,0.66486 3.01124,2.24101 3.79557,3.50257 l 1.42606,2.29374 0.15841,105.11416 0.15842,105.11417 10.15438,-0.1663 10.15439,-0.1663 0.30331,-75.82938 0.30332,-75.82938 1.35299,-1.89678 c 3.98087,-5.58088 12.65829,-5.0514 16.20663,0.98889 1.23653,2.10491 1.2473,2.69834 1.407,77.49556 l 0.16094,75.37441 h 22.1329 22.13291 V 360.52322 228.58009 h -22.1136 -22.11361 l -0.18023,21.68721 c -0.1792,21.56155 -0.1885,21.70049 -1.6063,23.98094 -3.50651,5.64002 -10.79275,6.14465 -15.55972,1.07764 l -1.81991,-1.93446 v -29.2303 -29.23031 l 1.35299,-1.89678 c 2.82345,-3.95826 1.87035,-3.86626 40.05183,-3.86626 h 34.54846 l 2.04684,1.37937 c 1.12576,0.75865 2.66922,2.30292 3.42992,3.43171 l 1.38307,2.05236 -0.15537,144.7389 -0.15537,144.73889 -1.45657,2.04226 c -0.80112,1.12324 -2.57553,2.55042 -3.94313,3.17151 -2.41205,1.09542 -9.61197,1.12753 -240.2875,1.07167 C 129.17839,511.76138 26.454165,511.5059 24.581722,511.19489 Z M 180.41327,457.28152 v -35.18484 h -22.4455 -22.4455 v 35.18484 35.18483 h 22.4455 22.4455 z m 103.7346,-28.81517 v -64 h -22.14218 -22.14218 v 64 64 h 22.14218 22.14218 z M 388.4891,393.58483 v -98.88151 h -22.4455 -22.4455 v 98.88151 98.88152 h 22.4455 22.4455 z M 369.68341,95.876441 c 0,-0.251463 -13.92227,-14.37747 -30.93839,-31.391133 l -30.93838,-30.933928 0.01,27.599668 c 0.01,27.437606 0.018,27.613646 1.36493,29.980693 0.8447,1.484364 2.3618,2.912182 4.02856,3.79147 l 2.67362,1.410438 h 26.89984 c 14.79489,0 26.89982,-0.20574 26.89982,-0.457208 z"
   style="fill:#ffffff;stroke-width:0.60663509" /><path
   inkscape:connector-curvature="0"
   id="path3907"
   d="m 79.56019,362.19188 c 9.091943,-0.0944 23.96967,-0.0944 33.06161,0 9.09194,0.0944 1.65308,0.17157 -16.530805,0.17157 -18.183886,0 -25.622749,-0.0772 -16.530805,-0.17157 z"
   style="fill:#ffffff;stroke-width:0.60663509" /><path
   inkscape:connector-curvature="0"
   id="path3909"
   d="m 59.080087,360.67488 c -2.902984,-1.97575 -4.335633,-4.19748 -4.649469,-7.21032 -0.397869,-3.81956 1.69618,-7.61891 5.206028,-9.4456 l 2.673613,-1.39147 H 95.43212 c 19.8916,0 33.95265,0.23827 35.20174,0.5965 2.81403,0.80705 5.9902,4.01623 6.74342,6.81348 1.16371,4.32167 -1.28096,9.49756 -5.27387,11.1659 -1.62164,0.67757 -8.55635,0.83644 -36.509854,0.83644 H 61.085583 Z"
   style="fill:#ffffff;stroke-width:0.60663509" /><path
   inkscape:connector-curvature="0"
   id="path3911"
   d="m 59.636646,312.72417 c -3.509848,-1.82669 -5.603897,-5.62604 -5.206028,-9.4456 0.313836,-3.01284 1.746485,-5.23457 4.649469,-7.21032 l 2.005496,-1.36493 h 98.398777 98.39877 l 2.0055,1.36493 c 2.90299,1.97575 4.33564,4.19748 4.64947,7.21032 0.40393,3.87773 -1.70454,7.68974 -5.23915,9.47214 l -2.70674,1.36493 H 159.45123 62.310259 Z"
   style="fill:#ffffff;stroke-width:0.60663509" /><path
   inkscape:connector-curvature="0"
   id="path3913"
   d="m 173.12748,360.67488 c -4.59701,-3.1287 -5.92397,-7.55317 -3.66489,-12.21982 2.29877,-4.74861 7.1284,-6.75712 11.88239,-4.94155 3.71242,1.41778 5.87872,4.354 6.20401,8.40892 0.20577,2.5651 -0.0109,3.52776 -1.18143,5.24986 -3.28386,4.83115 -9.04766,6.35593 -13.24008,3.50259 z"
   style="fill:#ffffff;stroke-width:0.60663509" /><path
   inkscape:connector-curvature="0"
   id="path3915"
   d="m 437.5128,314.91451 c 0.43791,-0.17524 0.96113,-0.15369 1.16271,0.0479 0.20158,0.20158 -0.15671,0.34496 -0.79621,0.31862 -0.70669,-0.0291 -0.85044,-0.17286 -0.3665,-0.36651 z"
   style="fill:#ffffff;stroke-width:0.60663509" /><path
   inkscape:connector-curvature="0"
   id="path3917"
   d="m 434.96906,314.09476 c -5.31357,-1.59095 -8.00149,-8.33887 -5.4573,-13.70033 2.62147,-5.52436 10.41401,-6.80496 15.01332,-2.46725 4.06436,3.83319 4.17028,9.80434 0.24114,13.59435 -3.11822,3.00781 -5.90292,3.73921 -9.79716,2.57323 z"
   style="fill:#ffffff;stroke-width:0.60663509" /><path
   inkscape:connector-curvature="0"
   id="path3919"
   d="M 131.27583,264.69293 C 97.006196,258.91184 69.410143,235.41633 58.555582,202.77832 53.744634,188.31253 52.688931,170.33457 55.785887,155.61216 63.598904,118.47037 93.936122,89.627646 131.576,83.555682 l 4.55291,-0.734464 V 72.531673 c 0,-11.962182 0.45519,-13.565114 4.53034,-15.95331 2.94654,-1.726788 7.21984,-1.939255 17.18077,-0.854223 28.60509,3.115919 53.94026,15.631555 73.87854,36.496173 18.76694,19.638847 29.64653,43.529297 32.46904,71.298587 1.23014,12.10274 0.43435,15.5838 -4.29897,18.80527 -1.88901,1.28565 -2.61529,1.36493 -12.50441,1.36493 h -10.49891 l -0.37444,2.27488 c -1.98107,12.03571 -4.73864,20.74306 -9.52619,30.08004 -13.08145,25.51233 -37.61436,43.51822 -65.89235,48.36158 -8.03239,1.37577 -22.53588,1.51553 -29.8165,0.28733 z m 26.79148,-19.4118 c 27.75842,-4.84066 50.52575,-26.013 57.56367,-53.53099 0.64922,-2.53842 1.18039,-5.3906 1.18039,-6.33817 v -1.72287 h -36.7614 c -40.62975,0 -39.42855,0.10988 -42.26476,-3.86626 l -1.35298,-1.89677 -0.30332,-37.61138 -0.30332,-37.61137 -1.8199,0.18834 c -4.16686,0.43122 -13.64532,3.35645 -18.82289,5.80909 -18.384005,8.70858 -31.942635,23.96391 -38.132843,42.90469 -2.650323,8.10945 -3.479871,13.59463 -3.479634,23.00819 8.49e-4,34.23968 24.109537,63.47729 58.008827,70.34976 6.88028,1.39485 19.44711,1.5456 26.48816,0.31774 z m 86.38907,-83.88587 c -3.15335,-22.83213 -13.62367,-43.52809 -29.85285,-59.00807 -8.19967,-7.821136 -14.6995,-12.392836 -24.85342,-17.480809 -9.5795,-4.80014 -21.1807,-8.399372 -30.72073,-9.530997 l -3.48815,-0.413759 v 44.657575 44.65758 h 44.65656 44.65656 z"
   style="fill:#ffffff;stroke-width:0.60663509" /></svg>
