<?xml version="1.0" encoding="UTF-8" standalone="no"?>
<svg
   xmlns:dc="http://purl.org/dc/elements/1.1/"
   xmlns:cc="http://creativecommons.org/ns#"
   xmlns:rdf="http://www.w3.org/1999/02/22-rdf-syntax-ns#"
   xmlns:svg="http://www.w3.org/2000/svg"
   xmlns="http://www.w3.org/2000/svg"
   xmlns:sodipodi="http://sodipodi.sourceforge.net/DTD/sodipodi-0.dtd"
   xmlns:inkscape="http://www.inkscape.org/namespaces/inkscape"
   viewBox="0 0 64 64"
   width="512"
   height="512"
   version="1.1"
   id="svg5886"
   sodipodi:docname="salarymgnt.svg"
   inkscape:version="1.0 (6e3e5246a0, 2020-05-07)">
  <metadata
     id="metadata5892">
    <rdf:RDF>
      <cc:Work
         rdf:about="">
        <dc:format>image/svg+xml</dc:format>
        <dc:type
           rdf:resource="http://purl.org/dc/dcmitype/StillImage" />
        <dc:title />
      </cc:Work>
    </rdf:RDF>
  </metadata>
  <defs
     id="defs5890" />
  <sodipodi:namedview
     pagecolor="#ffffff"
     bordercolor="#666666"
     borderopacity="1"
     objecttolerance="10"
     gridtolerance="10"
     guidetolerance="10"
     inkscape:pageopacity="0"
     inkscape:pageshadow="2"
     inkscape:window-width="1853"
     inkscape:window-height="1025"
     id="namedview5888"
     showgrid="false"
     inkscape:zoom="0.4609375"
     inkscape:cx="256"
     inkscape:cy="256"
     inkscape:window-x="67"
     inkscape:window-y="27"
     inkscape:window-maximized="1"
     inkscape:current-layer="svg5886"
     inkscape:document-rotation="0"
     showborder="false" />
  <g
     style="fill:#ffffff"
     id="money-coin">
    <path
       style="fill:#ffffff"
       d="M57,36H56V27a3,3,0,0,0-3-3h-.129l1.615-3.457A1,1,0,0,0,54,19.214L15.932,1.464a1,1,0,0,0-1.328.483L4.266,24.1A3,3,0,0,0,2,27V59a3,3,0,0,0,3,3H53a3,3,0,0,0,3-3V50h1a5.006,5.006,0,0,0,5-5V41A5.006,5.006,0,0,0,57,36ZM15.993,3.7,52.25,20.6,50.664,24H46.59a7.991,7.991,0,0,1-.975-4.652,1,1,0,0,0-.572-1L22.353,7.764a1,1,0,0,0-1.137.206,7.907,7.907,0,0,1-6.466,2.355.994.994,0,0,0-1.006.572l-3.82,8.2a1,1,0,0,0,.206,1.136A7.968,7.968,0,0,1,12.276,24H6.52ZM25.183,24a3.99,3.99,0,1,1,7.731,0Zm6.4-6.417A6,6,0,0,0,23.133,24H14.327a9.974,9.974,0,0,0-2.3-4.674l3.245-6.965a9.886,9.886,0,0,0,6.857-2.5l21.456,10A10,10,0,0,0,44.37,24h-9.4A5.976,5.976,0,0,0,31.581,17.583ZM54,59a1,1,0,0,1-1,1H5a1,1,0,0,1-1-1V27a1,1,0,0,1,1-1H53a1,1,0,0,1,1,1v9H49a5.006,5.006,0,0,0-5,5v4a5.006,5.006,0,0,0,5,5h5Zm6-14a3,3,0,0,1-3,3H49a3,3,0,0,1-3-3V41a3,3,0,0,1,3-3h8a3,3,0,0,1,3,3Z"
       id="path5879" />
    <path
       style="fill:#ffffff"
       d="M51,40a3,3,0,1,0,3,3A3,3,0,0,0,51,40Zm0,4a1,1,0,1,1,1-1A1,1,0,0,1,51,44Z"
       id="path5881" />
    <path
       style="fill:#ffffff"
       d="M30.861,42.2C33.027,41.7,34,41.018,34,40V35c0-2.708-8.392-3-12-3-10.831,0-12,2.1-12,3v2.618C7.22,38.129,6,38.856,6,40v5c0,.527.015,1.98,5.739,2.657C8,48.389,8,49.479,8,50v5c0,2.708,8.392,3,12,3s12-.292,12-3V52.679C37.985,52,38,50.609,38,50V45C38,44.433,37.986,42.8,30.861,42.2ZM30,45v-.857a23.731,23.731,0,0,1,5.381.86,25.143,25.143,0,0,1-5.667.876A1.292,1.292,0,0,0,30,45Zm-1.151-4.449A47.373,47.373,0,0,1,22,41c-.649,0-1.289-.01-1.967-.029-4.876-.162-7.408-.862-8.033-1.234V36.872C14.711,37.858,19.5,38,22,38c5.354,0,8.342-.513,10-1.141v2.87A9.809,9.809,0,0,1,28.849,40.551ZM22,34a33.634,33.634,0,0,1,9.4,1A33.634,33.634,0,0,1,22,36a33.634,33.634,0,0,1-9.395-1A33.634,33.634,0,0,1,22,34ZM10,39.654V40a1.313,1.313,0,0,0,.057.365,12.529,12.529,0,0,1-1.431-.359A12.028,12.028,0,0,1,10,39.654ZM8,41.872C10.711,42.858,15.5,43,18,43c.69,0,1.371-.01,2.06-.03h0c.63.02,1.28.03,1.94.03a52.225,52.225,0,0,0,6-.324v2.055c-.473.274-2.174.856-6.073,1.131a55.559,55.559,0,0,1-6.877.059c-4.292-.213-6.474-.841-7.05-1.186Zm6,7.462V50a1.3,1.3,0,0,0,.165.69A19.184,19.184,0,0,1,10.622,50,17.781,17.781,0,0,1,14,49.334ZM20,56c-5.813,0-9.219-.778-10-1.262V51.872C12.711,52.858,17.5,53,20,53c1,0,2.031-.027,3.03-.08h0c.993.052,1.992.08,2.97.08,1.391,0,2.718-.06,4-.15v1.888C29.219,55.222,25.812,56,20,56Zm10.907-5.216C29.4,50.925,27.7,51,26,51q-1.438,0-2.95-.079c-4.292-.213-6.474-.841-7.05-1.186V47.947c.669.023,1.342.053,2,.053,1.377,0,2.721-.047,4-.139,1.28.092,2.624.139,4,.139,2.5,0,7.289-.142,10-1.128v2.86C35.575,49.982,34.156,50.483,30.907,50.784Z"
       id="path5883" />
  </g>
  <path
     style="fill:#ffffff;stroke-width:2.16949153"
     d="M 24.751142,488.05441 C 20.654721,483.95798 18.131566,478.69607 17.208967,472.3256 16.446443,467.06041 16.118755,405.64068 16.480771,335.83729 17.195287,198.06554 16.829295,202.0815 29.169615,196.60489 33.69754,194.5954 42.066002,178.29703 75.649714,106.08047 98.176581,57.63994 117.53318,16.786441 118.66439,15.294915 c 1.1312,-1.491525 3.40212,-2.711864 5.0465,-2.711864 2.38555,0 259.71114,118.943399 300.92076,139.094359 12.13108,5.93194 12.31991,7.80739 2.86965,28.49886 -4.65736,10.19733 -5.0887,12.47458 -2.36282,12.47458 6.65277,0 15.62941,6.48254 19.0978,13.79162 2.85301,6.01229 3.54677,14.73041 3.54677,44.57015 0,37.01986 0.0109,37.09588 4.88136,37.10796 9.41214,0.0234 21.3389,4.62306 28.66423,11.0548 11.6544,10.23271 14.8129,21.44169 13.86288,49.19732 -0.72795,21.26759 -1.39279,24.52764 -6.60984,32.41112 -6.72978,10.16938 -20.96909,17.96872 -32.80561,17.96872 h -7.99302 v 36.95104 c 0,39.80017 -1.73906,48.41145 -11.10101,54.96882 -4.58107,3.2087 -23.68765,3.53777 -205.41301,3.53777 H 30.90691 Z m 405.242078,-9.46458 c 1.82895,-1.82895 2.60339,-14.03828 2.60339,-41.04339 v -38.44003 l -26.74521,-0.7193 c -24.70495,-0.66445 -27.40981,-1.15966 -35.45754,-6.49181 -12.68541,-8.40494 -16.76149,-18.36047 -17.68123,-43.1852 -0.88213,-23.81017 1.69781,-35.89511 9.69099,-45.39447 9.58419,-11.39015 16.67172,-13.73448 44.70146,-14.78582 l 25.49153,-0.95614 v -36.43652 c 0,-20.04007 -0.59257,-37.98077 -1.31686,-39.86819 -1.18749,-3.09456 -20.77199,-3.43167 -199.36111,-3.43167 -178.589117,0 -198.173612,0.33711 -199.361105,3.43167 -0.724271,1.88742 -1.316857,62.22098 -1.316857,134.07458 0,98.71849 0.636175,131.27908 2.60339,133.24629 3.773789,3.77379 392.375362,3.77379 396.149152,0 z m 33.6315,-95.16895 c 13.53424,-3.75837 16.68291,-11.39743 16.69259,-40.49851 0.009,-23.86838 -0.12279,-24.51912 -6.3224,-31.45763 l -6.33051,-7.08508 h -43.74576 -43.74575 l -6.33051,7.08508 c -6.18379,6.92085 -6.33052,7.63989 -6.33052,31.02299 0,30.47238 2.71818,36.29607 19.52543,41.8332 6.33463,2.08695 68.46008,1.35685 76.58743,-0.90005 z M 97.513307,186.68475 c -1.302888,-5.35346 -5.112001,-11.7492 -15.299015,-25.68799 -3.092005,-4.23076 -2.273734,-6.78125 12.180608,-37.9661 8.52241,-18.38686 16.46784,-34.650999 17.65651,-36.142524 1.18868,-1.491526 5.41059,-2.711865 9.38203,-2.711865 14.355,0 28.93659,-4.707903 41.20964,-13.305201 11.69561,-8.192802 12.74937,-8.516545 19.13154,-5.877731 3.71481,1.535945 45.80504,21.026026 93.53385,43.311281 l 86.77967,40.51866 1.40257,13.85287 c 0.77143,7.61907 2.91823,17.48027 4.77067,21.91378 l 3.36807,8.06092 h 17.27458 17.27455 l 6.41569,-13.55932 c 3.52861,-7.45763 5.81165,-14.20087 5.07342,-14.98498 -3.19425,-3.39271 -287.34784,-134.352669 -289.58006,-133.460895 -1.36074,0.543617 -18.019,34.532429 -37.018359,75.530695 -18.999359,40.99826 -35.865108,77.22704 -37.479442,80.5084 l -2.935152,5.9661 h 24.155309 24.15531 z M 185.28668,185.6 c 0.0446,-26.01509 20.88776,-47.43329 46.35705,-47.63609 13.74828,-0.10947 24.22699,4.12533 33.73516,13.63348 9.18096,9.18097 13.18382,18.66028 13.18382,31.22106 v 9.8324 h 38.83852 38.83852 l -3.04191,-10.10751 c -1.67305,-5.55913 -3.04191,-13.24536 -3.04191,-17.0805 v -6.97298 l -86.69572,-40.48545 -86.69572,-40.485441 -9.11693,6.604273 c -10.08876,7.30826 -26.9422,13.069978 -38.23062,13.069978 -7.2687,0 -7.46862,0.269395 -20.21641,27.24086 -7.08131,14.98247 -12.875106,28.21393 -12.875106,29.40323 0,1.18931 2.434445,5.74499 5.409876,10.12373 2.97543,4.37874 6.95898,12.62525 8.85232,18.32558 l 3.44244,10.36423 h 35.62226 35.62226 l 0.0122,-7.05085 z m 79.78856,-0.54237 c 0.90104,-9.5477 -7.85206,-24.95898 -16.85157,-29.66999 -21.9074,-11.46795 -47.73324,3.7291 -47.75454,28.10087 l -0.008,9.27833 32,-0.60037 32,-0.60037 z"
     id="path5894"
     inkscape:connector-curvature="0"
     transform="scale(0.125)" />
  <path
     style="fill:#ffffff;stroke-width:2.16949153"
     d="m 125.2069,461.64186 c -24.65567,-2.03382 -45.677187,-6.76343 -53.843468,-12.11418 -5.262722,-3.44827 -5.41089,-4.2471 -5.41089,-29.17227 0,-25.1392 0.10943,-25.71301 5.750047,-30.14991 3.162526,-2.48765 9.508289,-5.12396 14.101695,-5.85847 11.581793,-1.85201 10.431314,-4.28504 -2.859933,-6.04819 -12.625746,-1.67486 -24.702945,-6.20223 -30.471731,-11.42291 -3.260375,-2.9506 -3.87601,-7.1847 -3.87601,-26.65773 0,-21.62212 0.343166,-23.47238 5.199586,-28.03475 2.859773,-2.68661 9.937739,-6.08862 15.728813,-7.56 l 10.529228,-2.67525 1.084746,-13.97071 1.084746,-13.97071 11.932203,-5.86473 c 15.654078,-7.69404 37.211728,-10.41674 82.055288,-10.36348 53.08605,0.063 78.95969,4.43484 89.67737,15.15251 5.86413,5.86414 6.16565,7.12368 6.16565,25.75589 0,25.04782 -2.04677,29.4746 -16.06513,34.74614 -12.36756,4.65076 -13.04408,4.24088 14.50207,8.78639 18.02538,2.97445 29.53934,8.21722 31.00902,14.11964 0.60904,2.44602 0.82267,14.59569 0.47475,26.99928 -0.597,21.28388 -0.94284,22.78326 -6.15029,26.66509 -3.03473,2.26221 -13.52964,5.69155 -23.32203,7.62075 l -17.80432,3.50765 v 11.25373 c 0,12.48717 -2.59834,16.12804 -15.26584,21.39095 -17.03588,7.07783 -75.21047,11.08358 -114.22557,7.86527 z m 81.33464,-15.23535 c 9.8444,-1.23438 21.53404,-3.43099 25.97699,-4.88135 7.14512,-2.33247 8.15427,-3.55026 8.73781,-10.54432 l 0.65972,-7.90729 -67.91396,-1.07316 c -61.04207,-0.96456 -74.028863,-1.98993 -91.235998,-7.20348 -3.321748,-1.00644 -3.79661,0.47756 -3.79661,11.86484 v 13.01517 l 15.728813,3.35888 c 8.650845,1.84738 19.145765,3.71028 23.322035,4.13976 17.39112,1.7885 71.90114,1.31493 88.5212,-0.76905 z m 36.22456,-39.02899 c 13.12543,-1.22037 28.98983,-3.6875 35.25424,-5.48252 l 11.38983,-3.26367 v -11.8716 c 0,-6.52938 -0.7322,-11.8708 -1.62712,-11.86982 -0.89491,9.8e-4 -8.94915,1.59027 -17.8983,3.53177 -11.36772,2.4662 -29.67401,3.70098 -60.74577,4.09736 -24.46101,0.31204 -53.07588,0.67529 -63.58859,0.80721 l -19.11401,0.23985 0.67334,8.13559 c 0.64489,7.79194 1.13154,8.25281 11.52079,10.91042 23.40361,5.98675 68.70393,8.05976 104.13559,4.76541 z m -129.08474,-6.45549 c 0,-5.65676 -0.78074,-6.50689 -5.96611,-6.49637 -8.871374,0.018 -23.038267,4.40779 -20.87027,6.46694 1.037974,0.98585 7.256715,2.74421 13.81943,3.90746 6.56271,1.16325 12.17627,2.23097 12.47457,2.37272 0.29831,0.14175 0.54238,-2.67109 0.54238,-6.25075 z m 79.18644,-34.82011 c 8.35254,-1.20548 18.84745,-3.17632 23.32203,-4.37963 7.76719,-2.08876 8.13555,-2.60157 8.13462,-11.32455 l -9.7e-4,-9.13672 -66.71089,-0.0458 c -53.83715,-0.037 -69.327549,-0.71361 -80.270217,-3.50618 l -13.559322,-3.46035 v 12.6429 12.64289 l 8.639165,2.32629 c 23.317007,6.27862 90.047724,8.62837 120.445584,4.24118 z m 78.876,-2.38356 c 6.39198,-1.2381 10.7852,-3.03224 9.76272,-3.98696 -2.66906,-2.4922 -23.35231,-6.53818 -33.42347,-6.53818 -7.00304,0 -8.57119,0.76138 -8.57119,4.16155 0,2.28885 -0.63551,5.81768 -1.41226,7.84184 -1.25977,3.2829 -0.14703,3.52333 10.30509,2.22658 6.44454,-0.79955 16.94714,-2.46672 23.33911,-3.70483 z m -55.83736,-36.79639 c 12.16824,-1.32376 26.11839,-3.55921 31.00034,-4.96768 l 8.87627,-2.56084 0.65853,-12.65259 0.65852,-12.6526 -6.02872,1.51312 c -21.12876,5.30298 -34.49195,6.42095 -75.55952,6.32134 -34.09301,-0.0827 -49.65443,-1.0155 -61.8305,-3.70636 -8.94916,-1.97772 -17.052114,-3.59666 -18.006575,-3.59764 -0.954462,-9.7e-4 -1.442597,5.57294 -1.084746,12.38648 l 0.650639,12.38825 9.537272,2.75222 c 22.36073,6.45275 74.94386,8.71277 111.12849,4.7763 z m -134.767457,-7.6089 c 0,-2.57844 -1.292726,-3.16083 -4.881356,-2.19911 -2.684746,0.71948 -5.671177,1.32148 -6.636511,1.33777 -0.965335,0.0163 -1.151788,1.0059 -0.414336,2.19912 2.26307,3.66172 11.932203,2.57767 11.932203,-1.33778 z M 240.26705,283.75598 c 6.17965,-1.52651 9.71801,-3.39804 8.57859,-4.53745 -1.06661,-1.06662 -12.14543,-3.50094 -24.61959,-5.40959 -35.34932,-5.40876 -113.82472,-1.73097 -122.16646,5.7254 -1.61889,1.44706 4.81619,3.17925 26.80821,7.21618 10.83189,1.98834 101.04442,-0.43668 111.39925,-2.99454 z"
     id="path5896"
     inkscape:connector-curvature="0"
     transform="scale(0.125)" />
  <path
     style="fill:#ffffff;stroke-width:2.16949153"
     d="m 396.47231,363.65811 c -7.96597,-3.85506 -12.77017,-15.36091 -10.39457,-24.89454 4.4723,-17.94802 25.96288,-23.25351 38.38328,-9.47588 17.24118,19.12522 -4.44975,45.76189 -27.98871,34.37042 z m 17.52866,-13.87409 c 4.24941,-4.24941 4.34458,-8.30016 0.27438,-11.67814 -4.99466,-4.14519 -13.03062,-1.92981 -13.84528,3.81692 -1.36029,9.59574 6.99589,14.43622 13.5709,7.86122 z"
     id="path5898"
     inkscape:connector-curvature="0"
     transform="scale(0.125)" />
</svg>
