<?xml version="1.0" encoding="UTF-8" standalone="no"?>
<svg
   xmlns:dc="http://purl.org/dc/elements/1.1/"
   xmlns:cc="http://creativecommons.org/ns#"
   xmlns:rdf="http://www.w3.org/1999/02/22-rdf-syntax-ns#"
   xmlns:svg="http://www.w3.org/2000/svg"
   xmlns="http://www.w3.org/2000/svg"
   xmlns:sodipodi="http://sodipodi.sourceforge.net/DTD/sodipodi-0.dtd"
   xmlns:inkscape="http://www.inkscape.org/namespaces/inkscape"
   viewBox="0 0 64 64"
   width="512"
   height="512"
   version="1.1"
   id="svg3035"
   sodipodi:docname="salarymgntnav.svg"
   inkscape:version="0.92.4 (f8dce91, 2019-08-02)">
  <metadata
     id="metadata3041">
    <rdf:RDF>
      <cc:Work
         rdf:about="">
        <dc:format>image/svg+xml</dc:format>
        <dc:type
           rdf:resource="http://purl.org/dc/dcmitype/StillImage" />
        <dc:title></dc:title>
      </cc:Work>
    </rdf:RDF>
  </metadata>
  <defs
     id="defs3039" />
  <sodipodi:namedview
     pagecolor="#ffffff"
     bordercolor="#666666"
     borderopacity="1"
     objecttolerance="10"
     gridtolerance="10"
     guidetolerance="10"
     inkscape:pageopacity="0"
     inkscape:pageshadow="2"
     inkscape:window-width="1853"
     inkscape:window-height="1025"
     id="namedview3037"
     showgrid="false"
     inkscape:zoom="1.5556641"
     inkscape:cx="256"
     inkscape:cy="256"
     inkscape:window-x="67"
     inkscape:window-y="27"
     inkscape:window-maximized="1"
     inkscape:current-layer="svg3035" />
  <g
     id="money-coin">
    <path
       d="M57,36H56V27a3,3,0,0,0-3-3h-.129l1.615-3.457A1,1,0,0,0,54,19.214L15.932,1.464a1,1,0,0,0-1.328.483L4.266,24.1A3,3,0,0,0,2,27V59a3,3,0,0,0,3,3H53a3,3,0,0,0,3-3V50h1a5.006,5.006,0,0,0,5-5V41A5.006,5.006,0,0,0,57,36ZM15.993,3.7,52.25,20.6,50.664,24H46.59a7.991,7.991,0,0,1-.975-4.652,1,1,0,0,0-.572-1L22.353,7.764a1,1,0,0,0-1.137.206,7.907,7.907,0,0,1-6.466,2.355.994.994,0,0,0-1.006.572l-3.82,8.2a1,1,0,0,0,.206,1.136A7.968,7.968,0,0,1,12.276,24H6.52ZM25.183,24a3.99,3.99,0,1,1,7.731,0Zm6.4-6.417A6,6,0,0,0,23.133,24H14.327a9.974,9.974,0,0,0-2.3-4.674l3.245-6.965a9.886,9.886,0,0,0,6.857-2.5l21.456,10A10,10,0,0,0,44.37,24h-9.4A5.976,5.976,0,0,0,31.581,17.583ZM54,59a1,1,0,0,1-1,1H5a1,1,0,0,1-1-1V27a1,1,0,0,1,1-1H53a1,1,0,0,1,1,1v9H49a5.006,5.006,0,0,0-5,5v4a5.006,5.006,0,0,0,5,5h5Zm6-14a3,3,0,0,1-3,3H49a3,3,0,0,1-3-3V41a3,3,0,0,1,3-3h8a3,3,0,0,1,3,3Z"
       id="path3028" />
    <path
       d="M51,40a3,3,0,1,0,3,3A3,3,0,0,0,51,40Zm0,4a1,1,0,1,1,1-1A1,1,0,0,1,51,44Z"
       id="path3030" />
    <path
       d="M30.861,42.2C33.027,41.7,34,41.018,34,40V35c0-2.708-8.392-3-12-3-10.831,0-12,2.1-12,3v2.618C7.22,38.129,6,38.856,6,40v5c0,.527.015,1.98,5.739,2.657C8,48.389,8,49.479,8,50v5c0,2.708,8.392,3,12,3s12-.292,12-3V52.679C37.985,52,38,50.609,38,50V45C38,44.433,37.986,42.8,30.861,42.2ZM30,45v-.857a23.731,23.731,0,0,1,5.381.86,25.143,25.143,0,0,1-5.667.876A1.292,1.292,0,0,0,30,45Zm-1.151-4.449A47.373,47.373,0,0,1,22,41c-.649,0-1.289-.01-1.967-.029-4.876-.162-7.408-.862-8.033-1.234V36.872C14.711,37.858,19.5,38,22,38c5.354,0,8.342-.513,10-1.141v2.87A9.809,9.809,0,0,1,28.849,40.551ZM22,34a33.634,33.634,0,0,1,9.4,1A33.634,33.634,0,0,1,22,36a33.634,33.634,0,0,1-9.395-1A33.634,33.634,0,0,1,22,34ZM10,39.654V40a1.313,1.313,0,0,0,.057.365,12.529,12.529,0,0,1-1.431-.359A12.028,12.028,0,0,1,10,39.654ZM8,41.872C10.711,42.858,15.5,43,18,43c.69,0,1.371-.01,2.06-.03h0c.63.02,1.28.03,1.94.03a52.225,52.225,0,0,0,6-.324v2.055c-.473.274-2.174.856-6.073,1.131a55.559,55.559,0,0,1-6.877.059c-4.292-.213-6.474-.841-7.05-1.186Zm6,7.462V50a1.3,1.3,0,0,0,.165.69A19.184,19.184,0,0,1,10.622,50,17.781,17.781,0,0,1,14,49.334ZM20,56c-5.813,0-9.219-.778-10-1.262V51.872C12.711,52.858,17.5,53,20,53c1,0,2.031-.027,3.03-.08h0c.993.052,1.992.08,2.97.08,1.391,0,2.718-.06,4-.15v1.888C29.219,55.222,25.812,56,20,56Zm10.907-5.216C29.4,50.925,27.7,51,26,51q-1.438,0-2.95-.079c-4.292-.213-6.474-.841-7.05-1.186V47.947c.669.023,1.342.053,2,.053,1.377,0,2.721-.047,4-.139,1.28.092,2.624.139,4,.139,2.5,0,7.289-.142,10-1.128v2.86C35.575,49.982,34.156,50.483,30.907,50.784Z"
       id="path3032" />
  </g>
  <path
     style="fill:#0066ff;fill-opacity:1;stroke-width:0.64281231"
     d="M 32.640015,494.38735 C 24.43852,491.76131 18.45947,484.8364 16.775583,476.01323 16.239159,473.20249 16.094391,437.31466 16.233724,341.68688 l 0.19013,-130.4909 1.480881,-3.66508 c 2.443002,-6.04626 8.286984,-11.7059 14.178608,-13.73134 l 2.311771,-0.79475 41.796542,-89.52452 C 107.1557,37.15803 118.41621,13.640825 119.63964,12.740579 c 3.67444,-2.703776 3.21961,-2.8834299 61.02276,24.103862 29.8747,13.947983 98.57526,45.986405 152.66792,71.196499 54.09266,25.21009 98.97621,46.2394 99.74123,46.7318 2.02777,1.30515 3.60262,4.99946 3.1023,7.27742 -0.22922,1.04362 -3.28652,8.00719 -6.79399,15.47461 -3.50747,7.46741 -6.37722,13.79133 -6.37722,14.05315 0,0.26181 1.37715,0.63913 3.06034,0.83847 8.11739,0.96139 14.94156,5.59414 18.84497,12.79334 l 2.20015,4.05782 0.1795,39.27448 0.1795,39.27447 7.63426,0.4105 c 19.43595,1.04505 32.17723,10.21214 38.76674,27.89183 1.29329,3.46989 1.39945,5.11598 1.62491,25.19553 0.15917,14.17596 -0.006,22.90418 -0.48634,25.66109 -2.02781,11.64451 -9.97758,22.4685 -20.56521,28.00047 -6.27023,3.27615 -10.40398,4.2928 -19.1187,4.70201 l -7.85564,0.36888 -0.17951,39.27954 -0.17951,39.27955 -1.57375,3.21406 c -2.33814,4.77514 -7.10867,9.49269 -11.78237,11.65151 l -3.99981,1.84755 -196.70057,0.12828 C 43.298188,495.57105 36.219968,495.53361 32.640015,494.38735 Z M 427.75483,479.23833 c 4.39907,-2.0875 4.24718,-0.58608 4.24718,-41.98357 v -37.29592 l -23.62335,-0.24167 c -21.81584,-0.22318 -23.92703,-0.34355 -27.59221,-1.57318 -10.54612,-3.53813 -19.27377,-10.8627 -23.8587,-20.0231 -4.41956,-8.83002 -4.76277,-11.59676 -4.48965,-36.19319 0.22166,-19.96218 0.33544,-21.7441 1.63671,-25.63191 4.14885,-12.39549 13.85325,-22.10749 26.13041,-26.15085 5.15793,-1.69872 5.34978,-1.7121 28.49484,-1.98734 l 23.30195,-0.27711 v -37.45205 c 0,-37.00655 -0.0159,-37.47235 -1.34239,-39.15861 -3.06783,-3.90013 12.93423,-3.60932 -198.60387,-3.60932 -175.414357,0 -193.783632,0.0957 -195.730626,1.0196 -1.181754,0.56078 -2.671799,1.79016 -3.311209,2.73195 -1.110689,1.63595 -1.170011,7.51393 -1.329427,131.72706 -0.183826,143.2329 -0.467698,133.15492 3.824351,135.77171 2.121772,1.29361 2.679436,1.2973 196.159991,1.2997 172.06379,0.002 194.2647,-0.10794 196.086,-0.9722 z m 37.18916,-96.61755 c 5.15661,-2.08232 10.23587,-6.90925 12.8429,-12.20487 l 2.10464,-4.27513 V 343.95024 321.7597 l -1.71015,-3.64806 c -3.47687,-7.4168 -10.44999,-12.67218 -18.56006,-13.98799 -5.5006,-0.89244 -65.75213,-0.90158 -71.24178,-0.0108 -9.68926,1.57221 -16.97266,8.03666 -19.6832,17.47001 -0.90355,3.1446 -1.02807,6.65178 -0.85578,24.10546 l 0.20162,20.42542 1.71015,3.64805 c 2.0156,4.29967 6.16429,9.0045 9.83908,11.15808 5.79222,3.39446 6.76992,3.46563 45.66107,3.32385 l 35.99749,-0.13124 z M 98.382423,191.7028 c 0,-0.29162 -0.681484,-2.53343 -1.514401,-4.9818 -2.783442,-8.18191 -7.425453,-16.21045 -12.569597,-21.73962 -4.266397,-4.58572 -5.200371,-6.13784 -5.200371,-8.64222 0,-2.81139 30.903666,-69.387 33.220266,-71.56623 1.49745,-1.408659 2.23952,-1.520264 12.62977,-1.899369 9.36555,-0.341719 11.9158,-0.664797 16.82416,-2.131392 9.20902,-2.75161 21.01924,-9.28826 25.06968,-13.87541 2.48361,-2.812702 6.26006,-5.124637 8.37086,-5.124637 2.57818,0 184.98612,84.869928 187.36233,87.175078 1.5412,1.49512 1.61962,1.96356 2.00724,11.99016 0.4583,11.85471 1.76897,18.09467 5.52794,26.31797 l 2.29866,5.02866 16.63736,-0.17118 16.63736,-0.1712 6.12469,-13.12633 c 3.36858,-7.21949 6.1806,-13.36667 6.24893,-13.66042 0.0683,-0.29375 -18.67802,-9.3142 -41.65856,-20.04546 C 247.71016,84.985501 128.64958,29.601507 128.15255,29.601507 c -0.5059,0 -76.052613,161.117983 -76.052613,162.196883 0,0.23905 10.41356,0.43463 23.141243,0.43463 12.727684,0 23.141243,-0.2386 23.141243,-0.53022 z m 86.565707,-7.02283 c -0.005,-13.9527 4.19062,-24.11606 14.00867,-33.9341 9.6815,-9.6815 20.04723,-14.02849 33.45199,-14.02849 13.36918,0 23.70391,4.32974 33.50005,14.03487 4.99427,4.94786 6.29884,6.70609 8.838,11.9114 4.10537,8.41609 5.14588,12.85991 5.15504,22.01632 l 0.008,7.55305 h 37.47754 c 20.61263,0 37.47752,-0.2386 37.47752,-0.53022 0,-0.29162 -0.72001,-2.64714 -1.60002,-5.23449 -2.27845,-6.69892 -3.57954,-13.46297 -4.07591,-21.1897 l -0.43078,-6.70581 -84.22704,-39.25527 C 218.20591,97.72714 179.56933,79.730903 178.67173,79.325892 c -1.48078,-0.668145 -2.01515,-0.438031 -5.76669,2.483313 -12.71701,9.902826 -27.5617,15.540154 -43.31895,16.450537 l -7.68648,0.444087 -13.00656,27.926931 -13.006558,27.92693 1.263769,1.64243 c 8.813219,11.45396 13.380229,20.58854 16.649449,33.30095 l 0.70258,2.73195 h 35.22428 35.22427 l -0.003,-7.55305 z m 79.01057,6.10672 c 0.25308,-0.79548 0.45971,-3.76045 0.45918,-6.58882 -0.005,-24.06929 -24.37467,-39.342 -46.16088,-28.9289 -10.92859,5.22352 -17.8629,16.29709 -17.9141,28.60749 -0.0111,2.6516 0.19011,5.61657 0.44697,6.58883 l 0.46701,1.76773 h 31.12083 31.12084 z"
     id="path3586"
     inkscape:connector-curvature="0"
     transform="scale(0.125)" />
  <path
     style="fill:#0066ff;fill-opacity:1;stroke-width:0.64281231"
     d="m 402.75405,367.16105 c -7.04463,-1.86228 -12.77456,-6.47875 -15.88598,-12.79895 -1.94004,-3.94077 -2.11277,-4.79198 -2.11277,-10.41186 0,-5.27989 0.23173,-6.60567 1.68764,-9.6557 2.60551,-5.45836 5.77734,-8.64735 11.3307,-11.39197 4.5041,-2.22604 5.34522,-2.42423 10.08957,-2.37728 13.70418,0.1356 23.62714,10.12356 23.59564,23.75021 -0.0286,12.36836 -9.65223,22.48067 -22.02316,23.14146 -2.61426,0.13964 -5.621,0.0245 -6.68164,-0.25591 z m 8.25298,-15.4712 c 5.58319,-2.12273 6.89551,-9.93929 2.31569,-13.79295 -5.40927,-4.5516 -13.47136,-0.93111 -13.44945,6.03982 0.0183,5.8118 5.7471,9.80114 11.13376,7.75313 z"
     id="path3588"
     inkscape:connector-curvature="0"
     transform="scale(0.125)" />
  <path
     style="fill:#0066ff;fill-opacity:1;stroke-width:0.64281231"
     d="m 128.91601,462.82598 c -31.307134,-2.11605 -51.913171,-7.11589 -60.220235,-14.61181 -4.389657,-3.96103 -4.382404,-3.91338 -4.382404,-28.78991 0,-24.98746 0.002,-25.00002 4.612283,-28.65142 3.567414,-2.82544 11.081362,-5.94044 18.565957,-7.69674 3.515119,-0.82484 6.390973,-1.65225 6.390786,-1.83869 -1.87e-4,-0.18644 -3.54369,-0.84244 -7.874451,-1.45778 -18.674902,-2.65344 -31.628607,-7.65861 -35.883314,-13.86492 L 48.56447,363.63892 48.380102,340.862 c -0.18003,-22.24111 -0.151597,-22.8446 1.208658,-25.65452 2.613917,-5.39963 10.762338,-9.67072 23.882684,-12.5184 l 6.908229,-1.49938 0.002,-11.47347 c 0.0023,-13.06916 0.345748,-14.38378 4.745706,-18.16418 9.000187,-7.73287 28.795621,-12.40639 61.144561,-14.43567 14.05564,-0.88173 58.18995,-0.45221 69.42373,0.67563 34.66971,3.48075 52.83646,9.93195 55.5569,19.72885 0.86936,3.13072 0.91763,42.10639 0.056,45.20306 -1.48732,5.3453 -8.38161,10.1849 -18.35875,12.88734 -2.81244,0.76179 -5.34933,1.60596 -5.63754,1.87595 -0.28821,0.26998 1.88129,0.68851 4.82109,0.93004 6.82719,0.56092 19.84598,2.62184 26.87932,4.25507 11.24353,2.6109 19.92638,6.95319 22.96294,11.48376 1.45664,2.17333 1.46393,2.30083 1.46393,25.61534 0,25.87728 -0.0474,26.21769 -4.07563,29.28753 -6.63908,5.05951 -22.11301,9.59867 -39.79631,11.67398 l -3.69617,0.43378 -0.0141,10.07804 c -0.0117,8.35524 -0.21423,10.51852 -1.18472,12.6548 -4.06374,8.94525 -21.21571,14.80787 -52.7974,18.0464 -11.69479,1.19924 -59.67416,1.77796 -72.9592,0.88003 z m 68.78091,-16.01548 c 17.59781,-1.80647 31.86177,-4.40005 39.10639,-7.1106 l 3.64063,-1.36214 v -8.00687 -8.00687 l -4.33898,0.50001 c -7.63288,0.87959 -101.53873,0.58828 -112.01004,-0.34746 -17.83539,-1.59383 -36.676507,-4.86872 -43.229132,-7.51393 -1.047227,-0.42275 -1.124922,0.3688 -1.124922,11.4605 v 11.91462 l 3.4609,1.29489 c 9.468197,3.5425 27.867874,6.46717 50.535334,8.0327 7.33824,0.50681 57.18521,-0.15941 63.95982,-0.85485 z m 35.67609,-39.24518 c 23.16333,-1.41224 40.7681,-4.10916 50.94287,-7.80406 l 3.69617,-1.34224 V 386.5366 c 0,-9.47468 -0.16902,-11.81757 -0.83416,-11.56233 -4.82516,1.85158 -17.08166,4.43933 -27.77098,5.86336 -17.31525,2.30674 -27.22001,2.61464 -83.5656,2.59774 -9.54577,-0.003 -24.22599,-0.008 -32.62273,-0.0107 l -15.26679,-0.006 v 7.49098 7.49098 l 2.80309,1.07052 c 10.19895,3.89501 31.59579,7.05774 56.33564,8.32712 9.38322,0.48144 36.82766,0.34303 46.28249,-0.23342 z m -120.18329,-3.16198 c -0.36598,-0.68385 -0.66543,-3.14261 -0.66543,-5.46391 v -4.22053 h -1.966 c -4.74153,0 -23.951923,3.89542 -25.238222,5.11772 -0.939105,0.89238 20.739022,5.61592 26.423322,5.75749 1.89449,0.0472 2.0433,-0.0753 1.44633,-1.19077 z m 66.909,-37.60739 c 18.7793,-1.69938 34.58352,-4.58351 41.86437,-7.63985 l 2.41054,-1.01191 v -8.48368 -8.48368 l -4.98179,0.43316 c -2.73999,0.23825 -8.88688,0.75587 -13.65976,1.15027 -11.98051,0.99 -80.30998,0.96729 -93.52919,-0.0311 -18.426197,-1.39163 -31.204647,-3.27152 -41.989892,-6.17732 -3.295821,-0.88795 -6.11616,-1.61448 -6.26742,-1.61448 -0.151261,0 -0.275019,5.1966 -0.275019,11.54801 0,13.11723 -0.585975,11.81755 6.353556,14.09197 10.190147,3.33981 30.068225,5.99852 55.356425,7.40396 9.01385,0.50096 44.60298,-0.26999 54.71818,-1.18534 z m 70.49485,-0.40667 c 12.17609,-1.34337 32.27598,-5.32178 32.27598,-6.38844 0,-1.51328 -31.94575,-7.06474 -40.65393,-7.06474 h -2.41449 v 4.68517 c 0,3.3271 -0.35257,5.37673 -1.21633,7.07094 l -1.21633,2.38576 h 3.49151 c 1.92033,0 6.30044,-0.30991 9.73359,-0.68869 z m -40.00995,-39.49761 c 21.88284,-1.9206 31.27243,-3.51052 40.62743,-6.87931 l 5.3032,-1.90972 v -11.9 c 0,-11.08955 -0.0766,-11.86698 -1.12492,-11.41504 -3.03189,1.30708 -18.03195,4.7788 -24.58757,5.69072 -14.53984,2.02256 -21.23557,2.42417 -46.19134,2.77057 -40.13064,0.55704 -66.61082,-1.76221 -84.795621,-7.42677 l -4.031529,-1.25582 0.174655,11.98527 0.174655,11.98527 4.11865,1.46747 c 10.87419,3.87447 35.11923,7.1446 60.16258,8.11463 10.913,0.4227 39.27568,-0.27111 50.16981,-1.22727 z m -130.402317,-9.7269 c -0.153153,-0.15315 -2.791518,0.35184 -5.863034,1.12219 -3.071517,0.77036 -5.344679,1.64055 -5.051473,1.93376 0.293206,0.29321 2.842137,1.07953 5.66429,1.74739 l 5.131186,1.21429 0.198746,-2.86958 c 0.10931,-1.57828 0.07344,-2.99489 -0.07972,-3.14805 z M 199.30395,287.97532 c 15.37766,-0.82905 33.51729,-3.26567 44.99687,-6.04423 1.9445,-0.47066 4.40326,-1.06174 5.4639,-1.31351 1.84203,-0.43725 1.8645,-0.48221 0.50148,-1.00345 -2.00053,-0.76503 -15.38179,-3.54583 -22.6785,-4.71288 -25.38593,-4.06029 -69.37471,-4.51982 -95.90112,-1.00183 -9.29559,1.2328 -22.83267,3.70725 -28.45552,5.2014 -3.564946,0.94731 -2.3636,1.44142 9.04888,3.7218 14.94953,2.98713 29.85486,4.84229 43.31278,5.39081 10.67497,0.4351 33.5339,0.31058 43.71123,-0.23811 z"
     id="path3590"
     inkscape:connector-curvature="0"
     transform="scale(0.125)" />
</svg>
