<?xml version="1.0" encoding="UTF-8" standalone="no"?>
<!-- Generator: Adobe Illustrator 19.0.0, SVG Export Plug-In . SVG Version: 6.00 Build 0)  -->

<svg
   xmlns:dc="http://purl.org/dc/elements/1.1/"
   xmlns:cc="http://creativecommons.org/ns#"
   xmlns:rdf="http://www.w3.org/1999/02/22-rdf-syntax-ns#"
   xmlns:svg="http://www.w3.org/2000/svg"
   xmlns="http://www.w3.org/2000/svg"
   xmlns:sodipodi="http://sodipodi.sourceforge.net/DTD/sodipodi-0.dtd"
   xmlns:inkscape="http://www.inkscape.org/namespaces/inkscape"
   version="1.1"
   id="Layer_1"
   x="0px"
   y="0px"
   viewBox="0 0 512 512"
   style="enable-background:new 0 0 512 512;"
   xml:space="preserve"
   sodipodi:docname="search.svg"
   inkscape:version="0.92.4 (f8dce91, 2019-08-02)"><metadata
   id="metadata186"><rdf:RDF><cc:Work
       rdf:about=""><dc:format>image/svg+xml</dc:format><dc:type
         rdf:resource="http://purl.org/dc/dcmitype/StillImage" /></cc:Work></rdf:RDF></metadata><defs
   id="defs184" /><sodipodi:namedview
   pagecolor="#ffffff"
   bordercolor="#666666"
   borderopacity="1"
   objecttolerance="10"
   gridtolerance="10"
   guidetolerance="10"
   inkscape:pageopacity="0"
   inkscape:pageshadow="2"
   inkscape:window-width="1853"
   inkscape:window-height="1025"
   id="namedview182"
   showgrid="false"
   inkscape:zoom="1.6484375"
   inkscape:cx="256"
   inkscape:cy="256"
   inkscape:window-x="67"
   inkscape:window-y="27"
   inkscape:window-maximized="1"
   inkscape:current-layer="Layer_1" />
<g
   id="g149">
	<g
   id="g147">
		<path
   d="M508.875,493.792L353.089,338.005c32.358-35.927,52.245-83.296,52.245-135.339C405.333,90.917,314.417,0,202.667,0    S0,90.917,0,202.667s90.917,202.667,202.667,202.667c52.043,0,99.411-19.887,135.339-52.245l155.786,155.786    c2.083,2.083,4.813,3.125,7.542,3.125c2.729,0,5.458-1.042,7.542-3.125C513.042,504.708,513.042,497.958,508.875,493.792z     M202.667,384c-99.979,0-181.333-81.344-181.333-181.333S102.688,21.333,202.667,21.333S384,102.677,384,202.667    S302.646,384,202.667,384z"
   id="path145" />
	</g>
</g>
<g
   id="g151">
</g>
<g
   id="g153">
</g>
<g
   id="g155">
</g>
<g
   id="g157">
</g>
<g
   id="g159">
</g>
<g
   id="g161">
</g>
<g
   id="g163">
</g>
<g
   id="g165">
</g>
<g
   id="g167">
</g>
<g
   id="g169">
</g>
<g
   id="g171">
</g>
<g
   id="g173">
</g>
<g
   id="g175">
</g>
<g
   id="g177">
</g>
<g
   id="g179">
</g>
<path
   style="fill:#0000ff;stroke-width:0.60663509"
   d="m 497.68341,510.92294 c -1.38971,-0.59447 -29.30112,-28.07822 -80.79288,-79.55499 l -78.66967,-78.64676 -1.82142,1.47448 c -1.00178,0.81096 -4.37494,3.5594 -7.49592,6.10766 -3.12098,2.54825 -9.0763,6.94351 -13.23404,9.76724 -58.30332,39.59671 -131.49673,45.9443 -196.22303,17.01717 C 77.378111,368.28679 41.103339,333.03054 20.786007,291.19751 10.482061,269.98186 4.4176212,249.04416 1.3315596,224.03033 0.20125931,214.86877 0.40142675,188.2055 1.673121,178.5327 7.8112825,131.84445 27.291024,92.200669 60.257438,59.306078 70.613511,48.972566 79.188201,41.948198 90.934597,34.175411 115.03248,18.22944 139.73735,8.3210367 167.97725,3.2758607 182.82184,0.62381182 205.6095,-0.29506538 221.05782,1.1354682 259.8673,4.7292741 296.06816,19.161242 327.64779,43.62903 c 8.19422,6.348847 26.32622,24.31519 32.78518,32.485648 25.70431,32.515442 40.13309,68.553322 43.88859,109.617912 1.00013,10.93595 0.37336,34.03847 -1.21553,44.80382 -5.71544,38.72437 -21.77868,74.12696 -47.00565,103.59819 l -3.37526,3.94313 78.8197,78.86255 c 44.70117,44.72549 79.09489,79.60179 79.45545,80.5703 1.97463,5.30419 -0.38918,10.75477 -5.73392,13.22153 -2.9243,1.34965 -4.76561,1.39599 -7.58294,0.19083 z M 224.16833,382.92824 c 50.02204,-6.14633 94.08887,-31.70202 124.17358,-72.01204 18.13735,-24.30192 29.43824,-51.74005 34.16148,-82.94274 1.08949,-7.19735 1.341,-11.608 1.38373,-24.2654 0.0569,-16.85597 -0.48744,-22.98282 -3.29013,-37.03239 C 370.78917,117.51014 339.99465,73.639826 296.93015,47.482704 275.54497,34.493472 252.6199,26.41036 226.21422,22.549088 217.04489,21.208267 191.18492,21.013879 181.62654,22.213924 131.08298,28.559618 86.958141,54.201084 56.655515,94.836061 19.146054,145.1352 10.635161,212.79924 34.491507,271.04624 c 9.789321,23.90135 23.147616,43.57262 42.124325,62.0318 39.048908,37.98398 93.742288,56.46199 147.552498,49.8502 z"
   id="path188"
   inkscape:connector-curvature="0" /></svg>