<?xml version="1.0" encoding="UTF-8" standalone="no"?>
<svg
   xmlns:dc="http://purl.org/dc/elements/1.1/"
   xmlns:cc="http://creativecommons.org/ns#"
   xmlns:rdf="http://www.w3.org/1999/02/22-rdf-syntax-ns#"
   xmlns:svg="http://www.w3.org/2000/svg"
   xmlns="http://www.w3.org/2000/svg"
   xmlns:sodipodi="http://sodipodi.sourceforge.net/DTD/sodipodi-0.dtd"
   xmlns:inkscape="http://www.inkscape.org/namespaces/inkscape"
   id="Capa_1"
   enable-background="new 0 0 515.558 515.558"
   height="512"
   viewBox="0 0 515.558 515.558"
   width="512"
   version="1.1"
   sodipodi:docname="Search.svg"
   inkscape:version="0.92.4 (f8dce91, 2019-08-02)">
  <metadata
     id="metadata118">
    <rdf:RDF>
      <cc:Work
         rdf:about="">
        <dc:format>image/svg+xml</dc:format>
        <dc:type
           rdf:resource="http://purl.org/dc/dcmitype/StillImage" />
      </cc:Work>
    </rdf:RDF>
  </metadata>
  <defs
     id="defs116" />
  <sodipodi:namedview
     pagecolor="#ffffff"
     bordercolor="#666666"
     borderopacity="1"
     objecttolerance="10"
     gridtolerance="10"
     guidetolerance="10"
     inkscape:pageopacity="0"
     inkscape:pageshadow="2"
     inkscape:window-width="1853"
     inkscape:window-height="1025"
     id="namedview114"
     showgrid="false"
     inkscape:zoom="1.6484375"
     inkscape:cx="256"
     inkscape:cy="256"
     inkscape:window-x="67"
     inkscape:window-y="27"
     inkscape:window-maximized="1"
     inkscape:current-layer="Capa_1" />
  <path
     d="m378.344 332.78c25.37-34.645 40.545-77.2 40.545-123.333 0-115.484-93.961-209.445-209.445-209.445s-209.444 93.961-209.444 209.445 93.961 209.445 209.445 209.445c46.133 0 88.692-15.177 123.337-40.547l137.212 137.212 45.564-45.564c0-.001-137.214-137.213-137.214-137.213zm-168.899 21.667c-79.958 0-145-65.042-145-145s65.042-145 145-145 145 65.042 145 145-65.043 145-145 145z"
     id="path111" />
  <path
     style="fill:#0000ff;stroke-width:0.60663509"
     d="m 398.49143,443.32243 -67.94961,-67.9496 -4.84626,3.37423 c -25.74252,17.9233 -56.2172,29.92905 -88.56191,34.8897 -12.15047,1.86349 -37.58119,2.32857 -50.66924,0.92663 C 128.29182,408.33219 76.152824,378.47156 41.069435,331.29395 2.6040713,279.5685 -9.4118861,212.9657 8.4576534,150.53133 18.710072,114.71041 40.16806,80.157416 67.80655,54.964026 102.1184,23.68765 144.91828,4.8991856 190.6234,1.0493827 c 10.81268,-0.9107658 34.65994,-0.40575217 44.38703,0.9399843 58.06396,8.033114 109.69441,39.403364 142.88802,86.817628 19.92721,28.464335 32.08289,60.203505 36.45474,95.185425 1.30816,10.46738 1.48433,35.02034 0.32211,44.89099 -4.12965,35.07259 -15.21137,65.70804 -33.88909,93.68659 -2.77005,4.14942 -5.03645,7.69869 -5.03645,7.88727 0,0.18857 30.57396,30.9159 67.94212,68.28296 l 67.94212,67.94008 -22.28976,22.29586 c -12.25936,12.26273 -22.42778,22.29587 -22.59648,22.29587 -0.1687,0 -30.88405,-30.57732 -68.25633,-67.94961 z M 228.33744,350.80681 c 25.04725,-3.77085 47.30755,-13.22869 68.24645,-28.9962 6.89004,-5.18837 21.05838,-19.61038 26.60638,-27.08273 16.11721,-21.70756 25.37019,-45.2692 28.31298,-72.09576 1.04522,-9.52823 0.45956,-28.54662 -1.17119,-38.03307 -4.45392,-25.9093 -14.69659,-48.33087 -31.31508,-68.54976 C 300.21317,93.171606 272.94209,75.747858 244.55937,68.477622 224.3374,63.297765 203.80489,62.370839 184.05308,65.746108 142.21869,72.894926 105.522,98.159172 83.825574,134.74883 c -13.26046,22.36294 -19.886238,46.75391 -19.886238,73.20567 0,19.82455 3.274295,36.60641 10.711574,54.90048 11.069192,27.22774 31.83738,51.77711 57.23155,67.65148 16.85916,10.53897 38.87912,18.30026 58.35696,20.56884 3.10368,0.36148 6.59849,0.76876 7.76627,0.90505 4.40439,0.51405 24.21287,-0.25235 30.33175,-1.17354 z"
     id="path120"
     inkscape:connector-curvature="0"
     transform="scale(1.0069492)" />
</svg>
