<?xml version="1.0" encoding="UTF-8" standalone="no"?>
<svg
   xmlns:dc="http://purl.org/dc/elements/1.1/"
   xmlns:cc="http://creativecommons.org/ns#"
   xmlns:rdf="http://www.w3.org/1999/02/22-rdf-syntax-ns#"
   xmlns:svg="http://www.w3.org/2000/svg"
   xmlns="http://www.w3.org/2000/svg"
   xmlns:sodipodi="http://sodipodi.sourceforge.net/DTD/sodipodi-0.dtd"
   xmlns:inkscape="http://www.inkscape.org/namespaces/inkscape"
   height="480pt"
   viewBox="0 0 480 480"
   width="480pt"
   version="1.1"
   id="svg4297"
   sodipodi:docname="settings.svg"
   inkscape:version="1.0 (6e3e5246a0, 2020-05-07)">
  <metadata
     id="metadata4303">
    <rdf:RDF>
      <cc:Work
         rdf:about="">
        <dc:format>image/svg+xml</dc:format>
        <dc:type
           rdf:resource="http://purl.org/dc/dcmitype/StillImage" />
        <dc:title />
      </cc:Work>
    </rdf:RDF>
  </metadata>
  <defs
     id="defs4301" />
  <sodipodi:namedview
     pagecolor="#ffffff"
     bordercolor="#666666"
     borderopacity="1"
     objecttolerance="10"
     gridtolerance="10"
     guidetolerance="10"
     inkscape:pageopacity="0"
     inkscape:pageshadow="2"
     inkscape:window-width="1853"
     inkscape:window-height="1025"
     id="namedview4299"
     showgrid="false"
     inkscape:zoom="0.36875"
     inkscape:cx="320"
     inkscape:cy="320"
     inkscape:window-x="67"
     inkscape:window-y="27"
     inkscape:window-maximized="1"
     inkscape:current-layer="svg4297"
     inkscape:document-rotation="0"
     showborder="false" />
  <path
     style="fill:#ffffff"
     d="m456 176h-52c-.847656-2.175781-1.777344-4.390625-2.785156-6.679688l36.800781-36.800781c9.378906-9.375 9.378906-24.578125 0-33.953125l-56.558594-56.558594c-9.375-9.378906-24.578125-9.378906-33.953125 0l-36.800781 36.800782c-2.289063-1.007813-4.503906-1.9375-6.679687-2.785156v-52.023438c0-13.253906-10.746094-24-24-24h-80.023438c-13.253906 0-24 10.746094-24 24v52c-2.175781.847656-4.390625 1.777344-6.679688 2.785156l-36.800781-36.800781c-9.375-9.378906-24.578125-9.378906-33.953125 0l-56.566406 56.558594c-9.359375 9.382812-9.359375 24.570312 0 33.953125l36.800781 36.800781c-1.007812 2.289063-1.9375 4.503906-2.785156 6.679687h-52.015625c-13.253906 0-24 10.746094-24 24v80.023438c0 13.253906 10.746094 24 24 24h52c.847656 2.175781 1.777344 4.390625 2.785156 6.679688l-36.800781 36.800781c-9.378906 9.375-9.378906 24.578125 0 33.953125l56.558594 56.558594c9.382812 9.359374 24.570312 9.359374 33.953125 0l36.800781-36.800782c2.289063 1.007813 4.503906 1.9375 6.679687 2.785156v52.023438c0 13.253906 10.746094 24 24 24h80.023438c13.253906 0 24-10.746094 24-24v-52c2.175781-.847656 4.390625-1.777344 6.679688-2.785156l36.800781 36.800781c9.382812 9.359375 24.570312 9.359375 33.953125 0l56.566406-56.558594c9.359375-9.382812 9.359375-24.570312 0-33.953125l-36.800781-36.800781c1.007812-2.289063 1.9375-4.503906 2.785156-6.679687h52.015625c13.253906 0 24-10.746094 24-24v-80.023438c0-13.253906-10.746094-24-24-24zm8 104c0 4.417969-3.582031 8-8 8h-57.601562c-3.417969 0-6.457032 2.171875-7.566407 5.40625-1.847656 5.300781-4.003906 10.492188-6.449219 15.546875-1.449218 3.066406-.808593 6.714844 1.601563 9.101563l40.71875 40.722656c1.503906 1.5 2.351563 3.539062 2.351563 5.664062s-.847657 4.160156-2.351563 5.664063l-56.558594 56.558593c-3.171875 3.019532-8.15625 3.019532-11.328125 0l-40.71875-40.71875c-2.390625-2.410156-6.039062-3.050781-9.105468-1.601562-5.054688 2.445312-10.242188 4.597656-15.542969 6.449219-3.265625 1.097656-5.460938 4.164062-5.449219 7.605469v57.601562c0 4.417969-3.582031 8-8 8h-80c-4.417969 0-8-3.582031-8-8v-57.601562c0-3.417969-2.171875-6.457032-5.40625-7.566407-5.300781-1.847656-10.492188-4.003906-15.546875-6.449219-3.066406-1.449218-6.714844-.808593-9.101563 1.601563l-40.722656 40.71875c-3.171875 3.019531-8.152344 3.019531-11.328125 0l-56.558593-56.558594c-1.503907-1.5-2.351563-3.539062-2.351563-5.664062s.847656-4.164063 2.351563-5.664063l40.71875-40.71875c2.410156-2.390625 3.050781-6.039062 1.601562-9.105468-2.445312-5.054688-4.597656-10.242188-6.449219-15.542969-1.097656-3.265625-4.164062-5.460938-7.605469-5.449219h-57.601562c-4.417969 0-8-3.582031-8-8v-80c0-4.417969 3.582031-8 8-8h57.601562c3.417969 0 6.457032-2.171875 7.566407-5.40625 1.847656-5.300781 4.003906-10.492188 6.449219-15.546875 1.449218-3.066406.808593-6.714844-1.601563-9.101563l-40.71875-40.722656c-1.503906-1.5-2.351563-3.539062-2.351563-5.664062s.847657-4.160156 2.351563-5.664063l56.558594-56.558593c3.167969-3.027344 8.160156-3.027344 11.328125 0l40.71875 40.71875c2.390625 2.410156 6.039062 3.050781 9.105468 1.601562 5.054688-2.445312 10.242188-4.597656 15.542969-6.449219 3.265625-1.097656 5.460938-4.164062 5.449219-7.605469v-57.601562c0-4.417969 3.582031-8 8-8h80c4.417969 0 8 3.582031 8 8v57.601562c0 3.417969 2.171875 6.457032 5.40625 7.566407 5.300781 1.847656 10.492188 4.003906 15.546875 6.449219 3.066406 1.449218 6.714844.808593 9.101563-1.601563l40.722656-40.71875c3.171875-3.019531 8.152344-3.019531 11.328125 0l56.558593 56.558594c1.503907 1.5 2.351563 3.539062 2.351563 5.664062s-.847656 4.164063-2.351563 5.664063l-40.71875 40.71875c-2.410156 2.390625-3.050781 6.039062-1.601562 9.105468 2.445312 5.054688 4.597656 10.242188 6.449219 15.542969 1.097656 3.265625 4.164062 5.460938 7.605469 5.449219h57.601562c4.417969 0 8 3.582031 8 8zm0 0"
     id="path4293" />
  <path
     style="fill:#ffffff"
     d="m240 136c-57.4375 0-104 46.5625-104 104s46.5625 104 104 104 104-46.5625 104-104c-.066406-57.410156-46.589844-103.933594-104-104zm0 192c-48.601562 0-88-39.398438-88-88s39.398438-88 88-88 88 39.398438 88 88c-.058594 48.578125-39.421875 87.941406-88 88zm0 0"
     id="path4295" />
  <path
     style="fill:#ffffff;stroke-width:2.71186447"
     d="m 292.61017,454.58907 c -22.68375,-4.29445 -50.77469,-19.56037 -68.36945,-37.15513 -54.76244,-54.76244 -55.20085,-138.87341 -1.00695,-193.18871 27.88913,-27.95162 57.61578,-40.40556 96.30928,-40.34864 26.17047,0.0385 44.03237,4.41529 66.16806,16.21349 19.79926,10.5529 45.89576,36.93307 55.72562,56.33138 27.22098,53.71798 17.56514,117.58029 -24.08121,159.27 -33.53158,33.56647 -78.60296,47.61323 -124.74535,38.87761 z m 55.60604,-20.06505 c 21.65708,-4.9258 44.97193,-18.8871 60.62933,-36.30581 26.40047,-29.37028 35.75491,-74.03603 23.76955,-113.49523 -10.94977,-36.04974 -42.0099,-67.31455 -77.43118,-77.94143 -18.37112,-5.51159 -53.96339,-5.3881 -70.89315,0.24597 -46.39961,15.44139 -78.51952,56.10613 -81.75694,103.50667 -4.08087,59.74998 32.62586,110.53278 89.96393,124.46274 18.99762,4.61536 33.90328,4.48885 55.71846,-0.47291 z"
     id="path4305"
     inkscape:connector-curvature="0"
     transform="scale(0.75)" />
  <path
     style="fill:#ffffff;stroke-width:2.71186447"
     d="m 254.31404,635.56089 c -15.71935,-6.84143 -17.29709,-11.97426 -17.29709,-56.27227 0,-38.00865 -0.28451,-40.13141 -5.77241,-43.06844 -5.22489,-2.79629 -8.38132,-0.48928 -33.27812,24.32279 -28.58302,28.48575 -37.51462,33.62755 -51.68069,29.75186 -8.99737,-2.46161 -88.608906,-79.92821 -95.480168,-92.90771 -7.482777,-14.13462 -3.263279,-22.22471 27.909763,-53.51165 26.003715,-26.09871 28.407575,-29.34449 25.607605,-34.57627 -2.92682,-5.4688 -5.097447,-5.77378 -41.095388,-5.77378 -62.1577104,0 -62.1427962,0.0199 -62.1427962,-82.84531 0,-84.5606 0.5518137,-85.29028 64.5003332,-85.29028 49.883521,0 50.157271,-0.73177 13.817226,-36.93545 -29.207116,-29.09752 -34.539439,-38.65447 -29.718202,-53.26297 3.00352,-9.10076 79.956767,-88.034005 91.561347,-93.917213 7.57235,-3.838975 18.55557,-3.836334 26.11927,0.0062 3.25788,1.65511 17.66951,14.599216 32.02584,28.764678 21.37989,21.095635 27.1449,25.424515 31.86441,23.926605 5.5381,-1.75768 5.76198,-3.41273 5.76198,-42.595142 V 20.610169 l 9.22034,-9.220338 9.22034,-9.2203395 h 62.51647 c 41.46758,0 64.82929,1.0537945 69.38568,3.1298327 13.96423,6.3625228 16.26799,13.8653618 17.76524,57.8573778 1.25225,36.793242 1.85952,40.739208 6.40331,41.607568 3.43083,0.65566 14.36235,-8.24699 34.53377,-28.124351 l 29.5139,-29.083683 12.70593,1.432141 c 12.23221,1.37875 14.34936,3.085475 56.79037,45.781204 27.19764,27.360889 44.79357,47.205749 45.93567,51.806689 3.36068,13.5387 -1.45985,21.81459 -29.01969,49.82107 -36.71389,37.30887 -36.73578,37.25342 15.3977,38.99249 63.09052,2.10457 61.58197,-0.0969 60.44735,88.21215 l -0.81638,63.53944 -7.50961,7.51404 c -7.42959,7.43398 -7.9638,7.52849 -50.13842,8.86996 -54.17245,1.72312 -54.1236,1.62438 -18.65974,37.72065 27.29971,27.7865 32.88987,37.06281 30.38416,50.41937 -2.02096,10.77263 -85.81559,95.17529 -97.83997,98.54991 -14.25291,4.00005 -22.97245,-0.98064 -51.51463,-29.42568 -19.23013,-19.16469 -28.71113,-26.82457 -31.75591,-25.65616 -3.64702,1.39948 -4.48819,8.04721 -5.26345,41.59688 -1.43976,62.30343 -2.08879,62.77836 -85.58143,62.62109 -41.32976,-0.0778 -58.61574,-1.08865 -64.82391,-3.79059 z M 381.2102,615.98647 c 4.40729,-3.98856 4.95929,-9.27455 4.95929,-47.49183 v -43.00371 l 15.16556,-6.70693 c 10.5817,-4.67973 16.52431,-5.9542 19.66102,-4.21652 2.47249,1.36971 16.67596,14.77609 31.56322,29.79195 20.27144,20.44654 28.81226,27.30159 34.01554,27.30159 5.34989,0 16.12033,-9.24632 46.83054,-40.2035 23.87664,-24.06864 39.88277,-42.31707 39.88277,-45.46997 0,-3.09258 -12.31344,-17.54172 -29.83051,-35.0045 -18.74322,-18.68507 -29.78897,-31.77106 -29.71873,-35.208 0.0616,-3.00849 2.80724,-10.96149 6.1017,-17.67336 l 5.98991,-12.20338 43.19791,-0.74929 c 26.22685,-0.45495 44.60507,-1.91713 46.77966,-3.7219 5.20081,-4.31629 5.20081,-119.62271 0,-123.93899 -2.17459,-1.80475 -20.55281,-3.26696 -46.77966,-3.72188 l -43.19791,-0.7493 -5.98991,-12.20339 c -3.29446,-6.71187 -6.04022,-14.66488 -6.1017,-17.67337 -0.0702,-3.43691 10.97551,-16.5229 29.71873,-35.20799 16.40678,-16.3559 29.83051,-31.57501 29.83051,-33.82025 0,-6.28563 -81.68768,-86.857713 -88.06034,-86.857713 -3.27588,0 -17.45405,12.005785 -35.89956,30.398962 l -30.48545,30.398961 -10.23495,-3.57364 c -23.23084,-8.11129 -22.43835,-6.24999 -22.43835,-52.700684 0,-28.9008 -1.02733,-42.858026 -3.3927,-46.092864 -3.0563,-4.179751 -9.44239,-4.567253 -64.40678,-3.908148 L 257.35593,22.508475 256,67.715336 c -0.74576,24.863775 -1.99111,45.837934 -2.76744,46.609244 -2.39058,2.37514 -27.31872,12.59067 -30.72398,12.59067 -1.76618,0 -16.59335,-13.42372 -32.94926,-29.830504 -18.10635,-18.162669 -31.86509,-29.830509 -35.17618,-29.830509 -6.44159,0 -88.213648,80.455233 -88.213648,86.793093 0,2.28078 13.423728,17.52897 29.830508,33.88487 19.40837,19.3482 29.83051,31.76553 29.83051,35.54123 0,3.19177 -2.49778,11.44987 -5.55063,18.35133 l -5.55063,12.54812 H 72.64397 c -23.824428,0 -44.361285,1.21808 -47.330725,2.80728 -4.940238,2.64393 -5.245448,6.25383 -5.245448,62.04083 0,45.77123 0.814042,59.90915 3.581749,62.20613 2.174595,1.80477 20.552824,3.26695 46.779661,3.7219 l 43.197913,0.74929 5.98991,12.20338 c 3.29445,6.71187 6.04022,14.57977 6.1017,17.48426 0.0671,3.17061 -11.80872,17.36299 -29.71873,35.5158 -16.40678,16.62921 -29.830508,32.46633 -29.830508,35.1936 0,5.98305 76.952128,84.29063 84.865058,86.35992 4.33198,1.13282 12.54013,-5.38042 37.30441,-29.60144 C 205.80167,525.97424 220.74602,512 221.54865,512 c 4.64632,0 28.20904,11.80092 31.06152,15.55656 2.36536,3.11427 3.38983,16.84602 3.38983,45.43633 0,28.25224 1.01035,41.98354 3.25424,44.22745 2.32417,2.32418 19.50809,3.25424 60.12545,3.25424 49.11363,0 57.54769,-0.61221 61.83051,-4.48811 z"
     id="path4307"
     inkscape:connector-curvature="0"
     transform="scale(0.75)" />
</svg>
