<?xml version="1.0" encoding="UTF-8" standalone="no"?>
<svg
   xmlns:dc="http://purl.org/dc/elements/1.1/"
   xmlns:cc="http://creativecommons.org/ns#"
   xmlns:rdf="http://www.w3.org/1999/02/22-rdf-syntax-ns#"
   xmlns:svg="http://www.w3.org/2000/svg"
   xmlns="http://www.w3.org/2000/svg"
   xmlns:sodipodi="http://sodipodi.sourceforge.net/DTD/sodipodi-0.dtd"
   xmlns:inkscape="http://www.inkscape.org/namespaces/inkscape"
   inkscape:version="1.0 (6e3e5246a0, 2020-05-07)"
   sodipodi:docname="signout.svg"
   xml:space="preserve"
   style="enable-background:new 0 0 512 512;"
   viewBox="0 0 512 512"
   y="0px"
   x="0px"
   id="Capa_1"
   version="1.1"><metadata
   id="metadata50"><rdf:RDF><cc:Work
       rdf:about=""><dc:format>image/svg+xml</dc:format><dc:type
         rdf:resource="http://purl.org/dc/dcmitype/StillImage" /></cc:Work></rdf:RDF></metadata><defs
   id="defs48" /><sodipodi:namedview
   inkscape:current-layer="Capa_1"
   inkscape:window-maximized="1"
   inkscape:window-y="27"
   inkscape:window-x="67"
   inkscape:cy="296.60996"
   inkscape:cx="154.34169"
   inkscape:zoom="1.7148438"
   showgrid="false"
   id="namedview46"
   inkscape:window-height="1025"
   inkscape:window-width="1853"
   inkscape:pageshadow="2"
   inkscape:pageopacity="0"
   guidetolerance="10"
   gridtolerance="10"
   objecttolerance="10"
   borderopacity="1"
   bordercolor="#666666"
   pagecolor="#ffffff" />
<g
   id="g6">
	<path
   id="path2"
   d="M330.667,384c-5.896,0-10.667,4.771-10.667,10.667v74.667c0,11.76-9.573,21.333-21.333,21.333h-256   c-11.76,0-21.333-9.573-21.333-21.333V42.667c0-11.76,9.573-21.333,21.333-21.333h256c11.76,0,21.333,9.573,21.333,21.333v74.667   c0,5.896,4.771,10.667,10.667,10.667c5.896,0,10.667-4.771,10.667-10.667V42.667C341.333,19.135,322.198,0,298.667,0h-256   C19.135,0,0,19.135,0,42.667v426.667C0,492.865,19.135,512,42.667,512h256c23.531,0,42.667-19.135,42.667-42.667v-74.667   C341.333,388.771,336.563,384,330.667,384z"
   style="fill:#303C42;" />
	<path
   id="path4"
   d="M508.542,248.135l-128-117.333c-4.365-3.979-11.083-3.677-15.073,0.656   c-3.979,4.344-3.688,11.094,0.656,15.073l107.79,98.802H138.667c-5.896,0-10.667,4.771-10.667,10.667   c0,5.896,4.771,10.667,10.667,10.667h335.249l-107.79,98.802c-4.344,3.979-4.635,10.729-0.656,15.073   c2.104,2.292,4.979,3.458,7.865,3.458c2.573,0,5.156-0.927,7.208-2.802l128-117.333C510.75,261.844,512,258.99,512,256   C512,253.01,510.75,250.156,508.542,248.135z"
   style="fill:#303C42;" />
</g>
<linearGradient
   gradientTransform="matrix(21.3333 0 0 -21.3333 996.3334 13791.667)"
   y2="628.3345"
   x2="-25.5203"
   y1="639.416"
   x1="-49.2745"
   gradientUnits="userSpaceOnUse"
   id="SVGID_1_">
	<stop
   id="stop8"
   style="stop-color:#FFFFFF;stop-opacity:0.2"
   offset="0" />
	<stop
   id="stop10"
   style="stop-color:#FFFFFF;stop-opacity:0"
   offset="1" />
</linearGradient>
<path
   id="path13"
   d="M330.667,384c-5.896,0-10.667,4.771-10.667,10.667v74.667c0,11.76-9.573,21.333-21.333,21.333  h-256c-11.76,0-21.333-9.573-21.333-21.333V42.667c0-11.76,9.573-21.333,21.333-21.333h256c11.76,0,21.333,9.573,21.333,21.333  v74.667c0,5.896,4.771,10.667,10.667,10.667c5.896,0,10.667-4.771,10.667-10.667V42.667C341.333,19.135,322.198,0,298.667,0h-256  C19.135,0,0,19.135,0,42.667v426.667C0,492.865,19.135,512,42.667,512h256c23.531,0,42.667-19.135,42.667-42.667v-74.667  C341.333,388.771,336.563,384,330.667,384z M508.542,248.135l-128-117.333c-4.365-3.979-11.083-3.677-15.073,0.656  c-3.979,4.344-3.688,11.094,0.656,15.073l107.79,98.802H138.667c-5.896,0-10.667,4.771-10.667,10.667  c0,5.896,4.771,10.667,10.667,10.667h335.249l-107.79,98.802c-4.344,3.979-4.635,10.729-0.656,15.073  c2.104,2.292,4.979,3.458,7.865,3.458c2.573,0,5.156-0.927,7.208-2.802l128-117.333C510.75,261.844,512,258.99,512,256  C512,253.01,510.75,250.156,508.542,248.135z"
   style="fill:#000055" />
<g
   id="g15">
</g>
<g
   id="g17">
</g>
<g
   id="g19">
</g>
<g
   id="g21">
</g>
<g
   id="g23">
</g>
<g
   id="g25">
</g>
<g
   id="g27">
</g>
<g
   id="g29">
</g>
<g
   id="g31">
</g>
<g
   id="g33">
</g>
<g
   id="g35">
</g>
<g
   id="g37">
</g>
<g
   id="g39">
</g>
<g
   id="g41">
</g>
<g
   id="g43">
</g>
</svg>
