<?xml version="1.0" encoding="UTF-8" standalone="no"?>
<svg
   xmlns:dc="http://purl.org/dc/elements/1.1/"
   xmlns:cc="http://creativecommons.org/ns#"
   xmlns:rdf="http://www.w3.org/1999/02/22-rdf-syntax-ns#"
   xmlns:svg="http://www.w3.org/2000/svg"
   xmlns="http://www.w3.org/2000/svg"
   xmlns:sodipodi="http://sodipodi.sourceforge.net/DTD/sodipodi-0.dtd"
   xmlns:inkscape="http://www.inkscape.org/namespaces/inkscape"
   inkscape:version="1.0 (6e3e5246a0, 2020-05-07)"
   sodipodi:docname="sitemgnt.svg"
   id="svg5014"
   width="966pt"
   viewBox="0 -15 966.25045 966"
   version="1.1"
   height="966pt">
  <metadata
     id="metadata5020">
    <rdf:RDF>
      <cc:Work
         rdf:about="">
        <dc:format>image/svg+xml</dc:format>
        <dc:type
           rdf:resource="http://purl.org/dc/dcmitype/StillImage" />
        <dc:title />
      </cc:Work>
    </rdf:RDF>
  </metadata>
  <defs
     id="defs5018" />
  <sodipodi:namedview
     inkscape:document-rotation="0"
     inkscape:current-layer="svg5014"
     inkscape:window-maximized="1"
     inkscape:window-y="27"
     inkscape:window-x="67"
     inkscape:cy="644"
     inkscape:cx="644"
     inkscape:zoom="0.18322981"
     showgrid="false"
     id="namedview5016"
     inkscape:window-height="1025"
     inkscape:window-width="1853"
     inkscape:pageshadow="2"
     inkscape:pageopacity="0"
     guidetolerance="10"
     gridtolerance="10"
     objecttolerance="10"
     borderopacity="1"
     bordercolor="#666666"
     pagecolor="#ffffff" />
  <g
     style="fill:#ffffff"
     id="surface1">
    <path
       id="path4971"
       style="stroke:none;fill-rule:nonzero;fill:#ffffff;fill-opacity:1"
       d="M 77.921875 841.703125 L 483.125 841.703125 L 483.125 810.527344 L 77.921875 810.527344 C 52.101562 810.527344 31.167969 789.59375 31.167969 763.773438 L 31.167969 78.046875 C 31.167969 52.21875 52.101562 31.292969 77.921875 31.292969 L 763.648438 31.292969 C 789.480469 31.292969 810.402344 52.21875 810.402344 78.046875 L 810.402344 436.492188 L 841.578125 436.492188 L 841.578125 78.046875 C 841.527344 35.03125 806.667969 0.175781 763.648438 0.125 L 77.921875 0.125 C 34.914062 0.175781 0.0546875 35.03125 0 78.046875 L 0 763.773438 C 0.0546875 806.789062 34.914062 841.644531 77.921875 841.703125 Z M 77.921875 841.703125 " />
    <path
       id="path4973"
       style="stroke:none;fill-rule:nonzero;fill:#ffffff;fill-opacity:1"
       d="M 62.34375 62.46875 L 93.507812 62.46875 L 93.507812 93.632812 L 62.34375 93.632812 Z M 62.34375 62.46875 " />
    <path
       id="path4975"
       style="stroke:none;fill-rule:nonzero;fill:#ffffff;fill-opacity:1"
       d="M 124.675781 62.46875 L 155.851562 62.46875 L 155.851562 93.632812 L 124.675781 93.632812 Z M 124.675781 62.46875 " />
    <path
       id="path4977"
       style="stroke:none;fill-rule:nonzero;fill:#ffffff;fill-opacity:1"
       d="M 187.015625 62.46875 L 218.1875 62.46875 L 218.1875 93.632812 L 187.015625 93.632812 Z M 187.015625 62.46875 " />
    <path
       id="path4979"
       style="stroke:none;fill-rule:nonzero;fill:#ffffff;fill-opacity:1"
       d="M 62.34375 124.800781 L 779.234375 124.800781 L 779.234375 155.976562 L 62.34375 155.976562 Z M 62.34375 124.800781 " />
    <path
       id="path4981"
       style="stroke:none;fill-rule:nonzero;fill:#ffffff;fill-opacity:1"
       d="M 222.753906 191.707031 L 183.167969 231.292969 C 149.707031 209.140625 104.898438 215.9375 79.503906 247.015625 C 54.113281 278.089844 56.390625 323.355469 84.765625 351.726562 C 113.136719 380.109375 158.40625 382.386719 189.484375 356.992188 C 220.558594 331.601562 227.359375 286.785156 205.203125 253.332031 L 244.785156 213.746094 Z M 140.257812 342.984375 C 114.441406 342.984375 93.507812 322.054688 93.507812 296.234375 C 93.507812 270.410156 114.441406 249.484375 140.257812 249.484375 C 147.210938 249.507812 154.050781 251.101562 160.289062 254.152344 L 129.246094 285.199219 L 151.277344 307.238281 L 182.34375 276.210938 C 185.394531 282.445312 186.992188 289.285156 187.015625 296.234375 C 187.015625 322.054688 166.089844 342.984375 140.257812 342.984375 Z M 140.257812 342.984375 " />
    <path
       id="path4983"
       style="stroke:none;fill-rule:nonzero;fill:#ffffff;fill-opacity:1"
       d="M 264.941406 249.484375 L 529.875 249.484375 L 529.875 280.648438 L 264.941406 280.648438 Z M 264.941406 249.484375 " />
    <path
       id="path4985"
       style="stroke:none;fill-rule:nonzero;fill:#ffffff;fill-opacity:1"
       d="M 264.941406 311.820312 L 374.03125 311.820312 L 374.03125 342.984375 L 264.941406 342.984375 Z M 264.941406 311.820312 " />
    <path
       id="path4987"
       style="stroke:none;fill-rule:nonzero;fill:#ffffff;fill-opacity:1"
       d="M 405.203125 311.820312 L 623.382812 311.820312 L 623.382812 342.984375 L 405.203125 342.984375 Z M 405.203125 311.820312 " />
    <path
       id="path4989"
       style="stroke:none;fill-rule:nonzero;fill:#ffffff;fill-opacity:1"
       d="M 561.046875 249.484375 L 716.894531 249.484375 L 716.894531 280.648438 L 561.046875 280.648438 Z M 561.046875 249.484375 " />
    <path
       id="path4991"
       style="stroke:none;fill-rule:nonzero;fill:#ffffff;fill-opacity:1"
       d="M 222.753906 378.722656 L 183.167969 418.308594 C 149.707031 396.15625 104.898438 402.953125 79.503906 434.03125 C 54.113281 465.109375 56.390625 510.371094 84.765625 538.75 C 113.136719 567.125 158.40625 569.402344 189.484375 544.007812 C 220.558594 518.613281 227.359375 473.8125 205.203125 440.347656 L 244.785156 400.761719 Z M 140.257812 530.003906 C 114.441406 530.003906 93.507812 509.070312 93.507812 483.25 C 93.507812 457.425781 114.441406 436.492188 140.257812 436.492188 C 147.210938 436.519531 154.050781 438.117188 160.289062 441.167969 L 129.246094 472.222656 L 151.277344 494.253906 L 182.34375 463.222656 C 185.394531 469.460938 186.992188 476.300781 187.015625 483.25 C 187.015625 509.070312 166.089844 530.003906 140.257812 530.003906 Z M 140.257812 530.003906 " />
    <path
       id="path4993"
       style="stroke:none;fill-rule:nonzero;fill:#ffffff;fill-opacity:1"
       d="M 264.941406 436.492188 L 529.875 436.492188 L 529.875 467.664062 L 264.941406 467.664062 Z M 264.941406 436.492188 " />
    <path
       id="path4995"
       style="stroke:none;fill-rule:nonzero;fill:#ffffff;fill-opacity:1"
       d="M 264.941406 498.835938 L 374.03125 498.835938 L 374.03125 530.003906 L 264.941406 530.003906 Z M 264.941406 498.835938 " />
    <path
       id="path4997"
       style="stroke:none;fill-rule:nonzero;fill:#ffffff;fill-opacity:1"
       d="M 405.203125 498.835938 L 529.875 498.835938 L 529.875 530.003906 L 405.203125 530.003906 Z M 405.203125 498.835938 " />
    <path
       id="path4999"
       style="stroke:none;fill-rule:nonzero;fill:#ffffff;fill-opacity:1"
       d="M 561.046875 436.492188 L 623.382812 436.492188 L 623.382812 467.664062 L 561.046875 467.664062 Z M 561.046875 436.492188 " />
    <path
       id="path5001"
       style="stroke:none;fill-rule:nonzero;fill:#ffffff;fill-opacity:1"
       d="M 222.753906 565.738281 L 183.167969 605.324219 C 149.707031 583.171875 104.898438 589.96875 79.503906 621.046875 C 54.113281 652.125 56.390625 697.386719 84.765625 725.765625 C 113.136719 754.144531 158.40625 756.414062 189.484375 731.023438 C 220.558594 705.628906 227.359375 660.824219 205.203125 627.359375 L 244.785156 587.777344 Z M 140.257812 717.019531 C 114.441406 717.019531 93.507812 696.085938 93.507812 670.265625 C 93.507812 644.441406 114.441406 623.511719 140.257812 623.511719 C 147.210938 623.535156 154.050781 625.128906 160.289062 628.183594 L 129.246094 659.238281 L 151.277344 681.269531 L 182.34375 650.238281 C 185.394531 656.476562 186.992188 663.320312 187.015625 670.265625 C 187.015625 696.085938 166.089844 717.019531 140.257812 717.019531 Z M 140.257812 717.019531 " />
    <path
       id="path5003"
       style="stroke:none;fill-rule:nonzero;fill:#ffffff;fill-opacity:1"
       d="M 264.941406 623.511719 L 467.539062 623.511719 L 467.539062 654.6875 L 264.941406 654.6875 Z M 264.941406 623.511719 " />
    <path
       id="path5005"
       style="stroke:none;fill-rule:nonzero;fill:#ffffff;fill-opacity:1"
       d="M 264.941406 685.851562 L 374.03125 685.851562 L 374.03125 717.019531 L 264.941406 717.019531 Z M 264.941406 685.851562 " />
    <path
       id="path5007"
       style="stroke:none;fill-rule:nonzero;fill:#ffffff;fill-opacity:1"
       d="M 405.203125 685.851562 L 467.539062 685.851562 L 467.539062 717.019531 L 405.203125 717.019531 Z M 405.203125 685.851562 " />
    <path
       id="path5009"
       style="stroke:none;fill-rule:nonzero;fill:#ffffff;fill-opacity:1"
       d="M 732.484375 935.210938 C 861.597656 935.210938 966.25 830.539062 966.25 701.4375 C 966.25 572.324219 861.597656 467.664062 732.484375 467.664062 C 603.371094 467.664062 498.710938 572.324219 498.710938 701.4375 C 498.863281 830.480469 603.433594 935.054688 732.484375 935.210938 Z M 732.484375 498.835938 C 844.371094 498.835938 935.085938 589.542969 935.085938 701.4375 C 935.085938 813.332031 844.371094 904.035156 732.484375 904.035156 C 620.585938 904.035156 529.875 813.332031 529.875 701.4375 C 530.007812 589.597656 620.636719 498.960938 732.484375 498.835938 Z M 732.484375 498.835938 " />
    <path
       id="path5011"
       style="stroke:none;fill-rule:nonzero;fill:#ffffff;fill-opacity:1"
       d="M 637.417969 710.050781 L 609.519531 723.980469 L 640.691406 786.320312 C 642.925781 790.804688 647.191406 793.941406 652.140625 794.742188 C 652.945312 794.867188 653.75 794.933594 654.558594 794.945312 C 658.6875 794.945312 662.652344 793.300781 665.582031 790.378906 L 852.589844 603.363281 L 830.558594 581.324219 L 658.824219 753.050781 Z M 637.417969 710.050781 " />
  </g>
  <path
     transform="matrix(0.75019445,0,0,0.75019445,0,-15.125225)"
     inkscape:connector-curvature="0"
     id="path5022"
     d="M 64.945763,1131.7957 C 41.980209,1121.5149 13.906366,1090.4505 7.5495225,1068.2855 4.2186737,1056.6715 2.1830508,870.93883 2.1830508,578.64208 2.1830508,68.964614 1.2213749,86.401261 31.096074,54.405083 61.53963,21.799648 32.942938,23.625554 542.48814,21.75258 c 338.58109,-1.244548 474.62796,0.01703 495.78386,4.597466 37.5851,8.137467 67.324,36.298146 76.401,72.346512 4.3119,17.123962 6.3236,100.738562 6.3236,262.832052 v 237.71885 h -19.1017 -19.1017 V 355.84345 c 0,-210.35318 -1.1688,-245.86721 -8.6081,-261.544375 -17.5465,-36.976422 5.9192,-35.356702 -512.23097,-35.356702 -391.55559,0 -470.352416,1.257831 -485.905922,7.756501 C 38.531671,82.374286 40.386441,55.371756 40.386441,585.87813 v 478.35917 l 18.555932,18.5559 18.555932,18.556 H 359.11186 640.72542 v 19.1016 19.1017 l -279.70339,-0.2134 c -221.96244,-0.1697 -283.083344,-1.7269 -296.076267,-7.5434 z"
     style="fill:#ffffff;stroke-width:5.4576273" />
  <path
     transform="matrix(0.75019445,0,0,0.75019445,0,-15.125225)"
     inkscape:connector-curvature="0"
     id="path5024"
     d="m 84.047458,209.02712 v -19.1017 H 558.86102 1033.6746 v 19.1017 19.10169 H 558.86102 84.047458 Z"
     style="fill:#ffffff;stroke-width:5.4576273" />
  <path
     transform="matrix(0.75019445,0,0,0.75019445,0,-15.125225)"
     inkscape:connector-curvature="0"
     id="path5026"
     d="m 356.92881,372.75593 v -19.10169 h 174.64407 174.64407 v 19.10169 19.1017 H 531.57288 356.92881 Z"
     style="fill:#ffffff;stroke-width:5.4576273" />
  <path
     transform="matrix(0.75019445,0,0,0.75019445,0,-15.125225)"
     inkscape:connector-curvature="0"
     id="path5028"
     d="m 749.87797,372.75593 v -19.10169 h 100.9661 100.9661 v 19.10169 19.1017 h -100.9661 -100.9661 z"
     style="fill:#ffffff;stroke-width:5.4576273" />
  <path
     transform="matrix(0.75019445,0,0,0.75019445,0,-15.125225)"
     inkscape:connector-curvature="0"
     id="path5030"
     d="m 391.03898,475.13256 c 20.26144,-1.05009 53.41653,-1.05009 73.67797,0 20.26144,1.05008 3.6839,1.90923 -36.83898,1.90923 -40.52289,0 -57.10043,-0.85915 -36.83899,-1.90923 z"
     style="fill:#ffffff;stroke-width:5.4576273" />
  <path
     transform="matrix(0.75019445,0,0,0.75019445,0,-15.125225)"
     inkscape:connector-curvature="0"
     id="path5032"
     d="m 612.07288,475.10065 c 39.77246,-0.93249 104.85466,-0.93249 144.62712,0 39.77246,0.93249 7.23136,1.69543 -72.31356,1.69543 -79.54491,0 -112.08602,-0.76294 -72.31356,-1.69543 z"
     style="fill:#ffffff;stroke-width:5.4576273" />
  <path
     transform="matrix(0.75019445,0,0,0.75019445,0,-15.125225)"
     inkscape:connector-curvature="0"
     id="path5034"
     d="m 542.48814,457.34915 v -16.37288 h 141.8983 141.89831 v 16.37288 16.37288 H 684.38644 542.48814 Z"
     style="fill:#ffffff;stroke-width:5.4576273" />
  <path
     transform="matrix(0.75019445,0,0,0.75019445,0,-15.125225)"
     inkscape:connector-curvature="0"
     id="path5036"
     d="m 356.92881,457.34915 v -16.37288 h 68.22034 68.22034 v 16.37288 16.37288 h -68.22034 -68.22034 z"
     style="fill:#ffffff;stroke-width:5.4576273" />
  <path
     transform="matrix(0.75019445,0,0,0.75019445,0,-15.125225)"
     inkscape:connector-curvature="0"
     id="path5038"
     d="m 442.88644,600.62166 c 48.77754,-0.90452 128.59534,-0.90452 177.37288,0 48.77754,0.90452 8.86865,1.64458 -88.68644,1.64458 -97.55508,0 -137.46398,-0.74006 -88.68644,-1.64458 z"
     style="fill:#ffffff;stroke-width:5.4576273" />
  <path
     transform="matrix(0.75019445,0,0,0.75019445,0,-15.125225)"
     inkscape:connector-curvature="0"
     id="path5040"
     d="m 356.92881,623.80678 v -19.1017 h 174.64407 174.64407 v 19.1017 19.10169 H 531.57288 356.92881 Z"
     style="fill:#ffffff;stroke-width:5.4576273" />
  <path
     transform="matrix(0.75019445,0,0,0.75019445,0,-15.125225)"
     inkscape:connector-curvature="0"
     id="path5042"
     d="m 749.87797,623.80678 v -19.1017 h 38.20339 38.20339 v 19.1017 19.10169 h -38.20339 -38.20339 z"
     style="fill:#ffffff;stroke-width:5.4576273" />
  <path
     transform="matrix(0.75019445,0,0,0.75019445,0,-15.125225)"
     inkscape:connector-curvature="0"
     id="path5044"
     d="m 356.92881,705.67119 v -19.1017 h 68.22034 68.22034 v 19.1017 19.10169 h -68.22034 -68.22034 z"
     style="fill:#ffffff;stroke-width:5.4576273" />
  <path
     transform="matrix(0.75019445,0,0,0.75019445,0,-15.125225)"
     inkscape:connector-curvature="0"
     id="path5046"
     d="m 542.48814,705.67119 v -19.1017 h 81.8644 81.86441 v 19.1017 19.10169 h -81.86441 -81.8644 z"
     style="fill:#ffffff;stroke-width:5.4576273" />
  <path
     transform="matrix(0.75019445,0,0,0.75019445,0,-15.125225)"
     inkscape:connector-curvature="0"
     id="path5050"
     d="M 921.79322,1259.8631 C 801.18308,1233.6494 707.92197,1146.491 678.84882,1032.8161 639.40371,878.58713 718.3924,725.43818 867.88595,666.2973 c 34.05847,-13.47382 44.10473,-14.84892 108.48354,-14.84892 64.37881,0 74.42511,1.3751 108.48351,14.84892 149.4936,59.14088 228.4823,212.28983 189.0372,366.5188 -14.2071,55.5489 -37.7082,95.865 -81.6747,140.1124 -36.2675,36.4993 -81.1614,63.6885 -130.7836,79.2072 -31.0109,9.6982 -110.36588,14.0896 -139.63868,7.7274 z m 112.97718,-39.0012 c 123.0187,-25.5757 211.9995,-136.3086 211.6182,-263.35034 -0.2333,-77.74526 -20.308,-131.06706 -69.2437,-183.92351 -67.996,-73.44378 -159.9133,-104.3073 -252.49388,-84.78114 -86.92267,18.33284 -152.86172,69.31953 -192.12706,148.56028 -21.20196,42.78734 -22.8017,49.30056 -25.16602,102.46158 -2.09759,47.16354 -0.57061,63.20353 9.02399,94.79173 40.98163,134.923 178.44923,215.3348 318.38847,186.2414 z"
     style="fill:#ffffff;stroke-width:5.4576273" />
  <path
     transform="matrix(0.75019445,0,0,0.75019445,0,-15.125225)"
     inkscape:connector-curvature="0"
     id="path5052"
     d="m 865.65101,1075.5304 c -3.86297,-1.3824 -16.7532,-21.8646 -28.64496,-45.5162 l -21.62139,-43.00276 16.23617,-8.39605 16.23618,-8.39605 13.86513,27.36152 c 7.62582,15.04884 15.68817,27.36154 17.91634,27.36154 2.22816,0 54.28712,-50.28082 115.68657,-111.73512 l 111.63535,-111.73509 12.6657,11.89879 12.6657,11.89879 -121.6222,122.01223 c -66.89217,67.1067 -125.30604,123.9809 -129.80858,126.387 -4.50255,2.4061 -11.34705,3.2437 -15.21001,1.8614 z"
     style="fill:#ffffff;stroke-width:5.4576273" />
  <path
     transform="matrix(0.75019445,0,0,0.75019445,0,-15.125225)"
     inkscape:connector-curvature="0"
     id="path5054"
     d="m 356.92881,872.12881 v -16.37288 h 130.98305 130.98306 v 16.37288 16.37288 H 487.91186 356.92881 Z"
     style="fill:#ffffff;stroke-width:5.4576273" />
  <path
     transform="matrix(0.75019445,0,0,0.75019445,0,-15.125225)"
     inkscape:connector-curvature="0"
     id="path5056"
     d="m 356.92881,956.72203 v -19.10169 h 68.22034 68.22034 v 19.10169 19.1017 h -68.22034 -68.22034 z"
     style="fill:#ffffff;stroke-width:5.4576273" />
  <path
     transform="matrix(0.75019445,0,0,0.75019445,0,-15.125225)"
     inkscape:connector-curvature="0"
     id="path5058"
     d="m 542.48814,956.72203 v -19.10169 h 38.20339 38.20339 v 19.10169 19.1017 h -38.20339 -38.20339 z"
     style="fill:#ffffff;stroke-width:5.4576273" />
  <path
     transform="matrix(0.75019445,0,0,0.75019445,0,-15.125225)"
     inkscape:connector-curvature="0"
     id="path5060"
     d="M 139.9349,1002.8192 C 112.2267,988.73643 97.698528,969.8364 88.689592,936.153 68.349143,860.10235 150.90429,789.71547 224.41715,820.43111 l 19.95131,8.33618 26.15519,-25.7619 26.1552,-25.76191 13.87579,13.03564 13.87579,13.03563 -27.07719,27.585 c -25.81379,26.29789 -26.71986,28.22162 -19.41878,41.22906 10.73007,19.11646 9.94013,64.4709 -1.51413,86.93399 -24.96084,48.951 -87.08092,68.8663 -136.48543,43.7564 z m 84.21866,-36.29747 c 19.14051,-12.54134 30.39829,-40.88544 25.85593,-65.09832 l -3.61115,-19.24906 -20.00724,19.53655 c -23.13046,22.58629 -27.86392,23.55368 -41.50344,8.48218 -9.79084,-10.81875 -9.57384,-11.49497 10.1804,-31.72515 22.43945,-22.98008 21.3751,-28.16962 -5.77751,-28.16962 -64.71115,0 -91.141602,80.18396 -38.56838,117.00768 16.1001,11.27695 55.66863,10.85435 73.43139,-0.78426 z"
     style="fill:#ffffff;stroke-width:5.4576273" />
  <path
     transform="matrix(0.75019445,0,0,0.75019445,0,-15.125225)"
     inkscape:connector-curvature="0"
     id="path5062"
     d="m 158.63717,761.93043 c -11.50531,-3.14061 -30.28363,-14.6278 -41.72958,-25.52709 -58.690056,-55.88701 -30.47407,-152.65167 49.7696,-170.68123 17.53129,-3.93902 29.69393,-2.97987 52.27349,4.12227 l 29.42626,9.25569 24.29759,-23.84627 24.29759,-23.84628 12.06247,12.06248 12.06248,12.06247 -25.4047,25.95072 c -24.15062,24.66968 -25.02693,26.62423 -17.75209,39.59478 4.20892,7.50423 7.73962,27.27407 7.84599,43.93298 0.4246,66.49904 -62.59991,114.53951 -127.1491,96.91948 z m 60.81498,-42.75508 c 21.5504,-13.13892 35.83441,-43.58173 30.92876,-65.91698 -1.90955,-8.69414 -5.25094,-15.80752 -7.4253,-15.80752 -2.17436,0 -12.27229,8.58294 -22.43986,19.0732 l -18.48647,19.0732 -12.69426,-11.92564 -12.69426,-11.92563 20.52036,-21.01475 c 16.96982,-17.37868 19.11063,-21.906 12.37284,-26.16569 -22.80544,-14.41781 -65.59572,2.47621 -79.27231,31.29748 -27.78738,58.55755 34.44583,116.68923 89.1905,83.31233 z"
     style="fill:#ffffff;stroke-width:5.4576273" />
  <path
     transform="matrix(0.75019445,0,0,0.75019445,0,-15.125225)"
     inkscape:connector-curvature="0"
     id="path5064"
     d=""
     style="fill:#ffffff;stroke-width:5.4576273" />
  <path
     transform="matrix(0.75019445,0,0,0.75019445,0,-15.125225)"
     inkscape:connector-curvature="0"
     id="path5066"
     d="M 146.58439,507.42995 C 70.591027,471.85871 64.300646,370.76342 135.48497,329.04663 c 26.34548,-15.43948 65.96609,-17.92035 93.18961,-5.83511 15.85204,7.03714 17.19839,6.47075 42.32359,-17.80486 l 25.95071,-25.07322 12.07409,12.07409 12.0741,12.0741 -25.07322,25.95071 c -24.27561,25.1252 -24.842,26.47155 -17.80486,42.32359 10.92777,24.61619 9.45616,65.33174 -3.2624,90.26219 -22.97229,45.02939 -82.81959,65.73426 -128.3722,44.41183 z m 83.53474,-46.93263 c 17.7466,-16.26353 20.38595,-21.85742 20.38595,-43.20621 0,-13.48813 -1.88702,-26.41091 -4.1934,-28.71728 -2.30637,-2.30637 -13.50456,4.89869 -24.88485,16.01126 l -20.69145,20.20466 -11.92564,-12.69426 -11.92563,-12.69426 19.0732,-18.48647 c 10.49026,-10.16757 19.0732,-20.17433 19.0732,-22.23727 0,-6.67169 -28.15657,-9.36124 -46.10887,-4.40437 -51.7231,14.28143 -62.54937,86.89452 -17.08877,114.61636 27.01521,16.47384 54.35024,13.54357 78.28626,-8.39216 z"
     style="fill:#ffffff;stroke-width:5.4576273" />
  <path
     transform="matrix(0.75019445,0,0,0.75019445,0,-15.125225)"
     inkscape:connector-curvature="0"
     id="path5068"
     d="m 287.24585,124.4339 c 0,-10.50593 1.12315,-14.80382 2.49589,-9.55085 1.37275,5.25297 1.37275,13.84873 0,19.1017 -1.37274,5.25296 -2.49589,0.95508 -2.49589,-9.55085 z"
     style="fill:#ffffff;stroke-width:5.4576273" />
  <path
     transform="matrix(0.75019445,0,0,0.75019445,0,-15.125225)"
     inkscape:connector-curvature="0"
     id="path5070"
     d="m 205.38144,124.4339 c 0,-10.50593 1.12315,-14.80382 2.4959,-9.55085 1.37274,5.25297 1.37274,13.84873 0,19.1017 -1.37275,5.25296 -2.4959,0.95508 -2.4959,-9.55085 z"
     style="fill:#ffffff;stroke-width:5.4576273" />
  <path
     transform="matrix(0.75019445,0,0,0.75019445,0,-15.125225)"
     inkscape:connector-curvature="0"
     id="path5072"
     d="m 253.2339,124.4339 c 0,-14.55367 1.81921,-16.37288 16.37288,-16.37288 14.55367,0 16.37288,1.81921 16.37288,16.37288 0,14.55367 -1.81921,16.37288 -16.37288,16.37288 -14.55367,0 -16.37288,-1.81921 -16.37288,-16.37288 z"
     style="fill:#ffffff;stroke-width:5.4576273" />
  <path
     transform="matrix(0.75019445,0,0,0.75019445,0,-15.125225)"
     inkscape:connector-curvature="0"
     id="path5074"
     d="m 171.36949,124.4339 c 0,-14.55367 1.81921,-16.37288 16.37288,-16.37288 14.55368,0 16.37288,1.81921 16.37288,16.37288 0,14.55367 -1.8192,16.37288 -16.37288,16.37288 -14.55367,0 -16.37288,-1.81921 -16.37288,-16.37288 z"
     style="fill:#ffffff;stroke-width:5.4576273" />
  <path
     transform="matrix(0.75019445,0,0,0.75019445,0,-15.125225)"
     inkscape:connector-curvature="0"
     id="path5076"
     d="m 84.047458,124.4339 c 0,-15.07345 1.516007,-16.37288 19.101692,-16.37288 17.58569,0 19.1017,1.29943 19.1017,16.37288 0,15.07344 -1.51601,16.37288 -19.1017,16.37288 -17.585685,0 -19.101692,-1.29944 -19.101692,-16.37288 z"
     style="fill:#ffffff;stroke-width:5.4576273" />
</svg>
