<?xml version="1.0" encoding="UTF-8" standalone="no"?>
<svg
   xmlns:dc="http://purl.org/dc/elements/1.1/"
   xmlns:cc="http://creativecommons.org/ns#"
   xmlns:rdf="http://www.w3.org/1999/02/22-rdf-syntax-ns#"
   xmlns:svg="http://www.w3.org/2000/svg"
   xmlns="http://www.w3.org/2000/svg"
   xmlns:sodipodi="http://sodipodi.sourceforge.net/DTD/sodipodi-0.dtd"
   xmlns:inkscape="http://www.inkscape.org/namespaces/inkscape"
   height="966pt"
   version="1.1"
   viewBox="0 -15 966.25045 966"
   width="966pt"
   id="svg1852"
   sodipodi:docname="sitemgntnav.svg"
   inkscape:version="0.92.4 (f8dce91, 2019-08-02)">
  <metadata
     id="metadata1858">
    <rdf:RDF>
      <cc:Work
         rdf:about="">
        <dc:format>image/svg+xml</dc:format>
        <dc:type
           rdf:resource="http://purl.org/dc/dcmitype/StillImage" />
        <dc:title></dc:title>
      </cc:Work>
    </rdf:RDF>
  </metadata>
  <defs
     id="defs1856" />
  <sodipodi:namedview
     pagecolor="#ffffff"
     bordercolor="#666666"
     borderopacity="1"
     objecttolerance="10"
     gridtolerance="10"
     guidetolerance="10"
     inkscape:pageopacity="0"
     inkscape:pageshadow="2"
     inkscape:window-width="1853"
     inkscape:window-height="1025"
     id="namedview1854"
     showgrid="false"
     inkscape:zoom="0.61840062"
     inkscape:cx="644"
     inkscape:cy="644"
     inkscape:window-x="67"
     inkscape:window-y="27"
     inkscape:window-maximized="1"
     inkscape:current-layer="svg1852" />
  <g
     id="surface1">
    <path
       d="M 77.921875 841.703125 L 483.125 841.703125 L 483.125 810.527344 L 77.921875 810.527344 C 52.101562 810.527344 31.167969 789.59375 31.167969 763.773438 L 31.167969 78.046875 C 31.167969 52.21875 52.101562 31.292969 77.921875 31.292969 L 763.648438 31.292969 C 789.480469 31.292969 810.402344 52.21875 810.402344 78.046875 L 810.402344 436.492188 L 841.578125 436.492188 L 841.578125 78.046875 C 841.527344 35.03125 806.667969 0.175781 763.648438 0.125 L 77.921875 0.125 C 34.914062 0.175781 0.0546875 35.03125 0 78.046875 L 0 763.773438 C 0.0546875 806.789062 34.914062 841.644531 77.921875 841.703125 Z M 77.921875 841.703125 "
       style=" stroke:none;fill-rule:nonzero;fill:rgb(0%,0%,0%);fill-opacity:1;"
       id="path1809" />
    <path
       d="M 62.34375 62.46875 L 93.507812 62.46875 L 93.507812 93.632812 L 62.34375 93.632812 Z M 62.34375 62.46875 "
       style=" stroke:none;fill-rule:nonzero;fill:rgb(0%,0%,0%);fill-opacity:1;"
       id="path1811" />
    <path
       d="M 124.675781 62.46875 L 155.851562 62.46875 L 155.851562 93.632812 L 124.675781 93.632812 Z M 124.675781 62.46875 "
       style=" stroke:none;fill-rule:nonzero;fill:rgb(0%,0%,0%);fill-opacity:1;"
       id="path1813" />
    <path
       d="M 187.015625 62.46875 L 218.1875 62.46875 L 218.1875 93.632812 L 187.015625 93.632812 Z M 187.015625 62.46875 "
       style=" stroke:none;fill-rule:nonzero;fill:rgb(0%,0%,0%);fill-opacity:1;"
       id="path1815" />
    <path
       d="M 62.34375 124.800781 L 779.234375 124.800781 L 779.234375 155.976562 L 62.34375 155.976562 Z M 62.34375 124.800781 "
       style=" stroke:none;fill-rule:nonzero;fill:rgb(0%,0%,0%);fill-opacity:1;"
       id="path1817" />
    <path
       d="M 222.753906 191.707031 L 183.167969 231.292969 C 149.707031 209.140625 104.898438 215.9375 79.503906 247.015625 C 54.113281 278.089844 56.390625 323.355469 84.765625 351.726562 C 113.136719 380.109375 158.40625 382.386719 189.484375 356.992188 C 220.558594 331.601562 227.359375 286.785156 205.203125 253.332031 L 244.785156 213.746094 Z M 140.257812 342.984375 C 114.441406 342.984375 93.507812 322.054688 93.507812 296.234375 C 93.507812 270.410156 114.441406 249.484375 140.257812 249.484375 C 147.210938 249.507812 154.050781 251.101562 160.289062 254.152344 L 129.246094 285.199219 L 151.277344 307.238281 L 182.34375 276.210938 C 185.394531 282.445312 186.992188 289.285156 187.015625 296.234375 C 187.015625 322.054688 166.089844 342.984375 140.257812 342.984375 Z M 140.257812 342.984375 "
       style=" stroke:none;fill-rule:nonzero;fill:rgb(0%,0%,0%);fill-opacity:1;"
       id="path1819" />
    <path
       d="M 264.941406 249.484375 L 529.875 249.484375 L 529.875 280.648438 L 264.941406 280.648438 Z M 264.941406 249.484375 "
       style=" stroke:none;fill-rule:nonzero;fill:rgb(0%,0%,0%);fill-opacity:1;"
       id="path1821" />
    <path
       d="M 264.941406 311.820312 L 374.03125 311.820312 L 374.03125 342.984375 L 264.941406 342.984375 Z M 264.941406 311.820312 "
       style=" stroke:none;fill-rule:nonzero;fill:rgb(0%,0%,0%);fill-opacity:1;"
       id="path1823" />
    <path
       d="M 405.203125 311.820312 L 623.382812 311.820312 L 623.382812 342.984375 L 405.203125 342.984375 Z M 405.203125 311.820312 "
       style=" stroke:none;fill-rule:nonzero;fill:rgb(0%,0%,0%);fill-opacity:1;"
       id="path1825" />
    <path
       d="M 561.046875 249.484375 L 716.894531 249.484375 L 716.894531 280.648438 L 561.046875 280.648438 Z M 561.046875 249.484375 "
       style=" stroke:none;fill-rule:nonzero;fill:rgb(0%,0%,0%);fill-opacity:1;"
       id="path1827" />
    <path
       d="M 222.753906 378.722656 L 183.167969 418.308594 C 149.707031 396.15625 104.898438 402.953125 79.503906 434.03125 C 54.113281 465.109375 56.390625 510.371094 84.765625 538.75 C 113.136719 567.125 158.40625 569.402344 189.484375 544.007812 C 220.558594 518.613281 227.359375 473.8125 205.203125 440.347656 L 244.785156 400.761719 Z M 140.257812 530.003906 C 114.441406 530.003906 93.507812 509.070312 93.507812 483.25 C 93.507812 457.425781 114.441406 436.492188 140.257812 436.492188 C 147.210938 436.519531 154.050781 438.117188 160.289062 441.167969 L 129.246094 472.222656 L 151.277344 494.253906 L 182.34375 463.222656 C 185.394531 469.460938 186.992188 476.300781 187.015625 483.25 C 187.015625 509.070312 166.089844 530.003906 140.257812 530.003906 Z M 140.257812 530.003906 "
       style=" stroke:none;fill-rule:nonzero;fill:rgb(0%,0%,0%);fill-opacity:1;"
       id="path1829" />
    <path
       d="M 264.941406 436.492188 L 529.875 436.492188 L 529.875 467.664062 L 264.941406 467.664062 Z M 264.941406 436.492188 "
       style=" stroke:none;fill-rule:nonzero;fill:rgb(0%,0%,0%);fill-opacity:1;"
       id="path1831" />
    <path
       d="M 264.941406 498.835938 L 374.03125 498.835938 L 374.03125 530.003906 L 264.941406 530.003906 Z M 264.941406 498.835938 "
       style=" stroke:none;fill-rule:nonzero;fill:rgb(0%,0%,0%);fill-opacity:1;"
       id="path1833" />
    <path
       d="M 405.203125 498.835938 L 529.875 498.835938 L 529.875 530.003906 L 405.203125 530.003906 Z M 405.203125 498.835938 "
       style=" stroke:none;fill-rule:nonzero;fill:rgb(0%,0%,0%);fill-opacity:1;"
       id="path1835" />
    <path
       d="M 561.046875 436.492188 L 623.382812 436.492188 L 623.382812 467.664062 L 561.046875 467.664062 Z M 561.046875 436.492188 "
       style=" stroke:none;fill-rule:nonzero;fill:rgb(0%,0%,0%);fill-opacity:1;"
       id="path1837" />
    <path
       d="M 222.753906 565.738281 L 183.167969 605.324219 C 149.707031 583.171875 104.898438 589.96875 79.503906 621.046875 C 54.113281 652.125 56.390625 697.386719 84.765625 725.765625 C 113.136719 754.144531 158.40625 756.414062 189.484375 731.023438 C 220.558594 705.628906 227.359375 660.824219 205.203125 627.359375 L 244.785156 587.777344 Z M 140.257812 717.019531 C 114.441406 717.019531 93.507812 696.085938 93.507812 670.265625 C 93.507812 644.441406 114.441406 623.511719 140.257812 623.511719 C 147.210938 623.535156 154.050781 625.128906 160.289062 628.183594 L 129.246094 659.238281 L 151.277344 681.269531 L 182.34375 650.238281 C 185.394531 656.476562 186.992188 663.320312 187.015625 670.265625 C 187.015625 696.085938 166.089844 717.019531 140.257812 717.019531 Z M 140.257812 717.019531 "
       style=" stroke:none;fill-rule:nonzero;fill:rgb(0%,0%,0%);fill-opacity:1;"
       id="path1839" />
    <path
       d="M 264.941406 623.511719 L 467.539062 623.511719 L 467.539062 654.6875 L 264.941406 654.6875 Z M 264.941406 623.511719 "
       style=" stroke:none;fill-rule:nonzero;fill:rgb(0%,0%,0%);fill-opacity:1;"
       id="path1841" />
    <path
       d="M 264.941406 685.851562 L 374.03125 685.851562 L 374.03125 717.019531 L 264.941406 717.019531 Z M 264.941406 685.851562 "
       style=" stroke:none;fill-rule:nonzero;fill:rgb(0%,0%,0%);fill-opacity:1;"
       id="path1843" />
    <path
       d="M 405.203125 685.851562 L 467.539062 685.851562 L 467.539062 717.019531 L 405.203125 717.019531 Z M 405.203125 685.851562 "
       style=" stroke:none;fill-rule:nonzero;fill:rgb(0%,0%,0%);fill-opacity:1;"
       id="path1845" />
    <path
       d="M 732.484375 935.210938 C 861.597656 935.210938 966.25 830.539062 966.25 701.4375 C 966.25 572.324219 861.597656 467.664062 732.484375 467.664062 C 603.371094 467.664062 498.710938 572.324219 498.710938 701.4375 C 498.863281 830.480469 603.433594 935.054688 732.484375 935.210938 Z M 732.484375 498.835938 C 844.371094 498.835938 935.085938 589.542969 935.085938 701.4375 C 935.085938 813.332031 844.371094 904.035156 732.484375 904.035156 C 620.585938 904.035156 529.875 813.332031 529.875 701.4375 C 530.007812 589.597656 620.636719 498.960938 732.484375 498.835938 Z M 732.484375 498.835938 "
       style=" stroke:none;fill-rule:nonzero;fill:rgb(0%,0%,0%);fill-opacity:1;"
       id="path1847" />
    <path
       d="M 637.417969 710.050781 L 609.519531 723.980469 L 640.691406 786.320312 C 642.925781 790.804688 647.191406 793.941406 652.140625 794.742188 C 652.945312 794.867188 653.75 794.933594 654.558594 794.945312 C 658.6875 794.945312 662.652344 793.300781 665.582031 790.378906 L 852.589844 603.363281 L 830.558594 581.324219 L 658.824219 753.050781 Z M 637.417969 710.050781 "
       style=" stroke:none;fill-rule:nonzero;fill:rgb(0%,0%,0%);fill-opacity:1;"
       id="path1849" />
  </g>
  <path
     style="fill:#0066ff;fill-opacity:1;stroke-width:1.61707473"
     d="m 945.69481,1264.4514 c -95.32374,-9.1942 -184.35671,-65.3747 -234.67611,-148.0825 -11.36114,-18.6738 -14.54387,-25.0609 -23.11422,-46.3859 -15.03623,-37.4135 -21.58885,-72.32409 -21.58885,-115.01953 0,-63.87512 16.84349,-119.95836 51.54642,-171.63256 54.59719,-81.29763 139.95882,-131.08584 236.46274,-137.91978 144.49241,-10.23225 277.35821,81.08741 319.31201,219.46557 33.2435,109.64868 3.332,228.8861 -77.76,309.9782 -65.6996,65.6996 -157.4125,98.5443 -250.18199,89.5965 z m 81.98779,-43.471 c 99.9788,-19.7047 180.6475,-93.1728 208.6139,-189.9927 13.3685,-46.28211 13.9539,-99.81532 1.5936,-145.75282 -21.4885,-79.86342 -78.549,-145.97594 -154.1019,-178.54858 -119.63558,-51.57771 -259.65284,-10.33246 -332.07767,97.82098 -30.44876,45.46974 -45.33981,94.76038 -45.45388,150.45619 -0.14683,71.68923 25.23337,135.41043 74.49569,187.03393 43.44051,45.5227 98.30155,73.062 163.70014,82.1747 17.91669,2.4965 63.17502,0.761 83.23012,-3.1917 z"
     id="path2403"
     inkscape:connector-curvature="0"
     transform="matrix(0.75019445,0,0,0.75019445,0,-15.125225)" />
  <path
     style="fill:#0066ff;fill-opacity:1;stroke-width:1.61707473"
     d="m 861.30392,1075.2495 c -2.81098,-2.2111 -11.98704,-18.6901 -25.95723,-46.6157 l -21.6092,-43.19551 17.60284,-8.68531 c 9.68156,-4.77692 17.9076,-8.35918 18.28008,-7.96057 0.37247,0.3986 6.66273,12.73151 13.97833,27.40646 7.31561,14.67493 13.6123,27.01433 13.99264,27.42073 0.38034,0.4065 52.15434,-50.71993 115.05334,-113.61424 l 114.36178,-114.35329 14.1214,14.18711 14.1214,14.18711 -127.3597,127.32169 -127.35966,127.32172 h -7.43898 c -5.12529,0 -8.79133,-1.0638 -11.78704,-3.4202 z"
     id="path2405"
     inkscape:connector-curvature="0"
     transform="matrix(0.75019445,0,0,0.75019445,0,-15.125225)" />
  <path
     style="fill:#0066ff;fill-opacity:1;stroke-width:1.61707473"
     d="M 83.360201,1139.202 C 53.943807,1133.4078 24.699991,1110.6058 11.722489,1083.3448 -0.02542381,1058.6667 0.88939109,1101.1207 0.88939109,580.61067 0.88939109,129.51476 1.0161193,108.78672 3.834794,98.851718 10.306135,76.042145 24.296557,55.303363 42.0038,42.271678 54.424675,33.130505 58.647291,30.86456 72.849215,25.719369 L 83.360201,21.911362 555.16759,21.49091 c 525.62731,-0.468415 483.48051,-1.377695 508.52791,10.971034 21.1777,10.440954 39.2545,29.295848 48.7976,50.898257 8.4738,19.181749 8.1709,9.097256 8.1966,272.881359 l 0.024,245.39108 h -20.1981 -20.1982 l -0.4195,-247.00816 -0.4196,-247.00816 -4.6477,-10.062041 C 1069.1359,85.225712 1056.517,72.796635 1043.5027,66.69768 l -9.3025,-4.35945 -469.71304,-0.415192 C 139.42583,61.547315 93.924034,61.751967 85.832944,64.075862 67.303931,69.397704 52.593713,82.921395 45.072123,101.54892 l -3.755864,9.30155 -0.417975,466.43325 c -0.456036,508.90688 -1.010226,476.41908 8.400444,492.45218 5.893751,10.0412 16.840866,19.921 28.367256,25.6013 l 10.476533,5.163 277.767033,0.4268 277.76704,0.4269 v 20.1908 20.1909 l -274.49844,-0.152 C 142.9189,1141.4584 92.690479,1141.0399 83.360201,1139.202 Z"
     id="path2407"
     inkscape:connector-curvature="0"
     transform="matrix(0.75019445,0,0,0.75019445,0,-15.125225)" />
  <path
     style="fill:#0066ff;fill-opacity:1;stroke-width:1.61707473"
     d="m 169.8737,1016.1106 c -40.41689,-6.6967 -75.625333,-40.39319 -84.166275,-80.55203 -11.86266,-55.7773 25.649625,-112.3722 81.478645,-122.92707 6.97102,-1.31792 15.91582,-2.39622 19.87734,-2.39622 12.63409,0 31.73404,4.83317 45.05675,11.40143 l 12.9257,6.37253 26.27968,-26.24348 26.27968,-26.24347 13.76277,13.69127 13.76276,13.69128 -26.16472,26.20082 -26.16474,26.20083 6.57272,14.25285 c 7.91399,17.16134 10.17094,27.1008 10.13931,44.65258 -0.0522,28.99111 -9.45296,51.17264 -30.64293,72.30375 -15.44568,15.40273 -27.47051,22.28153 -48.23378,27.59183 -11.28814,2.887 -29.90617,3.8019 -40.76291,2.0031 z m 38.80979,-43.2759 c 23.55478,-8.23188 40.59585,-32.75859 40.69711,-58.57415 0.0426,-10.85097 -3.90481,-28.02276 -6.44174,-28.02276 -0.5832,0 -10.17964,9.09902 -21.32541,20.22005 l -20.26503,20.22006 -13.68603,-13.7575 -13.68602,-13.75749 19.77917,-19.82678 c 10.87855,-10.90473 19.77917,-20.64506 19.77917,-21.64519 0,-1.00014 -4.70607,-3.0923 -10.45795,-4.64926 -28.86623,-7.81373 -59.11708,5.9342 -72.37813,32.89326 -4.96551,10.09464 -5.29449,11.82238 -5.29449,27.80621 0,15.99332 0.32667,17.70606 5.30494,27.81434 11.2022,22.74585 34.15474,36.09156 59.37805,34.52522 6.22574,-0.38661 14.5941,-1.84731 18.59636,-3.24601 z"
     id="path2409"
     inkscape:connector-curvature="0"
     transform="matrix(0.75019445,0,0,0.75019445,0,-15.125225)" />
  <path
     style="fill:#0066ff;fill-opacity:1;stroke-width:1.61707473"
     d="M 168.46483,766.47944 C 147.95069,762.81369 127.45897,751.3881 111.6851,734.82072 73.022587,694.21329 74.315145,630.65588 114.60552,591.2185 c 18.37568,-17.98664 40.71585,-27.87774 66.5877,-29.48168 17.6882,-1.09659 33.97783,2.26563 50.48258,10.41974 l 12.48131,6.16635 26.30332,-26.3396 26.30331,-26.33959 14.1825,14.1168 14.18252,14.11681 -26.13778,26.17383 -26.13776,26.17383 5.8509,11.85323 c 8.52256,17.26573 11.30337,30.98019 10.43658,51.47156 -0.53848,12.73022 -1.7602,19.93614 -4.88196,28.79491 -10.85973,30.81709 -37.80116,56.43044 -69.10695,65.70029 -10.99221,3.25486 -35.06985,4.51038 -46.68696,2.43446 z m 30.84089,-40.53318 c 29.87661,-6.33916 49.8868,-30.62814 50.05553,-60.75891 0.0606,-10.8181 -3.87861,-27.97906 -6.42239,-27.97906 -0.5832,0 -10.17919,9.09857 -21.32441,20.21905 l -20.26403,20.21906 -14.11743,-14.18314 -14.11743,-14.18314 20.20958,-20.16106 c 11.11527,-11.08857 20.20957,-20.6974 20.20957,-21.35295 0,-2.955 -18.68043,-6.49734 -30.61901,-5.80622 -22.73649,1.31619 -42.04419,14.26431 -52.27016,35.0534 -4.90264,9.9669 -5.2414,11.75459 -5.2414,27.66006 0,15.5425 0.4087,17.8369 4.75359,26.6863 8.39604,17.10055 23.81214,29.58453 42.14158,34.12633 10.45856,2.59149 16.47845,2.69409 27.00641,0.46028 z"
     id="path2411"
     inkscape:connector-curvature="0"
     transform="matrix(0.75019445,0,0,0.75019445,0,-15.125225)" />
  <path
     style="fill:#0066ff;fill-opacity:1;stroke-width:1.61707473"
     d="m 175.53346,518.24537 c -1.77878,-0.40284 -7.23641,-1.51499 -12.12806,-2.47142 C 128.41011,508.93151 95.70143,476.72831 86.366044,439.92517 84.89964,434.14413 83.686532,423.22888 83.670248,415.66905 83.505441,339.15809 163.90491,289.02859 232.45601,322.90033 l 12.062,5.95995 26.16272,-26.12668 26.16273,-26.12668 14.13155,14.13156 14.13157,14.13156 -26.24779,26.28401 -26.24779,26.284 5.25745,9.5633 c 10.7952,19.63647 14.73354,50.44451 9.22709,72.17981 -9.00628,35.54998 -36.22361,64.42492 -70.59154,74.89077 -10.50329,3.19849 -34.48764,5.64165 -40.97054,4.17344 z m 34.36621,-44.68629 c 23.42745,-8.6736 39.34368,-31.62419 39.53548,-57.00868 0.0841,-11.13419 -1.97963,-21.89497 -5.13114,-26.75454 -1.26698,-1.95368 -5.5986,1.58692 -22.26332,18.19771 l -20.69027,20.62332 -14.11743,-14.18314 -14.11743,-14.18314 20.20958,-20.16105 c 11.11527,-11.08858 20.20957,-20.65925 20.20957,-21.26817 0,-3.09325 -16.99576,-6.51442 -29.60801,-5.95995 -23.30729,1.02465 -42.32522,13.30602 -53.43753,34.5088 -4.80577,9.16963 -5.08503,10.6793 -5.08503,27.49027 0,16.3934 0.3715,18.54566 4.73896,27.45501 14.51173,29.60304 48.36648,42.86519 79.75657,31.24356 z"
     id="path2413"
     inkscape:connector-curvature="0"
     transform="matrix(0.75019445,0,0,0.75019445,0,-15.125225)" />
  <path
     style="fill:#0066ff;fill-opacity:1;stroke-width:1.61707473"
     d="M 84.168738,207.87495 V 187.66152 H 561.20578 1038.2428 v 20.21343 20.21344 H 561.20578 84.168738 Z"
     id="path2415"
     inkscape:connector-curvature="0"
     transform="matrix(0.75019445,0,0,0.75019445,0,-15.125225)" />
  <path
     style="fill:#0066ff;fill-opacity:1;stroke-width:1.61707473"
     d="m 354.22021,373.62511 v -19.4049 h 175.45261 175.4526 v 19.4049 19.4049 H 529.67282 354.22021 Z"
     id="path2417"
     inkscape:connector-curvature="0"
     transform="matrix(0.75019445,0,0,0.75019445,0,-15.125225)" />
  <path
     style="fill:#0066ff;fill-opacity:1;stroke-width:1.61707473"
     d="m 748.78644,373.62511 v -19.4049 h 102.68424 102.68425 v 19.4049 19.4049 H 851.47068 748.78644 Z"
     id="path2419"
     inkscape:connector-curvature="0"
     transform="matrix(0.75019445,0,0,0.75019445,0,-15.125225)" />
  <path
     style="fill:#0066ff;fill-opacity:1;stroke-width:1.61707473"
     d="m 540.1838,456.90446 v -20.21344 h 144.72819 144.72819 v 20.21344 20.21343 H 684.91199 540.1838 Z"
     id="path2421"
     inkscape:connector-curvature="0"
     transform="matrix(0.75019445,0,0,0.75019445,0,-15.125225)" />
  <path
     style="fill:#0066ff;fill-opacity:1;stroke-width:1.61707473"
     d="m 354.22021,456.90446 v -20.21344 h 71.95983 71.95982 v 20.21344 20.21343 h -71.95982 -71.95983 z"
     id="path2423"
     inkscape:connector-curvature="0"
     transform="matrix(0.75019445,0,0,0.75019445,0,-15.125225)" />
  <path
     style="fill:#0066ff;fill-opacity:1;stroke-width:1.61707473"
     d="m 354.22021,622.65461 v -19.40489 h 175.45261 175.4526 v 19.40489 19.4049 H 529.67282 354.22021 Z"
     id="path2425"
     inkscape:connector-curvature="0"
     transform="matrix(0.75019445,0,0,0.75019445,0,-15.125225)" />
  <path
     style="fill:#0066ff;fill-opacity:1;stroke-width:1.61707473"
     d="m 748.78644,622.65461 v -19.40489 h 40.42687 40.42687 v 19.40489 19.4049 h -40.42687 -40.42687 z"
     id="path2427"
     inkscape:connector-curvature="0"
     transform="matrix(0.75019445,0,0,0.75019445,0,-15.125225)" />
  <path
     style="fill:#0066ff;fill-opacity:1;stroke-width:1.61707473"
     d="m 540.1838,705.93396 v -20.21343 h 82.47081 82.47081 v 20.21343 20.21343 H 622.65461 540.1838 Z"
     id="path2429"
     inkscape:connector-curvature="0"
     transform="matrix(0.75019445,0,0,0.75019445,0,-15.125225)" />
  <path
     style="fill:#0066ff;fill-opacity:1;stroke-width:1.61707473"
     d="m 354.22021,705.93396 v -20.21343 h 71.95983 71.95982 v 20.21343 20.21343 h -71.95982 -71.95983 z"
     id="path2431"
     inkscape:connector-curvature="0"
     transform="matrix(0.75019445,0,0,0.75019445,0,-15.125225)" />
  <path
     style="fill:#0066ff;fill-opacity:1;stroke-width:1.61707473"
     d="m 354.22021,872.49266 v -20.21344 h 134.2172 134.2172 v 20.21344 20.21343 h -134.2172 -134.2172 z"
     id="path2433"
     inkscape:connector-curvature="0"
     transform="matrix(0.75019445,0,0,0.75019445,0,-15.125225)" />
  <path
     style="fill:#0066ff;fill-opacity:1;stroke-width:1.61707473"
     d="m 354.22021,954.96347 v -20.21344 h 71.95983 71.95982 v 20.21344 20.21343 h -71.95982 -71.95983 z"
     id="path2435"
     inkscape:connector-curvature="0"
     transform="matrix(0.75019445,0,0,0.75019445,0,-15.125225)" />
  <path
     style="fill:#0066ff;fill-opacity:1;stroke-width:1.61707473"
     d="m 540.1838,954.96347 v -20.21344 h 41.23541 41.2354 v 20.21344 20.21343 h -41.2354 -41.23541 z"
     id="path2437"
     inkscape:connector-curvature="0"
     transform="matrix(0.75019445,0,0,0.75019445,0,-15.125225)" />
  <path
     style="fill:#0066ff;fill-opacity:1;stroke-width:1.61707473"
     d="m 84.168738,123.78707 v -20.21344 h 20.213432 20.21344 v 20.21344 20.21343 H 104.38217 84.168738 Z"
     id="path2439"
     inkscape:connector-curvature="0"
     transform="matrix(0.75019445,0,0,0.75019445,0,-15.125225)" />
  <path
     style="fill:#0066ff;fill-opacity:1;stroke-width:1.61707473"
     d="m 207.69471,123.78707 c 0.003,-11.56209 0.2604,-16.07985 0.57238,-10.03947 0.31198,6.04038 0.30966,15.50027 -0.005,21.02197 -0.31481,5.52171 -0.57007,0.57958 -0.56724,-10.9825 z"
     id="path2441"
     inkscape:connector-curvature="0"
     transform="matrix(0.75019445,0,0,0.75019445,0,-15.125225)" />
  <path
     style="fill:#0066ff;fill-opacity:1;stroke-width:1.61707473"
     d="m 166.63955,123.78707 v -20.21344 h 20.21343 20.21344 v 20.21344 20.21343 h -20.21344 -20.21343 z"
     id="path2443"
     inkscape:connector-curvature="0"
     transform="matrix(0.75019445,0,0,0.75019445,0,-15.125225)" />
  <path
     style="fill:#0066ff;fill-opacity:1;stroke-width:1.61707473"
     d="m 250.72743,123.78707 v -20.21344 h 19.4049 19.4049 v 20.21344 20.21343 h -19.4049 -19.4049 z"
     id="path2445"
     inkscape:connector-curvature="0"
     transform="matrix(0.75019445,0,0,0.75019445,0,-15.125225)" />
</svg>
