<?xml version="1.0" encoding="UTF-8" standalone="no"?>
<svg
   xmlns:dc="http://purl.org/dc/elements/1.1/"
   xmlns:cc="http://creativecommons.org/ns#"
   xmlns:rdf="http://www.w3.org/1999/02/22-rdf-syntax-ns#"
   xmlns:svg="http://www.w3.org/2000/svg"
   xmlns="http://www.w3.org/2000/svg"
   xmlns:sodipodi="http://sodipodi.sourceforge.net/DTD/sodipodi-0.dtd"
   xmlns:inkscape="http://www.inkscape.org/namespaces/inkscape"
   inkscape:version="1.0 (6e3e5246a0, 2020-05-07)"
   sodipodi:docname="staffmgnt.svg"
   xml:space="preserve"
   style="enable-background:new 0 0 480.001 480.001;"
   viewBox="0 0 480.001 480.001"
   y="0px"
   x="0px"
   id="Capa_1"
   version="1.1"><metadata
   id="metadata4148"><rdf:RDF><cc:Work
       rdf:about=""><dc:format>image/svg+xml</dc:format><dc:type
         rdf:resource="http://purl.org/dc/dcmitype/StillImage" /><dc:title /></cc:Work></rdf:RDF></metadata><defs
   id="defs4146" /><sodipodi:namedview
   inkscape:document-rotation="0"
   inkscape:current-layer="Capa_1"
   inkscape:window-maximized="1"
   inkscape:window-y="27"
   inkscape:window-x="67"
   inkscape:cy="240.0005"
   inkscape:cx="240.0005"
   inkscape:zoom="1.7583296"
   showgrid="false"
   id="namedview4144"
   inkscape:window-height="1025"
   inkscape:window-width="1853"
   inkscape:pageshadow="2"
   inkscape:pageopacity="0"
   guidetolerance="10"
   gridtolerance="10"
   objecttolerance="10"
   borderopacity="1"
   bordercolor="#666666"
   pagecolor="#ffffff" />
<g
   style="fill:#ffffff"
   id="g4111">
	<g
   style="fill:#ffffff"
   id="g4109">
		<g
   style="fill:#ffffff"
   id="g4107">
			<path
   style="fill:#ffffff"
   id="path4091"
   d="M472,0H112c-4.418,0-8,3.582-8,8v120h16V16h344v440c0.077,4.207-3.169,7.731-7.368,8c-0.688,0-1.376-0.056-2.064-0.072     c-1.416-0.04-2.832-0.072-4.224-0.216c-0.12,0-0.232,0-0.352-0.048c-26.128-2.856-46.767-23.475-49.648-49.6     c0-0.112-0.04-0.232-0.056-0.344c-0.194-1.901-0.29-3.81-0.288-5.72v-16c0-4.418-3.582-8-8-8H120V240h-16v144H40     c-4.418,0-8,3.582-8,8v16c0.044,39.746,32.254,71.956,72,72h352.8c12.982-0.34,23.3-11.014,23.2-24V8C480,3.582,476.418,0,472,0z      M104,464c-30.913-0.035-55.965-25.087-56-56v-8h336v8c0.011,2.638,0.163,5.274,0.456,7.896c0.072,0.696,0.208,1.368,0.304,2.056     c0.264,1.936,0.584,3.864,1.008,5.76c0.144,0.664,0.328,1.32,0.496,1.984c0.488,1.928,1.04,3.824,1.68,5.696     c0.184,0.536,0.376,1.064,0.576,1.6c0.728,1.984,1.552,3.92,2.456,5.832c0.192,0.392,0.368,0.8,0.56,1.16     c1.003,2.027,2.104,3.997,3.304,5.912c0.16,0.256,0.304,0.52,0.464,0.8c1.304,2.043,2.712,4.019,4.216,5.92l0.256,0.344     c1.746,2.193,3.616,4.284,5.6,6.264c1.723,1.707,3.509,3.307,5.36,4.8L104,464z" />
			<path
   style="fill:#ffffff"
   id="path4093"
   d="M264,224c2.122,0,4.156-0.844,5.656-2.344l32-32c3.123-3.124,3.123-8.188,0-11.312l-32-32     c-1.5-1.5-3.534-2.344-5.656-2.344H40c-22.091,0-40,17.909-40,40s17.909,40,40,40H264z M261.936,161.248L284.688,184     l-22.752,22.752L256.248,184L261.936,161.248z M64,160h181.76l-4,16H80v16h161.76l4,16H64V160z M16,184c0-13.255,10.745-24,24-24     h8v48h-8C26.745,208,16,197.255,16,184z" />
			<path
   style="fill:#ffffff"
   id="path4095"
   d="M184,344h240c4.418,0,8-3.582,8-8V96c-0.001-4.418-3.583-7.999-8.002-7.998c-2.121,0-4.154,0.843-5.654,2.342l-240,240     c-3.124,3.125-3.123,8.19,0.002,11.314C179.846,343.157,181.879,344,184,344z M416,115.312V136h-16v16h16v16h-16v16h16v16h-16v16     h16v16h-16v16h16v16h-16v16h16v16h-16v16h16v16h-16v-16h-16v16h-16v-16h-16v16h-16v-16h-16v16h-16v-16h-16v16h-16v-16h-16v16h-16     v-16h-16v16h-20.688L416,115.312z" />
			<path
   style="fill:#ffffff"
   id="path4097"
   d="M299.88,296H376c4.418,0,8-3.582,8-8v-76.12c-0.001-4.418-3.583-7.999-8.002-7.998c-2.121,0-4.154,0.843-5.654,2.342     l-76.12,76.12c-3.124,3.125-3.123,8.19,0.002,11.314C295.726,295.157,297.759,296,299.88,296z M368,231.2V280h-48.8L368,231.2z" />
			<rect
   style="fill:#ffffff"
   id="rect4099"
   height="16"
   width="160"
   y="48"
   x="208" />
			<rect
   style="fill:#ffffff"
   id="rect4101"
   height="16"
   width="208"
   y="80"
   x="184" />
			<rect
   style="fill:#ffffff"
   id="rect4103"
   height="16"
   width="48"
   y="248"
   x="136" />
			<rect
   style="fill:#ffffff"
   id="rect4105"
   height="16"
   width="32"
   y="280"
   x="136" />
		</g>
	</g>
</g>
<g
   style="fill:#ffffff"
   id="g4113">
</g>
<g
   style="fill:#ffffff"
   id="g4115">
</g>
<g
   style="fill:#ffffff"
   id="g4117">
</g>
<g
   style="fill:#ffffff"
   id="g4119">
</g>
<g
   style="fill:#ffffff"
   id="g4121">
</g>
<g
   style="fill:#ffffff"
   id="g4123">
</g>
<g
   style="fill:#ffffff"
   id="g4125">
</g>
<g
   style="fill:#ffffff"
   id="g4127">
</g>
<g
   style="fill:#ffffff"
   id="g4129">
</g>
<g
   style="fill:#ffffff"
   id="g4131">
</g>
<g
   style="fill:#ffffff"
   id="g4133">
</g>
<g
   style="fill:#ffffff"
   id="g4135">
</g>
<g
   style="fill:#ffffff"
   id="g4137">
</g>
<g
   style="fill:#ffffff"
   id="g4139">
</g>
<g
   style="fill:#ffffff"
   id="g4141">
</g>
<path
   inkscape:connector-curvature="0"
   id="path4150"
   d="m 34.411401,223.30221 c -8.558685,-1.2239 -16.273565,-5.17446 -22.52512,-11.53445 -21.7342979,-22.1113 -11.37634198,-58.57921 18.832672,-66.30537 4.290175,-1.09724 6.813342,-1.12085 119.770247,-1.12085 99.11917,0 115.60427,0.11499 116.92349,0.81563 0.84466,0.4486 9.14946,8.44777 18.45511,17.77594 18.04309,18.08676 18.59959,18.8151 17.49222,22.89373 -0.77979,2.87215 -34.60916,36.72657 -37.53904,37.56685 -2.56178,0.7347 -226.250411,0.64627 -231.409579,-0.0915 z m 13.5887,-39.43453 v -24.17066 h -5.283367 c -8.239077,0 -13.993843,1.88651 -18.725014,6.13839 -5.971709,5.36674 -9.136062,13.78549 -7.98258,21.23762 1.092515,7.05825 4.657593,12.98227 10.041521,16.68579 4.784914,3.29147 8.232095,4.23554 15.551322,4.25901 l 6.398118,0.0205 z m 197.915109,23.84719 c 0,-0.30135 -2.20003,-9.21249 -3.46547,-14.03674 l -0.55943,-2.1327 H 161.15378 80.41723 v -7.67775 -7.67774 h 80.73655 80.73653 l 0.55943,-2.1327 c 1.26544,-4.82425 3.46547,-13.73539 3.46547,-14.03675 0,-0.17791 -40.94796,-0.32347 -90.99545,-0.32347 H 63.924305 v 24.17066 24.17067 h 90.995455 c 50.04749,0 90.99545,-0.14556 90.99545,-0.32348 z m 38.67306,-23.84719 c 0,-0.87769 -22.56152,-23.23442 -22.87823,-22.67055 -0.15149,0.26973 -1.50793,5.47096 -3.01431,11.55829 l -2.73887,11.06788 2.73564,11.11226 c 1.5046,6.11175 2.86104,11.33295 3.01431,11.60268 0.31985,0.56286 22.88146,-21.7908 22.88146,-22.67056 z"
   style="fill:#ffffff;stroke-width:0.56872159" /><path
   inkscape:connector-curvature="0"
   id="path4152"
   d="M 98.33196,479.51905 C 79.854208,477.37701 65.449974,470.66187 53.402956,458.5735 45.084928,450.22692 39.109438,440.39684 35.590635,429.27104 c -2.591177,-8.19281 -3.230378,-13.59909 -3.230378,-27.3221 0,-13.58436 0.150734,-14.22684 3.869772,-16.49448 1.746413,-1.06486 3.11218,-1.10825 34.945476,-1.11029 l 33.128035,-0.002 v -71.94328 -71.94328 h 7.67774 7.67774 v 71.94328 71.94328 l 137.20408,0.002 c 135.07749,0.002 137.2323,0.0193 139.02481,1.1123 3.13,1.90847 3.57986,3.52405 3.60128,12.93319 0.0358,15.73586 1.46903,24.5165 5.38526,32.99266 8.94628,19.36305 28.34894,32.25691 49.10787,32.63417 5.35307,0.0973 7.56711,-0.89821 9.23865,-4.154 1.0598,-2.06438 1.08332,-6.90796 1.08332,-223.08118 V 15.81046 H 291.98166 119.65902 v 56.019075 56.019075 h -7.67774 -7.67774 V 67.261495 c 0,-66.71168166 -0.17757,-63.3999756 3.52028,-65.6544956 1.87788,-1.14490931 2.33692,-1.14777032 184.15784,-1.14777032 179.78148,0 182.30017,0.0151888 184.09599,1.11016692 1.00141,0.6105918 2.21862,1.8795826 2.70492,2.8199796 0.79616,1.5395997 0.86967,24.4040084 0.73851,229.6760144 l -0.14567,227.9662 -2.14173,4.33348 c -3.38439,6.84778 -9.52628,11.56763 -16.84588,12.94551 -2.81996,0.53086 -357.5132,0.73508 -362.05584,0.20847 z m 312.5125,-15.22059 c 0,-0.12833 -2.37004,-2.6236 -5.26675,-5.54504 -14.16907,-14.29002 -21.46316,-32.53348 -21.46316,-53.68217 v -5.37373 H 216.05733 48.000101 v 7.34335 c 0,16.68742 5.014401,29.17696 16.275272,40.53736 9.377209,9.4601 21.54693,15.21875 34.625308,16.38453 4.706709,0.41955 311.943779,0.75018 311.943779,0.3357 z"
   style="fill:#ffffff;stroke-width:0.56872159" /><path
   inkscape:connector-curvature="0"
   id="path4154"
   d="M 184.49328,88.038099 V 80.075997 H 288.0006 391.50793 v 7.962102 7.962102 H 288.0006 184.49328 Z"
   style="fill:#ffffff;stroke-width:0.56872159" /><path
   inkscape:connector-curvature="0"
   id="path4156"
   d="m 208.37958,55.905331 v -7.677742 h 79.62102 79.62102 v 7.677742 7.677741 H 288.0006 208.37958 Z"
   style="fill:#ffffff;stroke-width:0.56872159" /><path
   inkscape:connector-curvature="0"
   id="path4158"
   d="m 136.15194,287.94373 v -7.67774 h 15.92421 15.9242 v 7.67774 7.67774 h -15.9242 -15.92421 z"
   style="fill:#ffffff;stroke-width:0.56872159" /><path
   inkscape:connector-curvature="0"
   id="path4160"
   d="m 136.15194,256.09532 v -7.67774 h 23.88631 23.88631 v 7.67774 7.67775 h -23.88631 -23.88631 z"
   style="fill:#ffffff;stroke-width:0.56872159" /><path
   inkscape:connector-curvature="0"
   id="path4166"
   d="m 181.93403,343.33879 c -5.32345,-1.64354 -7.16458,-7.64047 -3.75448,-12.22907 0.9066,-1.21992 55.61051,-56.13394 121.56423,-122.03115 101.08181,-100.9952 120.25083,-119.902306 122.04857,-120.380953 4.5561,-1.213057 9.15423,1.757959 9.80371,6.334531 0.18654,1.314421 0.26437,56.645892 0.17295,122.958832 -0.16175,117.33506 -0.19517,120.6117 -1.24593,122.16202 -0.59384,0.87618 -1.87346,2.02784 -2.8436,2.55925 -1.64255,0.89973 -10.09745,0.97263 -122.90159,1.05975 -73.00602,0.0564 -121.81561,-0.11575 -122.84386,-0.43321 z m 42.36976,-23.26229 v -7.9621 h 7.67774 7.67774 v 7.9621 7.9621 h 8.24646 8.24647 v -7.9621 -7.9621 h 7.67774 7.67774 v 7.9621 7.9621 h 8.24646 8.24646 v -7.9621 -7.9621 h 7.96211 7.9621 v 7.9621 7.9621 h 8.24646 8.24646 v -7.9621 -7.9621 h 7.67775 7.67774 v 7.9621 7.9621 h 8.24646 8.24646 v -7.9621 -7.9621 h 7.67774 7.67774 v 7.9621 7.9621 h 8.24647 8.24646 v -7.9621 -7.9621 h 7.67774 7.67774 v 7.9621 7.9621 h 8.54644 8.54644 l -0.15779,-8.10428 -0.1578,-8.10428 -8.10428,-0.1578 -8.10429,-0.15779 v -7.66213 -7.66213 h 8.26208 8.26208 l -0.15779,-8.10428 -0.1578,-8.10428 -8.10428,-0.1578 -8.10429,-0.15779 v -7.64651 -7.64651 l 8.10429,-0.1578 8.10428,-0.15779 0.1578,-8.10429 0.15779,-8.10428 h -8.26208 -8.26208 v -7.66212 -7.66213 l 8.10429,-0.15779 8.10428,-0.1578 0.1578,-8.10428 0.15779,-8.10429 h -8.26208 -8.26208 v -7.9621 -7.9621 h 8.26208 8.26208 l -0.15779,-8.10428 -0.1578,-8.10429 -8.10428,-0.15779 -8.10429,-0.15779 v -7.66213 -7.66213 h 8.26208 8.26208 l -0.15779,-8.10428 -0.1578,-8.10428 -8.10428,-0.1578 -8.10429,-0.15779 v -7.64652 -7.64651 l 8.10429,-0.15779 8.10428,-0.1578 0.15501,-10.37917 c 0.0853,-5.70854 -0.043,-10.37917 -0.28493,-10.37917 -0.24197,0 -48.29735,47.85793 -106.78974,106.35094 L 202.97787,328.0386 h 10.66296 10.66296 z"
   style="fill:#ffffff;stroke-width:0.56872159" /><path
   inkscape:connector-curvature="0"
   id="path4168"
   d="m 295.90463,294.33434 c -2.62248,-1.74673 -4.15257,-4.96263 -3.66117,-7.69497 0.33402,-1.85724 5.12683,-6.85568 40.29571,-42.02456 36.19983,-36.19983 40.12527,-39.95422 42.15779,-40.3207 1.75315,-0.31611 2.7508,-0.13376 4.58136,0.83735 4.53991,2.40841 4.26751,-0.44366 4.26751,44.68174 0,44.34058 0.15428,42.41564 -3.58212,44.69385 -1.76034,1.07335 -3.15256,1.11024 -41.97368,1.1123 l -40.15295,0.002 z m 72.28572,-38.52338 c 0,-13.45026 -0.19083,-24.45502 -0.42407,-24.45502 -0.55766,0 -48.48599,47.92339 -48.48599,48.481 0,0.23598 11.00476,0.42905 24.45503,0.42905 h 24.45503 z"
   style="fill:#ffffff;stroke-width:0.56872159" /></svg>
