<?xml version="1.0" encoding="UTF-8" standalone="no"?>
<!-- Generator: Adobe Illustrator 19.0.0, SVG Export Plug-In . SVG Version: 6.00 Build 0)  -->

<svg
   xmlns:dc="http://purl.org/dc/elements/1.1/"
   xmlns:cc="http://creativecommons.org/ns#"
   xmlns:rdf="http://www.w3.org/1999/02/22-rdf-syntax-ns#"
   xmlns:svg="http://www.w3.org/2000/svg"
   xmlns="http://www.w3.org/2000/svg"
   xmlns:sodipodi="http://sodipodi.sourceforge.net/DTD/sodipodi-0.dtd"
   xmlns:inkscape="http://www.inkscape.org/namespaces/inkscape"
   version="1.1"
   id="Capa_1"
   x="0px"
   y="0px"
   viewBox="0 0 480.001 480.001"
   style="enable-background:new 0 0 480.001 480.001;"
   xml:space="preserve"
   sodipodi:docname="staffmgntnav.svg"
   inkscape:version="0.92.4 (f8dce91, 2019-08-02)"><metadata
   id="metadata1023"><rdf:RDF><cc:Work
       rdf:about=""><dc:format>image/svg+xml</dc:format><dc:type
         rdf:resource="http://purl.org/dc/dcmitype/StillImage" /><dc:title></dc:title></cc:Work></rdf:RDF></metadata><defs
   id="defs1021" /><sodipodi:namedview
   pagecolor="#ffffff"
   bordercolor="#666666"
   borderopacity="1"
   objecttolerance="10"
   gridtolerance="10"
   guidetolerance="10"
   inkscape:pageopacity="0"
   inkscape:pageshadow="2"
   inkscape:window-width="1853"
   inkscape:window-height="1025"
   id="namedview1019"
   showgrid="false"
   inkscape:zoom="1.7583296"
   inkscape:cx="240.0005"
   inkscape:cy="240.0005"
   inkscape:window-x="67"
   inkscape:window-y="27"
   inkscape:window-maximized="1"
   inkscape:current-layer="Capa_1" />
<g
   id="g986">
	<g
   id="g984">
		<g
   id="g982">
			<path
   d="M472,0H112c-4.418,0-8,3.582-8,8v120h16V16h344v440c0.077,4.207-3.169,7.731-7.368,8c-0.688,0-1.376-0.056-2.064-0.072     c-1.416-0.04-2.832-0.072-4.224-0.216c-0.12,0-0.232,0-0.352-0.048c-26.128-2.856-46.767-23.475-49.648-49.6     c0-0.112-0.04-0.232-0.056-0.344c-0.194-1.901-0.29-3.81-0.288-5.72v-16c0-4.418-3.582-8-8-8H120V240h-16v144H40     c-4.418,0-8,3.582-8,8v16c0.044,39.746,32.254,71.956,72,72h352.8c12.982-0.34,23.3-11.014,23.2-24V8C480,3.582,476.418,0,472,0z      M104,464c-30.913-0.035-55.965-25.087-56-56v-8h336v8c0.011,2.638,0.163,5.274,0.456,7.896c0.072,0.696,0.208,1.368,0.304,2.056     c0.264,1.936,0.584,3.864,1.008,5.76c0.144,0.664,0.328,1.32,0.496,1.984c0.488,1.928,1.04,3.824,1.68,5.696     c0.184,0.536,0.376,1.064,0.576,1.6c0.728,1.984,1.552,3.92,2.456,5.832c0.192,0.392,0.368,0.8,0.56,1.16     c1.003,2.027,2.104,3.997,3.304,5.912c0.16,0.256,0.304,0.52,0.464,0.8c1.304,2.043,2.712,4.019,4.216,5.92l0.256,0.344     c1.746,2.193,3.616,4.284,5.6,6.264c1.723,1.707,3.509,3.307,5.36,4.8L104,464z"
   id="path966" />
			<path
   d="M264,224c2.122,0,4.156-0.844,5.656-2.344l32-32c3.123-3.124,3.123-8.188,0-11.312l-32-32     c-1.5-1.5-3.534-2.344-5.656-2.344H40c-22.091,0-40,17.909-40,40s17.909,40,40,40H264z M261.936,161.248L284.688,184     l-22.752,22.752L256.248,184L261.936,161.248z M64,160h181.76l-4,16H80v16h161.76l4,16H64V160z M16,184c0-13.255,10.745-24,24-24     h8v48h-8C26.745,208,16,197.255,16,184z"
   id="path968" />
			<path
   d="M184,344h240c4.418,0,8-3.582,8-8V96c-0.001-4.418-3.583-7.999-8.002-7.998c-2.121,0-4.154,0.843-5.654,2.342l-240,240     c-3.124,3.125-3.123,8.19,0.002,11.314C179.846,343.157,181.879,344,184,344z M416,115.312V136h-16v16h16v16h-16v16h16v16h-16v16     h16v16h-16v16h16v16h-16v16h16v16h-16v16h16v16h-16v-16h-16v16h-16v-16h-16v16h-16v-16h-16v16h-16v-16h-16v16h-16v-16h-16v16h-16     v-16h-16v16h-20.688L416,115.312z"
   id="path970" />
			<path
   d="M299.88,296H376c4.418,0,8-3.582,8-8v-76.12c-0.001-4.418-3.583-7.999-8.002-7.998c-2.121,0-4.154,0.843-5.654,2.342     l-76.12,76.12c-3.124,3.125-3.123,8.19,0.002,11.314C295.726,295.157,297.759,296,299.88,296z M368,231.2V280h-48.8L368,231.2z"
   id="path972" />
			<rect
   x="208"
   y="48"
   width="160"
   height="16"
   id="rect974" />
			<rect
   x="184"
   y="80"
   width="208"
   height="16"
   id="rect976" />
			<rect
   x="136"
   y="248"
   width="48"
   height="16"
   id="rect978" />
			<rect
   x="136"
   y="280"
   width="32"
   height="16"
   id="rect980" />
		</g>
	</g>
</g>
<g
   id="g988">
</g>
<g
   id="g990">
</g>
<g
   id="g992">
</g>
<g
   id="g994">
</g>
<g
   id="g996">
</g>
<g
   id="g998">
</g>
<g
   id="g1000">
</g>
<g
   id="g1002">
</g>
<g
   id="g1004">
</g>
<g
   id="g1006">
</g>
<g
   id="g1008">
</g>
<g
   id="g1010">
</g>
<g
   id="g1012">
</g>
<g
   id="g1014">
</g>
<g
   id="g1016">
</g>
<path
   style="fill:#0066ff;fill-opacity:1;stroke-width:0.56872159"
   d="M 96.098988,479.25578 C 71.117491,476.35439 50.041263,461.15523 39.083797,438.13919 33.930125,427.31395 32.311744,418.62984 32.306738,401.774 c -0.0037,-12.34899 0.358895,-14.11151 3.315793,-16.11903 1.406814,-0.95513 3.910863,-1.04887 35.06956,-1.31293 l 33.554569,-0.28436 0.14437,-71.8011 0.14437,-71.8011 h 7.67556 7.67555 v 71.94328 71.94328 h 136.83377 c 123.75507,0 137.01546,0.0862 138.73475,0.90208 3.75993,1.7842 3.91951,2.43515 4.31024,17.58137 0.31506,12.2129 0.50798,14.24015 1.83316,19.26362 5.0909,19.29846 19.75311,34.34664 38.88307,39.90663 5.27322,1.53263 14.66555,2.53111 17.79279,1.89152 2.65435,-0.54287 5.15139,-3.26967 5.72808,-6.25516 0.26393,-1.36632 0.49102,-101.33514 0.50464,-222.15293 l 0.0248,-219.66871 H 292.20914 119.88651 v 56.019075 56.019075 h -7.67774 -7.67774 V 66.418325 4.9880463 l 1.94681,-2.1243541 1.94681,-2.12435416 183.12533,-0.14478309 183.12533,-0.14478313 1.83023,1.54003258 c 1.00662,0.8470179 2.17931,2.3755174 2.60597,3.3966656 0.65076,1.5574754 0.77575,38.143525 0.77575,227.06065 0,164.68415 -0.17198,226.01392 -0.63996,228.2178 -2.0023,9.42949 -9.58849,16.8692 -18.9697,18.60341 -4.07876,0.754 -357.68341,0.74181 -364.178612,-0.0126 z m 309.211572,-20.8413 c -6.8141,-7.05302 -10.19958,-11.88577 -14.10811,-20.13927 -4.71813,-9.96308 -6.85458,-19.81033 -6.85824,-31.61085 l -0.002,-6.96684 H 215.91784 47.493639 l 0.322573,8.38864 c 0.387887,10.08716 1.965572,16.95056 5.612184,24.41469 8.620822,17.64567 25.901869,29.67351 45.131052,31.4118 2.815172,0.25449 74.315602,0.4979 158.889842,0.54092 l 153.77134,0.0782 z"
   id="path1025"
   inkscape:connector-curvature="0" /><path
   style="fill:#0066ff;fill-opacity:1;stroke-width:0.56872159"
   d="m 136.37943,256.09532 v -7.67774 h 23.60195 23.60194 v 7.67774 7.67775 h -23.60194 -23.60195 z"
   id="path1027"
   inkscape:connector-curvature="0" /><path
   style="fill:#0066ff;fill-opacity:1;stroke-width:0.56872159"
   d="m 136.37943,287.94373 v -7.67774 h 15.63985 15.63984 v 7.67774 7.67774 h -15.63984 -15.63985 z"
   id="path1029"
   inkscape:connector-curvature="0" /><path
   style="fill:#0066ff;fill-opacity:1;stroke-width:0.56872159"
   d="m 182.44588,343.54956 c -4.17997,-0.75953 -7.04206,-5.54434 -5.79114,-9.68156 0.52757,-1.74486 22.75472,-24.22942 122.22298,-123.63845 107.68103,-107.61691 121.80365,-121.535766 123.551,-121.768375 2.83048,-0.376795 5.23713,0.44826 7.15902,2.454277 l 1.67383,1.747108 v 123.33789 123.33789 l -1.67383,1.74712 c -0.92062,0.9609 -2.58413,1.99998 -3.69669,2.30905 -2.0028,0.55638 -240.4009,0.70821 -243.44517,0.15505 z m 42.0854,-23.47306 v -7.9621 h 7.67774 7.67774 v 7.9621 7.9621 h 8.24646 8.24646 v -7.9621 -7.9621 h 7.67775 7.67774 v 7.9621 7.9621 h 8.24646 8.24646 v -7.9621 -7.9621 h 7.67774 7.67775 v 7.9621 7.9621 h 8.24646 8.24646 v -7.9621 -7.9621 h 7.9621 7.9621 v 7.9621 7.9621 h 8.24647 8.24646 v -7.9621 -7.9621 h 7.67774 7.67774 v 7.9621 7.9621 h 8.24647 8.24646 v -7.9621 -7.9621 h 7.67774 7.67774 v 7.9621 7.9621 h 8.24646 8.24647 v -8.24646 -8.24646 h -7.96211 -7.9621 v -7.67774 -7.67775 h 7.9621 7.96211 v -8.24646 -8.24646 h -7.96211 -7.9621 v -7.67774 -7.67774 h 7.9621 7.96211 v -8.24647 -8.24646 h -7.96211 -7.9621 v -7.67774 -7.67774 h 7.9621 7.96211 v -8.24646 -8.24647 h -7.96211 -7.9621 v -7.9621 -7.9621 h 7.9621 7.96211 v -8.24646 -8.24647 h -7.96211 -7.9621 v -7.67774 -7.67774 h 7.9621 7.96211 v -8.24646 -8.24646 h -7.96211 -7.9621 v -7.67775 -7.67774 h 7.9621 7.96211 v -10.52135 c 0,-5.78674 -0.1922,-10.52135 -0.42711,-10.52135 -0.23491,0 -48.28452,47.85793 -106.77691,106.35094 L 202.63664,328.0386 h 10.94732 10.94732 z"
   id="path1031"
   inkscape:connector-curvature="0" /><path
   style="fill:#0066ff;fill-opacity:1;stroke-width:0.56872159"
   d="m 295.90583,294.49113 c -3.16973,-2.08603 -4.42809,-5.94573 -3.096,-9.49616 0.83703,-2.23097 76.90847,-78.2895 79.8788,-79.86525 2.74055,-1.45387 5.50139,-1.19601 7.96794,0.74418 3.17596,2.49821 3.11675,1.65664 3.11675,44.29633 0,39.26326 -0.002,39.32823 -1.23059,41.51434 -2.31207,4.11377 -0.29695,3.93734 -44.92181,3.93316 -38.87696,-0.004 -40.05719,-0.0355 -41.71509,-1.1266 z m 72.512,-38.68017 c 0,-13.45026 -0.19305,-24.45502 -0.42902,-24.45502 -0.23596,0 -11.43155,11.00476 -24.87909,24.45502 l -24.45006,24.45503 h 24.87909 24.87908 z"
   id="path1033"
   inkscape:connector-curvature="0" /><path
   style="fill:#0066ff;fill-opacity:1;stroke-width:0.56872159"
   d="M 35.146993,223.40529 C 25.91196,222.20031 19.108242,218.76242 12.086891,211.7531 7.8763337,207.54976 6.5162952,205.73828 4.6010221,201.78241 1.5666908,195.51521 0.45497726,190.76436 0.45497726,184.0645 c 0,-17.5825 10.36915874,-31.7539 27.87963174,-38.10273 l 3.684416,-1.33587 116.019205,-0.16429 c 63.81056,-0.0904 116.91493,-0.004 118.00972,0.19095 1.65856,0.29599 4.681,3.02653 18.12311,16.37285 8.87292,8.80969 16.87057,17.01573 17.77255,18.23565 1.85527,2.50923 2.17166,5.65251 0.82433,8.18938 -0.44859,0.84465 -8.46445,9.16613 -17.81301,18.49216 -14.52846,14.49344 -17.32194,17.03169 -19.2318,17.47462 -2.63756,0.61169 -225.885111,0.60014 -230.576137,-0.0119 z m 13.080596,-39.53761 v -24.17066 h -5.090501 c -2.799775,0 -6.446702,0.28798 -8.104282,0.63996 -8.866727,1.8828 -16.120717,8.73375 -18.363094,17.34282 -3.302505,12.67917 3.381584,25.00312 15.910608,29.33555 2.029325,0.70173 4.695064,0.99122 9.249152,1.00443 l 6.398117,0.0186 z m 195.723211,15.92421 -2.04258,-8.24646 H 160.99211 80.075997 v -7.67775 -7.67774 h 80.972413 80.97242 l 1.79993,-7.2512 c 0.98996,-3.98816 1.93463,-7.69907 2.09926,-8.24646 0.2842,-0.94498 -4.31428,-0.99526 -91.01881,-0.99526 H 63.583072 v 24.17066 24.17067 h 91.205158 91.20515 z m 29.77496,-4.26548 11.36383,-11.3745 -11.65253,-11.66293 -11.65253,-11.66294 -2.91828,11.66281 -2.91828,11.6628 2.84597,11.37463 c 1.56528,6.25604 3.00842,11.37463 3.20698,11.37463 0.19855,0 5.47473,-5.11852 11.72484,-11.3745 z"
   id="path1035"
   inkscape:connector-curvature="0" /><path
   style="fill:#0066ff;fill-opacity:1;stroke-width:0.56872159"
   d="m 184.15205,88.038099 v -7.962102 h 103.79168 103.79169 v 7.962102 7.962102 H 287.94373 184.15205 Z"
   id="path1037"
   inkscape:connector-curvature="0" /><path
   style="fill:#0066ff;fill-opacity:1;stroke-width:0.56872159"
   d="m 208.03835,55.905331 v -7.677742 h 79.90538 79.90538 v 7.677742 7.677741 h -79.90538 -79.90538 z"
   id="path1039"
   inkscape:connector-curvature="0" /></svg>