<?xml version="1.0" encoding="UTF-8" standalone="no"?>
<svg
   xmlns:dc="http://purl.org/dc/elements/1.1/"
   xmlns:cc="http://creativecommons.org/ns#"
   xmlns:rdf="http://www.w3.org/1999/02/22-rdf-syntax-ns#"
   xmlns:svg="http://www.w3.org/2000/svg"
   xmlns="http://www.w3.org/2000/svg"
   xmlns:sodipodi="http://sodipodi.sourceforge.net/DTD/sodipodi-0.dtd"
   xmlns:inkscape="http://www.inkscape.org/namespaces/inkscape"
   inkscape:version="1.0 (6e3e5246a0, 2020-05-07)"
   sodipodi:docname="timeSheet.svg"
   id="svg4707"
   version="1.1"
   width="480pt"
   viewBox="-24 0 480 480"
   height="480pt">
  <metadata
     id="metadata4713">
    <rdf:RDF>
      <cc:Work
         rdf:about="">
        <dc:format>image/svg+xml</dc:format>
        <dc:type
           rdf:resource="http://purl.org/dc/dcmitype/StillImage" />
        <dc:title></dc:title>
      </cc:Work>
    </rdf:RDF>
  </metadata>
  <defs
     id="defs4711" />
  <sodipodi:namedview
     showborder="false"
     inkscape:document-rotation="0"
     inkscape:current-layer="svg4707"
     inkscape:window-maximized="1"
     inkscape:window-y="27"
     inkscape:window-x="67"
     inkscape:cy="320"
     inkscape:cx="320"
     inkscape:zoom="0.36875"
     showgrid="false"
     id="namedview4709"
     inkscape:window-height="1025"
     inkscape:window-width="1853"
     inkscape:pageshadow="2"
     inkscape:pageopacity="0"
     guidetolerance="10"
     gridtolerance="10"
     objecttolerance="10"
     borderopacity="1"
     bordercolor="#666666"
     pagecolor="#ffffff" />
  <path
     style="fill:#ffffff"
     id="path4673"
     d="m312 192c-66.273438 0-120 53.726562-120 120s53.726562 120 120 120 120-53.726562 120-120c-.074219-66.242188-53.757812-119.925781-120-120zm0 224c-57.4375 0-104-46.5625-104-104s46.5625-104 104-104 104 46.5625 104 104c-.066406 57.410156-46.589844 103.933594-104 104zm0 0" />
  <path
     style="fill:#ffffff"
     id="path4675"
     d="m320 289.472656v-41.472656h-16v41.472656c-6.777344 2.417969-12.109375 7.75-14.527344 14.527344h-25.472656v16h25.472656c3.699219 10.53125 14.1875 17.109375 25.28125 15.855469 11.09375-1.257813 19.84375-10.007813 21.101563-21.101563 1.253906-11.09375-5.324219-21.582031-15.855469-25.28125zm-8 30.527344c-4.417969 0-8-3.582031-8-8s3.582031-8 8-8 8 3.582031 8 8-3.582031 8-8 8zm0 0" />
  <path
     style="fill:#ffffff"
     id="path4677"
     d="m216 304h16v16h-16zm0 0" />
  <path
     style="fill:#ffffff"
     id="path4679"
     d="m304 392h16v16h-16zm0 0" />
  <path
     style="fill:#ffffff"
     id="path4681"
     d="m392 304h16v16h-16zm0 0" />
  <path
     style="fill:#ffffff"
     id="path4683"
     d="m304 216h16v16h-16zm0 0" />
  <path
     style="fill:#ffffff"
     id="path4685"
     d="m328 464h-288c-13.253906 0-24-10.746094-24-24v-400c0-13.253906 10.746094-24 24-24h224v72c0 3.234375 1.949219 6.152344 4.9375 7.390625s6.429688.550781 8.71875-1.734375l18.34375-18.34375 18.34375 18.34375c2.289062 2.285156 5.730469 2.972656 8.71875 1.734375s4.9375-4.15625 4.9375-7.390625v-72c13.253906 0 24 10.746094 24 24v144h16v-144c-.027344-22.082031-17.917969-39.9726562-40-40h-288c-22.082031.0273438-39.9726562 17.917969-40 40v400c.0273438 22.082031 17.917969 39.972656 40 40h288c22.082031-.027344 39.972656-17.917969 40-40h-16c0 13.253906-10.746094 24-24 24zm-16-395.3125-10.34375-10.34375c-3.125-3.121094-8.1875-3.121094-11.3125 0l-10.34375 10.34375v-52.6875h32zm0 0" />
  <path
     style="fill:#ffffff"
     id="path4687"
     d="m48 48h32v16h-32zm0 0" />
  <path
     style="fill:#ffffff"
     id="path4689"
     d="m96 48h80v16h-80zm0 0" />
  <path
     style="fill:#ffffff"
     id="path4691"
     d="m48 80h128v16h-128zm0 0" />
  <path
     style="fill:#ffffff"
     id="path4693"
     d="m48 144h208v16h-208zm0 0" />
  <path
     style="fill:#ffffff"
     id="path4695"
     d="m272 144h48v16h-48zm0 0" />
  <path
     style="fill:#ffffff"
     id="path4697"
     d="m48 192h160v16h-160zm0 0" />
  <path
     style="fill:#ffffff"
     id="path4699"
     d="m48 240h128v16h-128zm0 0" />
  <path
     style="fill:#ffffff"
     id="path4701"
     d="m48 288h112v16h-112zm0 0" />
  <path
     style="fill:#ffffff"
     id="path4703"
     d="m48 368h80v16h-80zm0 0" />
  <path
     style="fill:#ffffff"
     id="path4705"
     d="m48 400h80v16h-80zm0 0" />
  <path
     transform="matrix(0.75,0,0,0.75,-24,0)"
     inkscape:connector-curvature="0"
     id="path4715"
     d="M 70.738921,636.73418 C 58.319192,632.95075 44.243744,620.53996 38.815229,608.58601 33.971408,597.91957 33.743589,585.08391 33.686677,319.63585 33.62716,42.042153 33.631139,41.839691 39.379386,29.965399 42.843878,22.808712 49.505513,15.187941 56.129068,10.804112 L 67.126481,3.5254237 270.71578,2.7357144 c 111.97412,-0.4343403 207.58149,-0.069063 212.46084,0.8117264 11.55165,2.0852312 27.30042,16.0757432 33.52852,29.7852322 4.48607,9.874912 4.94392,20.000094 4.99802,110.531737 l 0.0595,99.66101 h -9.49152 -9.49153 v -97.89524 c 0,-84.988897 -0.58451,-99.126991 -4.43346,-107.238104 -4.59168,-9.676195 -15.64855,-17.239534 -25.20253,-17.239534 -5.3005,0 -5.52515,1.821155 -6.23636,50.554739 -0.64955,44.505999 -1.29983,50.908899 -5.4349,53.514749 -3.91187,2.46518 -7.19867,0.48951 -19.66102,-11.81803 L 426.84746,98.625953 412.24071,113.05127 c -11.51331,11.37027 -15.82075,14.04 -20.33899,12.60597 -5.56916,-1.76758 -5.73223,-3.28 -5.73223,-53.162021 V 21.152542 H 229.48476 c -171.924261,0 -164.006433,-0.746834 -172.822281,16.301137 -3.517401,6.801903 -4.05231,44.318598 -4.05231,284.215421 0,276.16805 0.0043,276.38462 5.663176,283.57868 12.455534,15.83466 3.731618,15.22718 218.608935,15.22259 223.35365,-0.005 211.36878,1.12518 221.82958,-20.91446 4.74992,-10.00752 6.54544,-11.43938 14.45278,-11.52543 8.75476,-0.0952 8.97524,0.16949 7.25884,8.71528 -2.64713,13.17999 -14.90579,29.30362 -27.13534,35.69069 -10.69335,5.58476 -13.7177,5.67205 -212.88136,6.14427 C 169.28814,638.84404 74.9376,638.01323 70.738921,636.73418 Z M 426.84746,75.389831 c 1.38771,0 6.8368,3.787433 12.10901,8.41652 l 9.5859,8.416521 V 56.687707 21.152542 h -21.69491 -21.69492 v 35.535165 35.535165 l 9.5859,-8.416521 c 5.27222,-4.629087 10.7213,-8.41652 12.10902,-8.41652 z"
     style="fill:#ffffff;stroke-width:2.71186447" />
  <path
     transform="matrix(0.75,0,0,0.75,-24,0)"
     inkscape:connector-curvature="0"
     id="path4717"
     d="m 96,117.42373 v -9.49153 h 84.0678 84.06779 v 9.49153 9.49152 H 180.0678 96 Z"
     style="fill:#ffffff;stroke-width:2.71186447" />
  <path
     transform="matrix(0.75,0,0,0.75,-24,0)"
     inkscape:connector-curvature="0"
     id="path4719"
     d="m 186.16949,84.215588 c 14.54237,-0.487612 38.33898,-0.487612 52.88136,0 14.54237,0.487613 2.64407,0.886569 -26.44068,0.886569 -29.08475,0 -40.98305,-0.398956 -26.44068,-0.886569 z"
     style="fill:#ffffff;stroke-width:2.71186447" />
  <path
     transform="matrix(0.75,0,0,0.75,-24,0)"
     inkscape:connector-curvature="0"
     id="path4721"
     d="m 96,74.033898 v -9.491525 h 20.33898 20.33899 v 9.491525 9.491526 H 116.33898 96 Z"
     style="fill:#ffffff;stroke-width:2.71186447" />
  <path
     transform="matrix(0.75,0,0,0.75,-24,0)"
     inkscape:connector-curvature="0"
     id="path4723"
     d="m 161.08475,74.033898 v -9.491525 h 51.52542 51.52542 v 9.491525 9.491526 h -51.52542 -51.52542 z"
     style="fill:#ffffff;stroke-width:2.71186447" />
  <path
     transform="matrix(0.75,0,0,0.75,-24,0)"
     inkscape:connector-curvature="0"
     id="path4725"
     d="M 96,201.49153 V 192 h 138.30508 138.30509 v 9.49153 9.49152 H 234.30508 96 Z"
     style="fill:#ffffff;stroke-width:2.71186447" />
  <path
     transform="matrix(0.75,0,0,0.75,-24,0)"
     inkscape:connector-curvature="0"
     id="path4727"
     d="m 411.25424,211.69088 c 8.57627,-0.53817 22.61017,-0.53817 31.18644,0 8.57627,0.53817 1.55932,0.97849 -15.59322,0.97849 -17.15254,0 -24.16949,-0.44032 -15.59322,-0.97849 z"
     style="fill:#ffffff;stroke-width:2.71186447" />
  <path
     transform="matrix(0.75,0,0,0.75,-24,0)"
     inkscape:connector-curvature="0"
     id="path4729"
     d=""
     style="fill:#ffffff;stroke-width:2.71186447" />
  <path
     transform="matrix(0.75,0,0,0.75,-24,0)"
     inkscape:connector-curvature="0"
     id="path4731"
     d="M 397.01695,201.49153 V 192 h 29.83051 29.83051 v 9.49153 9.49152 h -29.83051 -29.83051 z"
     style="fill:#ffffff;stroke-width:2.71186447" />
  <path
     transform="matrix(0.75,0,0,0.75,-24,0)"
     inkscape:connector-curvature="0"
     id="path4733"
     d="m 96,266.57627 v -9.49152 h 105.76271 105.76271 v 9.49152 9.49153 H 201.76271 96 Z"
     style="fill:#ffffff;stroke-width:2.71186447" />
  <path
     transform="matrix(0.75,0,0,0.75,-24,0)"
     inkscape:connector-curvature="0"
     id="path4735"
     d="m 137.35593,320.14075 c 23.49153,-0.45147 61.93221,-0.45147 85.42373,0 23.49153,0.45146 4.27119,0.82084 -42.71186,0.82084 -46.98305,0 -66.20339,-0.36938 -42.71187,-0.82084 z"
     style="fill:#ffffff;stroke-width:2.71186447" />
  <path
     transform="matrix(0.75,0,0,0.75,-24,0)"
     inkscape:connector-curvature="0"
     id="path4737"
     d="m 96,331.66102 v -9.49153 h 84.0678 84.06779 v 9.49153 9.49152 H 180.0678 96 Z"
     style="fill:#ffffff;stroke-width:2.71186447" />
  <path
     transform="matrix(0.75,0,0,0.75,-24,0)"
     inkscape:connector-curvature="0"
     id="path4739"
     d="m 96,394.0339 v -9.49153 h 74.57627 74.57627 v 9.49153 9.49152 H 170.57627 96 Z"
     style="fill:#ffffff;stroke-width:2.71186447" />
  <path
     transform="matrix(0.75,0,0,0.75,-24,0)"
     inkscape:connector-curvature="0"
     id="path4741"
     d="m 96,502.50847 v -9.49152 h 52.88136 52.88135 V 502.50847 512 H 148.88136 96 Z"
     style="fill:#ffffff;stroke-width:2.71186447" />
  <path
     transform="matrix(0.75,0,0,0.75,-24,0)"
     inkscape:connector-curvature="0"
     id="path4743"
     d="m 96,543.18644 v -9.49152 h 52.88136 52.88135 v 9.49152 9.49153 H 148.88136 96 Z"
     style="fill:#ffffff;stroke-width:2.71186447" />
  <path
     transform="matrix(0.75,0,0,0.75,-24,0)"
     inkscape:connector-curvature="0"
     id="path4749"
     d=""
     style="fill:#ffffff;stroke-width:2.71186447" />
  <path
     transform="matrix(0.75,0,0,0.75,-24,0)"
     inkscape:connector-curvature="0"
     id="path4751"
     d=""
     style="fill:#ffffff;stroke-width:2.71186447" />
  <path
     transform="matrix(0.75,0,0,0.75,-24,0)"
     inkscape:connector-curvature="0"
     id="path4753"
     d="m 411.1647,570.60889 c -39.2549,-9.96056 -81.39634,-41.44786 -100.21678,-74.88008 -23.14161,-41.10824 -27.59471,-87.67187 -12.49154,-130.61698 18.87825,-53.67933 62.52509,-92.53828 116.87726,-104.05626 25.11774,-5.3228 44.86496,-4.92924 69.55853,1.38631 30.83557,7.88641 51.46676,19.83424 74.83664,43.33902 22.4956,22.62543 35.03924,44.35528 42.32461,73.32056 5.95049,23.6581 3.93015,65.28157 -4.30817,88.75693 -15.79401,45.00558 -55.99144,84.61377 -100.19371,98.72496 -22.48331,7.17763 -65.97693,9.20437 -86.38684,4.02554 z m 70.72494,-19.25727 c 49.75326,-12.95908 88.10616,-50.96755 101.27809,-100.36857 4.93291,-18.50079 4.61299,-54.14338 -0.64673,-72.05017 -21.47395,-73.10852 -93.31074,-115.88996 -165.87088,-98.78218 -71.0578,16.75356 -118.67131,87.24259 -106.59781,157.81183 9.31228,54.43004 51.943,100.90638 104.17922,113.57697 19.37738,4.70026 49.20937,4.61741 67.65811,-0.18793 z"
     style="fill:#ffffff;stroke-width:2.71186447" />
  <path
     transform="matrix(0.75,0,0,0.75,-24,0)"
     inkscape:connector-curvature="0"
     id="path4755"
     d="m 321.08475,415.72881 c 0,-9.03954 0.45197,-9.49152 9.49152,-9.49152 9.03955,0 9.49153,0.45198 9.49153,9.49152 0,9.03955 -0.45198,9.49153 -9.49153,9.49153 -9.03955,0 -9.49152,-0.45198 -9.49152,-9.49153 z"
     style="fill:#ffffff;stroke-width:2.71186447" />
  <path
     transform="matrix(0.75,0,0,0.75,-24,0)"
     inkscape:connector-curvature="0"
     id="path4757"
     d="m 437.69492,299.11864 c 0,-9.03954 0.45197,-9.49152 9.49152,-9.49152 9.03955,0 9.49153,0.45198 9.49153,9.49152 0,9.03955 -0.45198,9.49153 -9.49153,9.49153 -9.03955,0 -9.49152,-0.45198 -9.49152,-9.49153 z"
     style="fill:#ffffff;stroke-width:2.71186447" />
  <path
     transform="matrix(0.75,0,0,0.75,-24,0)"
     inkscape:connector-curvature="0"
     id="path4759"
     d="m 557.01695,415.72881 c 0,-9.03954 0.45198,-9.49152 9.49152,-9.49152 9.03955,0 9.49153,0.45198 9.49153,9.49152 0,9.03955 -0.45198,9.49153 -9.49153,9.49153 -9.03954,0 -9.49152,-0.45198 -9.49152,-9.49153 z"
     style="fill:#ffffff;stroke-width:2.71186447" />
  <path
     transform="matrix(0.75,0,0,0.75,-24,0)"
     inkscape:connector-curvature="0"
     id="path4761"
     d="m 437.69492,532.33898 c 0,-9.03954 0.45197,-9.49152 9.49152,-9.49152 9.03955,0 9.49153,0.45198 9.49153,9.49152 0,9.03955 -0.45198,9.49153 -9.49153,9.49153 -9.03955,0 -9.49152,-0.45198 -9.49152,-9.49153 z"
     style="fill:#ffffff;stroke-width:2.71186447" />
  <path
     transform="matrix(0.75,0,0,0.75,-24,0)"
     inkscape:connector-curvature="0"
     id="path4763"
     d="m 435.8617,444.19312 c -3.24556,-1.30809 -8.6615,-6.11209 -12.03542,-10.67556 -5.61866,-7.59965 -7.45948,-8.29722 -21.89559,-8.29722 h -15.7612 v -9.49153 -9.49152 h 14.91526 c 13.78531,0 15.73703,-0.82178 25.76271,-10.84746 l 10.84746,-10.84746 v -25.76271 -25.76271 h 9.49152 9.49153 v 26.66039 c 0,25.89689 0.20078,26.76785 7.01102,30.41258 3.85606,2.0637 8.73741,7.09067 10.84745,11.17104 13.26669,25.65495 -11.98684,53.68845 -38.67474,42.93216 z m 20.27389,-19.51515 c 5.79623,-5.79623 3.82392,-15.58553 -3.84399,-19.07927 -6.24268,-2.84435 -7.69717,-2.49451 -12.06743,2.90253 -9.5061,11.73954 5.29784,26.79032 15.91142,16.17674 z"
     style="fill:#ffffff;stroke-width:2.71186447" />
  <path
     transform="matrix(0.75,0,0,0.75,-24,0)"
     id="path878"
     d="m 201.43776,84.782992 c 7.12975,-0.560478 18.1128,-0.553717 24.40678,0.01503 6.29398,0.568743 0.46054,1.027317 -12.96318,1.019052 -13.42373,-0.0083 -18.57335,-0.4736 -11.4436,-1.034078 z"
     style="opacity:0.961794;fill:#ffffff;fill-opacity:0.998416;stroke-width:2.71186" />
  <path
     transform="matrix(0.75,0,0,0.75,-24,0)"
     id="path880"
     d=""
     style="opacity:0.961794;fill:#ffffff;fill-opacity:0.998416;stroke-width:2.71186" />
</svg>
