<?xml version="1.0" encoding="UTF-8" standalone="no"?>
<svg
   xmlns:dc="http://purl.org/dc/elements/1.1/"
   xmlns:cc="http://creativecommons.org/ns#"
   xmlns:rdf="http://www.w3.org/1999/02/22-rdf-syntax-ns#"
   xmlns:svg="http://www.w3.org/2000/svg"
   xmlns="http://www.w3.org/2000/svg"
   xmlns:sodipodi="http://sodipodi.sourceforge.net/DTD/sodipodi-0.dtd"
   xmlns:inkscape="http://www.inkscape.org/namespaces/inkscape"
   height="480pt"
   viewBox="-24 0 480 480"
   width="480pt"
   version="1.1"
   id="svg4707"
   sodipodi:docname="timesheet.svg"
   inkscape:version="0.92.4 (f8dce91, 2019-08-02)">
  <metadata
     id="metadata4713">
    <rdf:RDF>
      <cc:Work
         rdf:about="">
        <dc:format>image/svg+xml</dc:format>
        <dc:type
           rdf:resource="http://purl.org/dc/dcmitype/StillImage" />
        <dc:title></dc:title>
      </cc:Work>
    </rdf:RDF>
  </metadata>
  <defs
     id="defs4711" />
  <sodipodi:namedview
     pagecolor="#ffffff"
     bordercolor="#666666"
     borderopacity="1"
     objecttolerance="10"
     gridtolerance="10"
     guidetolerance="10"
     inkscape:pageopacity="0"
     inkscape:pageshadow="2"
     inkscape:window-width="1853"
     inkscape:window-height="1025"
     id="namedview4709"
     showgrid="false"
     inkscape:zoom="0.36875"
     inkscape:cx="320"
     inkscape:cy="320"
     inkscape:window-x="67"
     inkscape:window-y="27"
     inkscape:window-maximized="1"
     inkscape:current-layer="svg4707" />
  <path
     d="m312 192c-66.273438 0-120 53.726562-120 120s53.726562 120 120 120 120-53.726562 120-120c-.074219-66.242188-53.757812-119.925781-120-120zm0 224c-57.4375 0-104-46.5625-104-104s46.5625-104 104-104 104 46.5625 104 104c-.066406 57.410156-46.589844 103.933594-104 104zm0 0"
     id="path4673" />
  <path
     d="m320 289.472656v-41.472656h-16v41.472656c-6.777344 2.417969-12.109375 7.75-14.527344 14.527344h-25.472656v16h25.472656c3.699219 10.53125 14.1875 17.109375 25.28125 15.855469 11.09375-1.257813 19.84375-10.007813 21.101563-21.101563 1.253906-11.09375-5.324219-21.582031-15.855469-25.28125zm-8 30.527344c-4.417969 0-8-3.582031-8-8s3.582031-8 8-8 8 3.582031 8 8-3.582031 8-8 8zm0 0"
     id="path4675" />
  <path
     d="m216 304h16v16h-16zm0 0"
     id="path4677" />
  <path
     d="m304 392h16v16h-16zm0 0"
     id="path4679" />
  <path
     d="m392 304h16v16h-16zm0 0"
     id="path4681" />
  <path
     d="m304 216h16v16h-16zm0 0"
     id="path4683" />
  <path
     d="m328 464h-288c-13.253906 0-24-10.746094-24-24v-400c0-13.253906 10.746094-24 24-24h224v72c0 3.234375 1.949219 6.152344 4.9375 7.390625s6.429688.550781 8.71875-1.734375l18.34375-18.34375 18.34375 18.34375c2.289062 2.285156 5.730469 2.972656 8.71875 1.734375s4.9375-4.15625 4.9375-7.390625v-72c13.253906 0 24 10.746094 24 24v144h16v-144c-.027344-22.082031-17.917969-39.9726562-40-40h-288c-22.082031.0273438-39.9726562 17.917969-40 40v400c.0273438 22.082031 17.917969 39.972656 40 40h288c22.082031-.027344 39.972656-17.917969 40-40h-16c0 13.253906-10.746094 24-24 24zm-16-395.3125-10.34375-10.34375c-3.125-3.121094-8.1875-3.121094-11.3125 0l-10.34375 10.34375v-52.6875h32zm0 0"
     id="path4685" />
  <path
     d="m48 48h32v16h-32zm0 0"
     id="path4687" />
  <path
     d="m96 48h80v16h-80zm0 0"
     id="path4689" />
  <path
     d="m48 80h128v16h-128zm0 0"
     id="path4691" />
  <path
     d="m48 144h208v16h-208zm0 0"
     id="path4693" />
  <path
     d="m272 144h48v16h-48zm0 0"
     id="path4695" />
  <path
     d="m48 192h160v16h-160zm0 0"
     id="path4697" />
  <path
     d="m48 240h128v16h-128zm0 0"
     id="path4699" />
  <path
     d="m48 288h112v16h-112zm0 0"
     id="path4701" />
  <path
     d="m48 368h80v16h-80zm0 0"
     id="path4703" />
  <path
     d="m48 400h80v16h-80zm0 0"
     id="path4705" />
  <path
     style="fill:#0000ff;stroke-width:2.71186447"
     d="M 70.738921,636.73418 C 58.319192,632.95075 44.243744,620.53996 38.815229,608.58601 33.971408,597.91957 33.743589,585.08391 33.686677,319.63585 33.62716,42.042153 33.631139,41.839691 39.379386,29.965399 42.843878,22.808712 49.505513,15.187941 56.129068,10.804112 L 67.126481,3.5254237 270.71578,2.7357144 c 111.97412,-0.4343403 207.58149,-0.069063 212.46084,0.8117264 11.55165,2.0852312 27.30042,16.0757432 33.52852,29.7852322 4.48607,9.874912 4.94392,20.000094 4.99802,110.531737 l 0.0595,99.66101 h -9.49152 -9.49153 v -97.89524 c 0,-84.988897 -0.58451,-99.126991 -4.43346,-107.238104 -4.59168,-9.676195 -15.64855,-17.239534 -25.20253,-17.239534 -5.3005,0 -5.52515,1.821155 -6.23636,50.554739 -0.64955,44.505999 -1.29983,50.908899 -5.4349,53.514749 -3.91187,2.46518 -7.19867,0.48951 -19.66102,-11.81803 L 426.84746,98.625953 412.24071,113.05127 c -11.51331,11.37027 -15.82075,14.04 -20.33899,12.60597 -5.56916,-1.76758 -5.73223,-3.28 -5.73223,-53.162021 V 21.152542 H 229.48476 c -171.924261,0 -164.006433,-0.746834 -172.822281,16.301137 -3.517401,6.801903 -4.05231,44.318598 -4.05231,284.215421 0,276.16805 0.0043,276.38462 5.663176,283.57868 12.455534,15.83466 3.731618,15.22718 218.608935,15.22259 223.35365,-0.005 211.36878,1.12518 221.82958,-20.91446 4.74992,-10.00752 6.54544,-11.43938 14.45278,-11.52543 8.75476,-0.0952 8.97524,0.16949 7.25884,8.71528 -2.64713,13.17999 -14.90579,29.30362 -27.13534,35.69069 -10.69335,5.58476 -13.7177,5.67205 -212.88136,6.14427 C 169.28814,638.84404 74.9376,638.01323 70.738921,636.73418 Z M 426.84746,75.389831 c 1.38771,0 6.8368,3.787433 12.10901,8.41652 l 9.5859,8.416521 V 56.687707 21.152542 h -21.69491 -21.69492 v 35.535165 35.535165 l 9.5859,-8.416521 c 5.27222,-4.629087 10.7213,-8.41652 12.10902,-8.41652 z"
     id="path4715"
     inkscape:connector-curvature="0"
     transform="matrix(0.75,0,0,0.75,-24,0)" />
  <path
     style="fill:#0000ff;stroke-width:2.71186447"
     d="m 96,117.42373 v -9.49153 h 84.0678 84.06779 v 9.49153 9.49152 H 180.0678 96 Z"
     id="path4717"
     inkscape:connector-curvature="0"
     transform="matrix(0.75,0,0,0.75,-24,0)" />
  <path
     style="fill:#0000ff;stroke-width:2.71186447"
     d="m 186.16949,84.215588 c 14.54237,-0.487612 38.33898,-0.487612 52.88136,0 14.54237,0.487613 2.64407,0.886569 -26.44068,0.886569 -29.08475,0 -40.98305,-0.398956 -26.44068,-0.886569 z"
     id="path4719"
     inkscape:connector-curvature="0"
     transform="matrix(0.75,0,0,0.75,-24,0)" />
  <path
     style="fill:#0000ff;stroke-width:2.71186447"
     d="m 96,74.033898 v -9.491525 h 20.33898 20.33899 v 9.491525 9.491526 H 116.33898 96 Z"
     id="path4721"
     inkscape:connector-curvature="0"
     transform="matrix(0.75,0,0,0.75,-24,0)" />
  <path
     style="fill:#0000ff;stroke-width:2.71186447"
     d="m 161.08475,74.033898 v -9.491525 h 51.52542 51.52542 v 9.491525 9.491526 h -51.52542 -51.52542 z"
     id="path4723"
     inkscape:connector-curvature="0"
     transform="matrix(0.75,0,0,0.75,-24,0)" />
  <path
     style="fill:#0000ff;stroke-width:2.71186447"
     d="M 96,201.49153 V 192 h 138.30508 138.30509 v 9.49153 9.49152 H 234.30508 96 Z"
     id="path4725"
     inkscape:connector-curvature="0"
     transform="matrix(0.75,0,0,0.75,-24,0)" />
  <path
     style="fill:#0000ff;stroke-width:2.71186447"
     d="m 411.25424,211.69088 c 8.57627,-0.53817 22.61017,-0.53817 31.18644,0 8.57627,0.53817 1.55932,0.97849 -15.59322,0.97849 -17.15254,0 -24.16949,-0.44032 -15.59322,-0.97849 z"
     id="path4727"
     inkscape:connector-curvature="0"
     transform="matrix(0.75,0,0,0.75,-24,0)" />
  <path
     style="fill:#0000ff;stroke-width:2.71186447"
     d=""
     id="path4729"
     inkscape:connector-curvature="0"
     transform="matrix(0.75,0,0,0.75,-24,0)" />
  <path
     style="fill:#0000ff;stroke-width:2.71186447"
     d="M 397.01695,201.49153 V 192 h 29.83051 29.83051 v 9.49153 9.49152 h -29.83051 -29.83051 z"
     id="path4731"
     inkscape:connector-curvature="0"
     transform="matrix(0.75,0,0,0.75,-24,0)" />
  <path
     style="fill:#0000ff;stroke-width:2.71186447"
     d="m 96,266.57627 v -9.49152 h 105.76271 105.76271 v 9.49152 9.49153 H 201.76271 96 Z"
     id="path4733"
     inkscape:connector-curvature="0"
     transform="matrix(0.75,0,0,0.75,-24,0)" />
  <path
     style="fill:#0000ff;stroke-width:2.71186447"
     d="m 137.35593,320.14075 c 23.49153,-0.45147 61.93221,-0.45147 85.42373,0 23.49153,0.45146 4.27119,0.82084 -42.71186,0.82084 -46.98305,0 -66.20339,-0.36938 -42.71187,-0.82084 z"
     id="path4735"
     inkscape:connector-curvature="0"
     transform="matrix(0.75,0,0,0.75,-24,0)" />
  <path
     style="fill:#0000ff;stroke-width:2.71186447"
     d="m 96,331.66102 v -9.49153 h 84.0678 84.06779 v 9.49153 9.49152 H 180.0678 96 Z"
     id="path4737"
     inkscape:connector-curvature="0"
     transform="matrix(0.75,0,0,0.75,-24,0)" />
  <path
     style="fill:#0000ff;stroke-width:2.71186447"
     d="m 96,394.0339 v -9.49153 h 74.57627 74.57627 v 9.49153 9.49152 H 170.57627 96 Z"
     id="path4739"
     inkscape:connector-curvature="0"
     transform="matrix(0.75,0,0,0.75,-24,0)" />
  <path
     style="fill:#0000ff;stroke-width:2.71186447"
     d="m 96,502.50847 v -9.49152 h 52.88136 52.88135 V 502.50847 512 H 148.88136 96 Z"
     id="path4741"
     inkscape:connector-curvature="0"
     transform="matrix(0.75,0,0,0.75,-24,0)" />
  <path
     style="fill:#0000ff;stroke-width:2.71186447"
     d="m 96,543.18644 v -9.49152 h 52.88136 52.88135 v 9.49152 9.49153 H 148.88136 96 Z"
     id="path4743"
     inkscape:connector-curvature="0"
     transform="matrix(0.75,0,0,0.75,-24,0)" />
  <path
     style="fill:#0000ff;stroke-width:2.71186447"
     d=""
     id="path4749"
     inkscape:connector-curvature="0"
     transform="matrix(0.75,0,0,0.75,-24,0)" />
  <path
     style="fill:#0000ff;stroke-width:2.71186447"
     d=""
     id="path4751"
     inkscape:connector-curvature="0"
     transform="matrix(0.75,0,0,0.75,-24,0)" />
  <path
     style="fill:#0000ff;stroke-width:2.71186447"
     d="m 411.1647,570.60889 c -39.2549,-9.96056 -81.39634,-41.44786 -100.21678,-74.88008 -23.14161,-41.10824 -27.59471,-87.67187 -12.49154,-130.61698 18.87825,-53.67933 62.52509,-92.53828 116.87726,-104.05626 25.11774,-5.3228 44.86496,-4.92924 69.55853,1.38631 30.83557,7.88641 51.46676,19.83424 74.83664,43.33902 22.4956,22.62543 35.03924,44.35528 42.32461,73.32056 5.95049,23.6581 3.93015,65.28157 -4.30817,88.75693 -15.79401,45.00558 -55.99144,84.61377 -100.19371,98.72496 -22.48331,7.17763 -65.97693,9.20437 -86.38684,4.02554 z m 70.72494,-19.25727 c 49.75326,-12.95908 88.10616,-50.96755 101.27809,-100.36857 4.93291,-18.50079 4.61299,-54.14338 -0.64673,-72.05017 -21.47395,-73.10852 -93.31074,-115.88996 -165.87088,-98.78218 -71.0578,16.75356 -118.67131,87.24259 -106.59781,157.81183 9.31228,54.43004 51.943,100.90638 104.17922,113.57697 19.37738,4.70026 49.20937,4.61741 67.65811,-0.18793 z"
     id="path4753"
     inkscape:connector-curvature="0"
     transform="matrix(0.75,0,0,0.75,-24,0)" />
  <path
     style="fill:#0000ff;stroke-width:2.71186447"
     d="m 321.08475,415.72881 c 0,-9.03954 0.45197,-9.49152 9.49152,-9.49152 9.03955,0 9.49153,0.45198 9.49153,9.49152 0,9.03955 -0.45198,9.49153 -9.49153,9.49153 -9.03955,0 -9.49152,-0.45198 -9.49152,-9.49153 z"
     id="path4755"
     inkscape:connector-curvature="0"
     transform="matrix(0.75,0,0,0.75,-24,0)" />
  <path
     style="fill:#0000ff;stroke-width:2.71186447"
     d="m 437.69492,299.11864 c 0,-9.03954 0.45197,-9.49152 9.49152,-9.49152 9.03955,0 9.49153,0.45198 9.49153,9.49152 0,9.03955 -0.45198,9.49153 -9.49153,9.49153 -9.03955,0 -9.49152,-0.45198 -9.49152,-9.49153 z"
     id="path4757"
     inkscape:connector-curvature="0"
     transform="matrix(0.75,0,0,0.75,-24,0)" />
  <path
     style="fill:#0000ff;stroke-width:2.71186447"
     d="m 557.01695,415.72881 c 0,-9.03954 0.45198,-9.49152 9.49152,-9.49152 9.03955,0 9.49153,0.45198 9.49153,9.49152 0,9.03955 -0.45198,9.49153 -9.49153,9.49153 -9.03954,0 -9.49152,-0.45198 -9.49152,-9.49153 z"
     id="path4759"
     inkscape:connector-curvature="0"
     transform="matrix(0.75,0,0,0.75,-24,0)" />
  <path
     style="fill:#0000ff;stroke-width:2.71186447"
     d="m 437.69492,532.33898 c 0,-9.03954 0.45197,-9.49152 9.49152,-9.49152 9.03955,0 9.49153,0.45198 9.49153,9.49152 0,9.03955 -0.45198,9.49153 -9.49153,9.49153 -9.03955,0 -9.49152,-0.45198 -9.49152,-9.49153 z"
     id="path4761"
     inkscape:connector-curvature="0"
     transform="matrix(0.75,0,0,0.75,-24,0)" />
  <path
     style="fill:#000000;stroke-width:2.71186447"
     d="m 435.8617,444.19312 c -3.24556,-1.30809 -8.6615,-6.11209 -12.03542,-10.67556 -5.61866,-7.59965 -7.45948,-8.29722 -21.89559,-8.29722 h -15.7612 v -9.49153 -9.49152 h 14.91526 c 13.78531,0 15.73703,-0.82178 25.76271,-10.84746 l 10.84746,-10.84746 v -25.76271 -25.76271 h 9.49152 9.49153 v 26.66039 c 0,25.89689 0.20078,26.76785 7.01102,30.41258 3.85606,2.0637 8.73741,7.09067 10.84745,11.17104 13.26669,25.65495 -11.98684,53.68845 -38.67474,42.93216 z m 20.27389,-19.51515 c 5.79623,-5.79623 3.82392,-15.58553 -3.84399,-19.07927 -6.24268,-2.84435 -7.69717,-2.49451 -12.06743,2.90253 -9.5061,11.73954 5.29784,26.79032 15.91142,16.17674 z"
     id="path4763"
     inkscape:connector-curvature="0"
     transform="matrix(0.75,0,0,0.75,-24,0)" />
  <path
     style="fill:#000000;stroke-width:2.71186447"
     d="m 399.72881,565.66587 c -37.59678,-13.24152 -76.18665,-46.30007 -92.00962,-78.8213 -43.88201,-90.19144 5.36758,-198.47598 101.39294,-222.93159 78.83073,-20.07651 162.27599,26.58399 189.05381,105.71414 7.61006,22.48825 6.13464,79.15107 -2.64168,101.45149 -16.31659,41.46011 -53.73011,78.32361 -94.20666,92.8217 -12.2365,4.38294 -24.40329,6.05543 -50.06336,6.88195 -30.08513,0.96903 -35.88116,0.3935 -51.52543,-5.11639 z m 81.28053,-13.20325 c 32.09157,-7.39477 65.93194,-31.59825 84.63204,-60.53095 15.15629,-23.44969 21.21798,-45.56721 21.14888,-77.16648 -0.0683,-31.25284 -6.70047,-53.10622 -23.63227,-77.87023 -13.72003,-20.06656 -22.14481,-28.02891 -42.75121,-40.40461 -56.04625,-33.66001 -123.06285,-25.66596 -169.80757,20.25541 -57.28103,56.2721 -57.2798,140.93613 0.003,198.21184 28.18079,28.17734 56.37676,40.08603 95.22842,40.22011 12.67796,0.0437 28.50844,-1.17804 35.17883,-2.71509 z"
     id="path4784"
     inkscape:connector-curvature="0"
     transform="matrix(0.75,0,0,0.75,-24,0)" />
  <path
     style="fill:#000000;stroke-width:2.71186447"
     d="m 325.86213,426.01421 c 3.37332,-0.64866 8.25467,-0.62403 10.84745,0.0547 2.59278,0.67875 -0.16721,1.20948 -6.13331,1.17938 -5.9661,-0.0301 -8.08747,-0.58545 -4.71414,-1.23411 z"
     id="path4786"
     inkscape:connector-curvature="0"
     transform="matrix(0.75,0,0,0.75,-24,0)" />
  <path
     style="fill:#000000;stroke-width:2.71186447"
     d="m 438.80608,304.8824 c -3.25001,-8.46938 0.0384,-13.89935 8.4175,-13.89935 7.19037,0 8.09845,0.91225 8.09845,8.13559 0,6.8634 -1.16859,8.27001 -7.47304,8.99518 -4.76905,0.54856 -8.04108,-0.62068 -9.04291,-3.23142 z"
     id="path4788"
     inkscape:connector-curvature="0"
     transform="matrix(0.75,0,0,0.75,-24,0)" />
  <path
     style="fill:#000000;stroke-width:2.71186447"
     d="m 438.80608,538.10274 c -3.25001,-8.46939 0.0384,-13.89935 8.4175,-13.89935 7.19037,0 8.09845,0.91225 8.09845,8.13559 0,6.8634 -1.16859,8.27001 -7.47304,8.99518 -4.76905,0.54856 -8.04108,-0.62068 -9.04291,-3.23142 z"
     id="path4790"
     inkscape:connector-curvature="0"
     transform="matrix(0.75,0,0,0.75,-24,0)" />
  <path
     style="fill:#000000;stroke-width:2.71186447"
     d=""
     id="path4794"
     inkscape:connector-curvature="0"
     transform="matrix(0.75,0,0,0.75,-24,0)" />
  <path
     style="fill:#000000;stroke-width:2.71186447"
     d="m 322.19591,421.49257 c -3.25001,-8.46939 0.0384,-13.89935 8.4175,-13.89935 7.19037,0 8.09845,0.91225 8.09845,8.13559 0,6.8634 -1.16859,8.27001 -7.47304,8.99518 -4.76905,0.54856 -8.04108,-0.62068 -9.04291,-3.23142 z"
     id="path4800"
     inkscape:connector-curvature="0"
     transform="matrix(0.75,0,0,0.75,-24,0)" />
  <path
     style="fill:#000000;stroke-width:2.71186447"
     d="m 558.12811,421.49257 c -3.25001,-8.46939 0.0384,-13.89935 8.4175,-13.89935 7.19038,0 8.09846,0.91225 8.09846,8.13559 0,6.8634 -1.16859,8.27001 -7.47305,8.99518 -4.76905,0.54856 -8.04107,-0.62068 -9.04291,-3.23142 z"
     id="path4802"
     inkscape:connector-curvature="0"
     transform="matrix(0.75,0,0,0.75,-24,0)" />
  <path
     style="fill:#000000;stroke-width:2.71186447"
     d="M 62.101695,631.67268 C 51.162625,624.87867 42.782664,615.40797 38.995873,605.55932 35.007592,595.18666 32.238119,199.36665 35.465159,100.94078 l 2.229756,-68.008381 7.597813,-9.960576 C 59.923675,3.7909495 45.842447,4.8813559 278.90836,4.8813559 h 210.29636 l 11.26983,10.1694911 c 19.10272,17.237606 19.11338,17.303973 20.67409,128.813563 l 1.39487,99.66101 h -9.88192 -9.88193 V 145.8112 c 0,-104.824353 -0.71477,-111.017771 -13.87626,-120.236441 -3.47248,-2.432219 -9.51902,-4.422217 -13.43677,-4.422217 -7.0829,0 -7.1331,0.149568 -8.87409,26.440678 -0.96301,14.542373 -1.75723,35.798498 -1.76496,47.235832 -0.0217,31.047118 -3.70256,36.032368 -16.49047,22.329548 -3.61592,-3.87464 -9.97193,-9.47887 -14.12445,-12.45386 l -7.55004,-5.409065 -14.57739,12.453855 c -8.01757,6.84962 -16.35248,12.45386 -18.52203,12.45386 -5.44583,0 -7.39371,-16.88899 -7.39371,-64.107311 V 21.152542 l -153.8983,0.153064 C 120.5014,21.41677 75.774647,22.344711 68.881356,24.695436 61.712955,27.13998 58.597608,30.255327 56.153063,37.423729 c -2.419514,7.095007 -3.275413,78.544701 -3.38983,282.979991 -0.138462,247.40211 0.268656,274.37716 4.268222,282.80564 2.431707,5.12444 7.007978,10.80038 10.169491,12.61323 4.370205,2.5059 54.181204,3.29605 207.782104,3.29605 220.2518,0 216.0762,0.2863 222.51398,-15.25589 3.4457,-8.31867 12.08914,-15.93055 18.08944,-15.93055 9.3904,0 -2.2701,28.59352 -15.72854,38.56912 -3.84426,2.84941 -11.77647,6.29098 -17.62712,7.64791 -5.86739,1.36079 -100.62726,2.49161 -211.31556,2.52171 -191.101729,0.0518 -201.066187,-0.18657 -208.813555,-4.99826 z M 418.58899,82.317548 c 4.94972,-5.96404 9.95816,-5.263907 20.64279,2.885676 l 9.31059,7.10153 V 56.728648 21.152542 h -21.69491 -21.69492 v 35.349652 c 0,33.430462 0.26983,35.205277 4.96879,32.69043 2.73285,-1.462571 6.54329,-4.556356 8.46766,-6.875076 z"
     id="path4804"
     inkscape:connector-curvature="0"
     transform="matrix(0.75,0,0,0.75,-24,0)" />
  <path
     style="fill:#000000;stroke-width:2.71186447"
     d="M 96,201.49153 V 192 h 138.30508 138.30509 v 9.49153 9.49152 H 234.30508 96 Z"
     id="path4806"
     inkscape:connector-curvature="0"
     transform="matrix(0.75,0,0,0.75,-24,0)" />
  <path
     style="fill:#000000;stroke-width:2.71186447"
     d="m 422.10169,211.82556 c 2.61017,-0.68211 6.88136,-0.68211 9.49153,0 2.61017,0.68211 0.47458,1.2402 -4.74576,1.2402 -5.22034,0 -7.35593,-0.55809 -4.74577,-1.2402 z"
     id="path4808"
     inkscape:connector-curvature="0"
     transform="matrix(0.75,0,0,0.75,-24,0)" />
  <path
     style="fill:#000000;stroke-width:2.71186447"
     d="m 96,266.57627 v -9.49152 h 105.76271 105.76271 v 9.49152 9.49153 H 201.76271 96 Z"
     id="path4810"
     inkscape:connector-curvature="0"
     transform="matrix(0.75,0,0,0.75,-24,0)" />
  <path
     style="fill:#000000;stroke-width:2.71186447"
     d="m 96,331.66102 v -9.49153 h 84.0678 84.06779 v 9.49153 9.49152 H 180.0678 96 Z"
     id="path4812"
     inkscape:connector-curvature="0"
     transform="matrix(0.75,0,0,0.75,-24,0)" />
  <path
     style="fill:#000000;stroke-width:2.71186447"
     d="m 96,394.0339 v -9.49153 h 74.57627 74.57627 v 9.49153 9.49152 H 170.57627 96 Z"
     id="path4814"
     inkscape:connector-curvature="0"
     transform="matrix(0.75,0,0,0.75,-24,0)" />
  <path
     style="fill:#000000;stroke-width:2.71186447"
     d="m 96,502.50847 v -9.49152 h 52.88136 52.88135 V 502.50847 512 H 148.88136 96 Z"
     id="path4816"
     inkscape:connector-curvature="0"
     transform="matrix(0.75,0,0,0.75,-24,0)" />
  <path
     style="fill:#000000;stroke-width:2.71186447"
     d="m 96,543.18644 v -9.49152 h 52.88136 52.88135 v 9.49152 9.49153 H 148.88136 96 Z"
     id="path4818"
     inkscape:connector-curvature="0"
     transform="matrix(0.75,0,0,0.75,-24,0)" />
  <path
     style="fill:#000000;stroke-width:2.71186447"
     d="M 397.01695,201.49153 V 192 h 29.83051 29.83051 v 9.49153 9.49152 h -29.83051 -29.83051 z"
     id="path4820"
     inkscape:connector-curvature="0"
     transform="matrix(0.75,0,0,0.75,-24,0)" />
  <path
     style="fill:#000000;stroke-width:2.71186447"
     d="m 96,117.42373 v -9.49153 h 84.0678 84.06779 v 9.49153 9.49152 H 180.0678 96 Z"
     id="path4822"
     inkscape:connector-curvature="0"
     transform="matrix(0.75,0,0,0.75,-24,0)" />
  <path
     style="fill:#000000;stroke-width:2.71186447"
     d="m 161.08475,74.033898 v -9.491525 h 51.52542 51.52542 v 9.491525 9.491526 h -51.52542 -51.52542 z"
     id="path4824"
     inkscape:connector-curvature="0"
     transform="matrix(0.75,0,0,0.75,-24,0)" />
  <path
     style="fill:#000000;stroke-width:2.71186447"
     d="m 96,74.033898 v -9.491525 h 20.33898 20.33899 v 9.491525 9.491526 H 116.33898 96 Z"
     id="path4826"
     inkscape:connector-curvature="0"
     transform="matrix(0.75,0,0,0.75,-24,0)" />
</svg>
