<?xml version="1.0" encoding="UTF-8" standalone="no"?>
<svg
   xmlns:dc="http://purl.org/dc/elements/1.1/"
   xmlns:cc="http://creativecommons.org/ns#"
   xmlns:rdf="http://www.w3.org/1999/02/22-rdf-syntax-ns#"
   xmlns:svg="http://www.w3.org/2000/svg"
   xmlns="http://www.w3.org/2000/svg"
   xmlns:sodipodi="http://sodipodi.sourceforge.net/DTD/sodipodi-0.dtd"
   xmlns:inkscape="http://www.inkscape.org/namespaces/inkscape"
   inkscape:version="1.0 (6e3e5246a0, 2020-05-07)"
   sodipodi:docname="user.svg"
   xml:space="preserve"
   style="enable-background:new 0 0 512 512;"
   viewBox="0 0 512 512"
   y="0px"
   x="0px"
   id="Capa_1"
   version="1.1"><metadata
   id="metadata43"><rdf:RDF><cc:Work
       rdf:about=""><dc:format>image/svg+xml</dc:format><dc:type
         rdf:resource="http://purl.org/dc/dcmitype/StillImage" /></cc:Work></rdf:RDF></metadata><defs
   id="defs41" /><sodipodi:namedview
   inkscape:current-layer="Capa_1"
   inkscape:window-maximized="1"
   inkscape:window-y="27"
   inkscape:window-x="67"
   inkscape:cy="253.959"
   inkscape:cx="256"
   inkscape:zoom="1.7148438"
   showgrid="false"
   id="namedview39"
   inkscape:window-height="1025"
   inkscape:window-width="1853"
   inkscape:pageshadow="2"
   inkscape:pageopacity="0"
   guidetolerance="10"
   gridtolerance="10"
   objecttolerance="10"
   borderopacity="1"
   bordercolor="#666666"
   pagecolor="#ffffff" />
<g
   id="g6">
	<g
   id="g4">
		<path
   id="path2"
   d="M256,0C114.844,0,0,114.844,0,256s114.844,256,256,256s256-114.844,256-256S397.156,0,256,0z M256,74.667    c67.635,0,122.667,55.031,122.667,122.667S323.635,320,256,320s-122.667-55.031-122.667-122.667S188.365,74.667,256,74.667z     M256,469.333c-69.707,0-131.52-33.755-170.473-85.615c42.676-20.534,103.621-42.385,170.473-42.385    c66.857,0,127.807,21.854,170.474,42.383C387.521,435.577,325.708,469.333,256,469.333z" />
	</g>
</g>
<g
   id="g8">
</g>
<g
   id="g10">
</g>
<g
   id="g12">
</g>
<g
   id="g14">
</g>
<g
   id="g16">
</g>
<g
   id="g18">
</g>
<g
   id="g20">
</g>
<g
   id="g22">
</g>
<g
   id="g24">
</g>
<g
   id="g26">
</g>
<g
   id="g28">
</g>
<g
   id="g30">
</g>
<g
   id="g32">
</g>
<g
   id="g34">
</g>
<g
   id="g36">
</g>
<path
   id="path877"
   d="M 249.00228,511.5989 C 207.95072,510.54835 165.64407,498.76159 130.00325,478.44543 90.492554,455.92333 56.076669,421.50745 33.55457,381.99675 18.033224,354.76752 6.7889556,321.60916 2.692977,290.98861 c -3.01393248,-22.53143 -3.01393248,-47.44579 0,-69.97722 3.499975,-26.16497 12.063255,-53.95037 23.992765,-77.84966 5.908397,-11.83674 8.53198,-16.37474 16.182557,-27.99089 C 57.817886,92.472337 77.298413,71.371126 98.990197,54.379864 105.91639,48.954548 122.49212,37.80806 129.74943,33.695551 157.72267,17.843937 190.18344,6.8166986 221.01139,2.692977 239.25531,0.25256738 262.45171,-0.23095483 280.20046,1.4591985 350.04031,8.1098147 413.9544,43.244618 457.62014,98.990197 c 5.48314,7.000023 16.56205,23.491083 20.83497,31.013053 19.83377,34.91505 31.35029,75.1933 32.89263,115.03974 1.68953,43.64939 -6.8307,84.63169 -25.50422,122.67515 -6.02559,12.27591 -8.85144,17.1876 -16.74847,29.11102 -10.96494,16.55555 -20.48811,28.07137 -34.73878,42.00757 -20.06671,19.6239 -41.14945,34.49575 -66.63813,47.00679 -36.58657,17.9584 -77.39927,26.81271 -118.71586,25.75538 z m 33.23918,-43.58006 c 57.06177,-7.50649 105.29538,-35.09353 142.51376,-81.51025 l 2.19677,-2.7397 -3.98169,-2.00241 c -10.48878,-5.27484 -31.67775,-13.8967 -47.58349,-19.36188 -31.25847,-10.74033 -59.24546,-16.90568 -91.68749,-20.19812 -11.69849,-1.18725 -45.94816,-1.01662 -58.02278,0.28906 -31.07033,3.35977 -58.46493,9.45002 -88.25591,19.62066 -14.77308,5.04353 -39.461991,15.11565 -49.416851,20.16016 l -2.908627,1.47391 2.200562,2.74901 c 16.633486,20.7791 32.342406,35.20763 53.034566,48.71185 28.85807,18.8335 60.98961,30.02114 96.42598,33.57383 8.46286,0.84845 36.8459,0.37039 45.4852,-0.76612 z M 268.70635,319.54165 c 43.2632,-4.61566 81.30929,-31.9448 99.01274,-71.12252 C 386.4767,206.90855 381.385,160.12908 354.10433,123.33485 348.80912,116.19306 336.92931,104.4135 329.36302,98.802343 307.65482,82.703552 283.22274,74.665141 256,74.665141 c -17.91691,0 -32.7313,3.001002 -48.63223,9.851597 -25.32904,10.91251 -47.32607,31.255512 -60.06913,55.552332 -22.24975,42.42298 -18.10618,93.10338 10.74158,131.38116 19.77159,26.23472 50.12999,43.76482 82.79805,47.81074 7.64157,0.94641 20.42165,1.07512 27.86808,0.28068 z"
   style="opacity:0.961794;fill:#4400aa;fill-opacity:0.998416;stroke-width:0.583144" /></svg>
